<?xml version="1.0" encoding="utf-8"?>
<!-- Generator: Adobe Illustrator 30.1.0, SVG Export Plug-In . SVG Version: 9.03 Build 0)  -->
<svg version="1.0" id="Layer_1" xmlns="http://www.w3.org/2000/svg" xmlns:xlink="http://www.w3.org/1999/xlink" x="0px" y="0px"
	 viewBox="0 0 500 500" enable-background="new 0 0 500 500" xml:space="preserve">
<g>
	<path fill="#0071BC" d="M32.96,172.72c-0.19,0.19-0.28,0.38-0.47,0.56c0,0.09-0.09,0.09-0.09,0.18L32.96,172.72z"/>
	<g>
		<defs>
			<rect id="SVGID_1_" x="134.05" y="125.89" width="10.88" height="2.68"/>
		</defs>
		<clipPath id="SVGID_00000119084739385279221990000013974776239155839127_">
			<use xlink:href="#SVGID_1_"  overflow="visible"/>
		</clipPath>
		<g clip-path="url(#SVGID_00000119084739385279221990000013974776239155839127_)">
			<path fill="#0071BC" d="M139.98,126.82c-0.64-0.1-1.2-0.1-1.86-0.19c-0.83-0.09-1.66-0.18-2.5-0.28c2.69,0.37,6.21,0.74,8.9,1.11
				C143.05,127.09,141.56,126.91,139.98,126.82z"/>
		</g>
	</g>
	<path fill="#0071BC" d="M146.11,128.3c-0.93-0.09-1.49-0.18-1.86-0.28c-1.02-0.38-2.04-0.65-3.16-0.93c0,0-0.09,0-0.09-0.09
		c0.19,0,0.19,0,0.93,0.09c2.88,0.28,5.75,0.74,8.53,1.39l2.41,0.56l0.55,0.09c1.21,0.28,2.32,0.65,3.34,1.02c0,0,0.09,0,0.09,0.09
		c-0.18,0-0.28,0-0.93-0.18C152.59,129.32,149.35,128.76,146.11,128.3z"/>
	<path fill="#0071BC" d="M163.26,132.1c-1.21-0.37-1.58-0.56-1.86-0.65c-0.65-0.28-1.3-0.46-1.95-0.64
		c3.06,1.02,7.14,2.41,10.11,3.52C167.44,133.5,165.4,132.75,163.26,132.1z"/>
	<path fill="#0071BC" d="M150.46,130.9c-0.93-0.18-1.48-0.28-1.76-0.47c-0.64-0.55-1.39-1.02-2.22-1.48v-0.09
		c0.28,0,0.47,0,1.02,0.09c3.34,0.37,6.68,1.02,9.93,1.76c0.83,0.18,1.48,0.37,1.85,0.55c1.03,0.47,1.86,1.11,2.6,1.76
		c0,0,0,0,0,0.09c-0.18,0-0.46,0-1.11-0.18C157.32,132.1,153.9,131.45,150.46,130.9z"/>
	<path fill="#0071BC" d="M168.55,135.25c-0.93-0.28-1.48-0.55-1.76-0.74c-0.84-0.65-1.76-1.3-2.78-1.86c0,0,0-0.09-0.09-0.09
		c0.18,0,0.28,0,1.02,0.28c3.16,1.02,6.31,2.22,9.37,3.62c1.02,0.46,1.49,0.64,1.76,0.83c1.2,0.65,2.22,1.3,3.06,2.05v0.09
		c-0.18,0-0.28,0-1.02-0.38C175.04,137.57,171.89,136.37,168.55,135.25z"/>
	<path fill="#0071BC" d="M153.06,134.42c-0.93-0.18-1.49-0.37-1.67-0.55c-0.37-0.74-0.74-1.4-1.3-2.04v-0.09
		c0.28-0.09,0.65,0,1.2,0.09c3.53,0.55,6.95,1.2,10.39,2.13c0.93,0.28,1.49,0.46,1.76,0.74c0.64,0.74,1.11,1.48,1.48,2.32
		c0,0,0,0.09-0.09,0.09c-0.28,0-0.55,0-1.3-0.18C160.2,135.9,156.59,135.16,153.06,134.42z"/>
	<path fill="#0071BC" d="M171.8,139.52c-0.93-0.38-1.49-0.65-1.67-0.93c-0.38-0.84-0.93-1.67-1.58-2.41v-0.09
		c0.28-0.09,0.56,0,1.11,0.18c3.34,1.12,6.59,2.41,9.74,3.89c0.84,0.38,1.4,0.74,1.67,1.03c0.74,0.83,1.3,1.76,1.76,2.68v0.09
		c-0.18,0-0.56-0.09-1.2-0.37C178.47,142.12,175.13,140.73,171.8,139.52z"/>
	<path fill="#0071BC" d="M185.89,143.78l-0.18-0.18v-0.09c0.09,0,0.09-0.09,0.56,0.18L185.89,143.78z"/>
	<path fill="#0071BC" d="M153.8,138.87c-1.02-0.18-1.49-0.46-1.58-0.74c0-0.93-0.09-1.66-0.28-2.5c0.09-0.09,0.18-0.28,1.48-0.09
		c3.62,0.74,7.15,1.57,10.66,2.59c0.93,0.28,1.49,0.56,1.58,0.84c0.18,0.93,0.28,1.86,0.28,2.88c-0.09,0.28-0.55,0.18-1.48-0.09
		C160.94,140.73,157.42,139.71,153.8,138.87z"/>
	<path fill="#0071BC" d="M152.5,144.07c-0.93-0.28-1.39-0.56-1.39-0.93c0.37-1.02,0.65-1.95,0.84-2.88c0.18-0.19,0.64-0.19,1.57,0
		c3.62,0.93,7.15,1.95,10.67,3.15c0.93,0.37,1.39,0.65,1.39,1.02c-0.18,1.11-0.56,2.22-0.93,3.34c-0.18,0.28-0.74,0.28-1.67-0.09
		C159.65,146.29,156.12,145.09,152.5,144.07z"/>
	<path fill="#0071BC" d="M99.09,185.8c-0.28-0.74-0.19-1.3,0.28-1.58c1.95-0.93,3.99-1.76,5.93-2.78c0.56-0.19,1.02,0.09,1.49,0.74
		c1.57,2.78,3.15,5.57,4.73,8.53c0.37,0.74,0.28,1.4-0.28,1.67c-2.32,1.11-4.54,2.22-6.86,3.24c-0.65,0.19-1.11-0.09-1.57-0.83
		C101.58,191.64,100.29,188.67,99.09,185.8z"/>
	<path fill="#0071BC" d="M88.05,190.25c-0.18-0.84,0-1.4,0.56-1.67c2.04-0.74,4.08-1.58,6.03-2.41c0.56-0.09,1.02,0.19,1.3,0.93
		c1.12,2.97,2.23,6.03,3.43,9.09c0.28,0.84,0.09,1.39-0.47,1.76c-2.32,1.02-4.72,1.95-7.05,2.78c-0.65,0.18-1.11-0.18-1.39-1.02
		C89.62,196.46,88.79,193.31,88.05,190.25z"/>
	<path fill="#0071BC" d="M76.91,193.87c0-0.84,0.19-1.4,0.74-1.58c2.04-0.65,4.09-1.2,6.13-1.95c0.55-0.09,0.93,0.18,1.11,1.02
		c0.65,3.15,1.3,6.31,2.04,9.64c0.09,0.84-0.09,1.49-0.74,1.76c-2.41,0.84-4.73,1.57-7.14,2.22c-0.65,0.09-1.02-0.28-1.21-1.2
		C77.56,200.45,77.2,197.12,76.91,193.87z"/>
	<path fill="#0071BC" d="M79.05,211.86c-0.09-0.93,0.18-1.48,0.84-1.76c2.5-0.74,5.01-1.57,7.51-2.41c0.65-0.09,1.12,0.18,1.49,1.11
		c0.84,3.34,1.67,6.77,2.6,10.2c0.18,0.93-0.09,1.57-0.74,1.95c-2.78,0.93-5.57,1.76-8.35,2.6c-0.74,0.09-1.2-0.28-1.48-1.21
		C80.16,218.82,79.6,215.39,79.05,211.86z"/>
	<path fill="#0071BC" d="M65.97,196.56c0.09-0.93,0.47-1.39,0.93-1.66c2.04-0.38,3.99-0.84,6.03-1.4c0.56-0.09,0.84,0.38,0.93,1.2
		c0.09,3.34,0.28,6.68,0.65,10.11c0,0.93-0.28,1.49-0.93,1.67c-2.32,0.64-4.73,1.2-7.05,1.66c-0.65,0.1-0.93-0.37-1.02-1.3
		C65.6,203.43,65.7,199.99,65.97,196.56z"/>
	<path fill="#0071BC" d="M65.7,215.2c0-0.93,0.37-1.49,1.02-1.76c2.41-0.56,4.91-1.11,7.42-1.76c0.64-0.09,1.02,0.28,1.2,1.2
		c0.37,3.53,0.93,7.05,1.48,10.57c0.09,1.02-0.18,1.58-0.93,1.86c-2.78,0.74-5.47,1.4-8.25,1.95c-0.74,0-1.11-0.37-1.3-1.3
		C65.97,222.34,65.79,218.82,65.7,215.2z"/>
	<path fill="#0071BC" d="M67.18,234.58c0-1.02,0.28-1.58,1.02-1.86c2.78-0.55,5.66-1.3,8.53-1.95c0.74-0.09,1.3,0.28,1.49,1.2
		c0.65,3.62,1.48,7.24,2.22,10.95c0.09,1.02-0.18,1.57-0.93,1.86c-3.06,0.84-6.12,1.48-9.18,2.13c-0.84,0.09-1.3-0.37-1.58-1.3
		C68.1,242.01,67.55,238.29,67.18,234.58z"/>
	<path fill="#0071BC" d="M70.43,254.34c-0.09-1.02,0.18-1.58,1.02-1.86c3.15-0.65,6.3-1.4,9.46-2.23c0.84-0.09,1.39,0.28,1.76,1.21
		c0.93,3.61,1.95,7.32,3.07,10.94c0.18,0.93-0.09,1.58-0.93,1.95c-3.34,0.84-6.59,1.67-9.93,2.32c-0.84,0.09-1.48-0.38-1.86-1.3
		C72,261.76,71.16,258.05,70.43,254.34z"/>
	<path fill="#0071BC" d="M82.2,293.11c-0.28-0.93,0-1.48,0.84-1.76c3.43-0.74,6.86-1.57,10.39-2.41c0.93-0.18,1.57,0.18,2.13,1.11
		c0.93,2.13,1.86,4.26,2.78,6.4c0.55,1.3,1.2,2.59,1.76,3.89c0.28,0.93,0.09,1.48-0.84,1.76c-3.43,0.93-6.95,1.76-10.39,2.41
		c-0.93,0.09-1.67-0.28-2.13-1.11c-0.65-1.3-1.2-2.6-1.76-3.89C83.97,297.38,83.04,295.24,82.2,293.11z"/>
	<path fill="#0071BC" d="M90.46,310.82c-0.38-0.84-0.09-1.4,0.74-1.58c3.43-0.74,6.87-1.58,10.3-2.41c0.93-0.18,1.67,0.19,2.13,0.93
		c1.58,3.07,3.25,6.03,4.82,8.82c0.38,0.74,0.1,1.3-0.74,1.57c-3.43,0.84-6.77,1.67-10.11,2.32c-0.93,0.09-1.58-0.19-2.13-0.93
		C93.89,316.85,92.12,313.97,90.46,310.82z"/>
	<path fill="#0071BC" d="M99.73,325.93c-0.37-0.64-0.18-1.11,0.65-1.39c3.24-0.65,6.59-1.49,9.92-2.32
		c0.93-0.19,1.58,0.09,2.14,0.74c1.66,2.6,3.34,5.01,5.01,7.33c0.37,0.65,0.18,1.02-0.65,1.3c-3.15,0.84-6.4,1.58-9.55,2.23
		c-0.84,0.09-1.57-0.09-2.13-0.65C103.35,330.86,101.58,328.44,99.73,325.93z"/>
	<path fill="#0071BC" d="M109.66,338.09c-0.47-0.56-0.28-0.93,0.46-1.11c3.06-0.65,6.13-1.4,9.28-2.22c0.84-0.19,1.57,0,2.04,0.55
		c1.67,2.04,3.34,3.89,5.1,5.66c0.38,0.47,0.18,0.84-0.55,1.11c-2.88,0.74-5.75,1.4-8.63,2.04c-0.84,0.09-1.49,0-2.04-0.46
		C113.46,341.89,111.51,340.13,109.66,338.09z"/>
	<path fill="#0071BC" d="M119.86,347.18c-0.46-0.38-0.28-0.65,0.38-0.84c2.78-0.56,5.57-1.21,8.34-1.95
		c0.74-0.19,1.4-0.09,1.95,0.28c1.67,1.48,3.34,2.78,5.01,3.89c0.37,0.28,0.28,0.56-0.38,0.74c-2.5,0.64-5.1,1.3-7.61,1.76
		c-0.74,0.09-1.3,0-1.86-0.19C123.75,349.86,121.8,348.66,119.86,347.18z"/>
	<path fill="#0071BC" d="M130.34,353.21c-0.55-0.28-0.28-0.47,0-0.47c0,0,0.09-0.09,0.18-0.09c2.41-0.55,4.73-1.11,7.24-1.66
		c0.65-0.19,1.2-0.1,1.76,0.09c1.57,0.93,3.24,1.57,4.82,2.13c0.18,0.09,0.18,0.09,0.18,0.28c-0.09,0.09-0.18,0.09-0.46,0.18
		c-2.05,0.56-4.18,1.02-6.22,1.49c-0.55,0.09-1.11,0.09-1.67,0C134.14,354.59,132.19,354.04,130.34,353.21z"/>
	<path fill="#0071BC" d="M140.54,355.9c-0.18,0-0.18,0-0.28-0.09v-0.1c0.09-0.09,0.09-0.09,0.28-0.09c1.95-0.37,3.89-0.84,5.84-1.39
		c0.56-0.09,1.02-0.18,1.49-0.09c1.48,0.28,3.06,0.37,4.54,0.28c0.09,0,0.09,0,0.18,0v0.09c-0.09,0-0.18,0.09-0.18,0.09
		c-1.57,0.38-3.15,0.74-4.73,1.11c-0.46,0.1-0.93,0.19-1.48,0.19C144.34,356.08,142.49,356.08,140.54,355.9z"/>
	<path fill="#0071BC" d="M153.8,354.41c-0.84,0.18-1.67,0.37-2.41,0.56C152.22,354.78,153.06,354.69,153.8,354.41z"/>
	<path fill="#0071BC" d="M55.68,198.23c0.19-0.93,0.56-1.39,1.02-1.58c1.76-0.18,3.62-0.46,5.57-0.83c0.47,0,0.74,0.46,0.65,1.3
		c-0.38,3.43-0.65,6.86-0.74,10.39c-0.09,0.93-0.46,1.48-1.02,1.67c-2.22,0.37-4.36,0.64-6.4,0.92c-0.55,0-0.74-0.46-0.74-1.39
		C54.47,205.18,55.03,201.66,55.68,198.23z"/>
	<path fill="#0071BC" d="M53.18,217.15c0.18-0.93,0.46-1.49,1.02-1.67c2.13-0.28,4.45-0.55,6.77-1.02c0.55,0,0.93,0.47,1.02,1.39
		c0,3.62,0.09,7.24,0.28,10.86c0,1.02-0.37,1.57-1.02,1.76c-2.6,0.46-5.1,0.84-7.51,1.11c-0.64,0-1.02-0.47-1.02-1.49
		C52.71,224.47,52.89,220.77,53.18,217.15z"/>
	<path fill="#0071BC" d="M52.8,236.9c0-0.93,0.38-1.57,1.02-1.66c2.51-0.28,5.11-0.65,7.8-1.11c0.74,0,1.11,0.37,1.3,1.39
		c0.37,3.71,0.84,7.42,1.39,11.13c0.09,1.02-0.28,1.57-1.02,1.76c-2.88,0.47-5.75,0.84-8.44,1.21c-0.74,0-1.11-0.47-1.3-1.49
		C53.18,244.32,52.89,240.61,52.8,236.9z"/>
	<path fill="#0071BC" d="M54.56,256.84c-0.09-1.02,0.28-1.57,0.93-1.76c2.78-0.28,5.66-0.74,8.63-1.2c0.84,0,1.3,0.47,1.58,1.4
		c0.74,3.7,1.48,7.41,2.41,11.03c0.18,1.02-0.18,1.58-0.93,1.76c-3.15,0.56-6.21,0.93-9.09,1.3c-0.84,0-1.3-0.46-1.58-1.48
		C55.77,264.35,55.12,260.55,54.56,256.84z"/>
	<path fill="#0071BC" d="M58.64,276.69c-0.18-0.93,0.1-1.49,0.84-1.76c2.97-0.37,6.03-0.74,9.18-1.3c0.84-0.09,1.48,0.37,1.86,1.3
		c1.02,3.62,2.22,7.24,3.52,10.76c0.28,0.93,0,1.58-0.83,1.76c-3.25,0.56-6.4,1.02-9.46,1.4c-0.84,0-1.4-0.47-1.76-1.4
		C60.69,283.93,59.57,280.31,58.64,276.69z"/>
	<path fill="#0071BC" d="M64.86,295.8c-0.28-0.93,0-1.49,0.74-1.67c3.06-0.37,6.21-0.84,9.46-1.39c0.93,0,1.57,0.37,2.04,1.2
		c0.84,2.13,1.76,4.26,2.78,6.4c0.55,1.3,1.2,2.59,1.76,3.89c0.38,0.84,0.1,1.39-0.74,1.66c-3.25,0.56-6.49,1.03-9.46,1.4
		c-0.84,0-1.49-0.37-2.04-1.3c-0.65-1.3-1.21-2.51-1.86-3.8C66.62,300.15,65.7,298.02,64.86,295.8z"/>
	<path fill="#0071BC" d="M73.3,313.6c-0.38-0.83-0.18-1.3,0.55-1.48c3.06-0.37,6.22-0.84,9.46-1.4c0.93-0.09,1.58,0.28,2.13,1.12
		c1.67,3.06,3.43,6.03,5.2,8.81c0.37,0.74,0.18,1.2-0.65,1.39c-3.15,0.56-6.3,0.93-9.28,1.3c-0.83,0-1.48-0.28-2.04-1.02
		C76.82,319.54,75.06,316.67,73.3,313.6z"/>
	<path fill="#0071BC" d="M83.22,328.53c-0.46-0.65-0.28-1.11,0.47-1.2c2.97-0.38,5.93-0.84,9.09-1.3c0.93-0.09,1.58,0.19,2.13,0.84
		c1.86,2.51,3.71,4.91,5.66,7.15c0.38,0.55,0.28,1.02-0.46,1.2c-3.06,0.56-5.93,0.93-8.72,1.3c-0.84,0-1.49-0.28-2.14-0.83
		C87.21,333.45,85.17,331.04,83.22,328.53z"/>
	<path fill="#0071BC" d="M94.26,340.5c-0.47-0.56-0.38-0.84,0.28-0.93c2.78-0.38,5.57-0.74,8.53-1.21c0.84-0.09,1.48,0.09,2.13,0.65
		c1.95,1.95,3.99,3.8,5.93,5.47c0.47,0.46,0.38,0.74-0.28,0.93c-2.78,0.46-5.38,0.84-7.97,1.11c-0.74,0-1.4-0.18-2.05-0.56
		C98.53,344.3,96.39,342.45,94.26,340.5z"/>
	<path fill="#0071BC" d="M106.04,349.4c-0.74-0.56-0.18-0.65,0.09-0.74c2.41-0.28,5.01-0.65,7.7-1.11c0.74-0.09,1.39,0.09,2.04,0.37
		c2.04,1.4,4.08,2.6,6.13,3.71c0.55,0.38,0.28,0.56,0.09,0.56c-0.09,0-0.09,0-0.19,0c-2.41,0.37-4.72,0.74-6.95,1.02
		c-0.64,0-1.3-0.09-1.95-0.28C110.68,351.9,108.35,350.7,106.04,349.4z"/>
	<path fill="#0071BC" d="M118.47,355.06c-0.38-0.18-0.38-0.18-0.47-0.28c0.09-0.09,0.09-0.09,0.38-0.09
		c2.13-0.28,4.36-0.55,6.59-0.93c0.64-0.09,1.2,0,1.86,0.19c2.04,0.74,4.08,1.39,6.12,1.86c0.18,0.09,0.28,0.09,0.37,0.09v0.09
		c-0.09,0-0.18,0.09-0.37,0.09c-1.95,0.37-3.89,0.65-5.66,0.84c-0.56,0.09-1.11,0-1.76-0.09
		C123.2,356.36,120.78,355.8,118.47,355.06z"/>
	<g>
		<defs>
			<rect id="SVGID_00000181078645517117072500000004137423592432574868_" x="130.43" y="355.18" width="14.5" height="3.21"/>
		</defs>
		<clipPath id="SVGID_00000145029505495517820710000016197594629156264321_">
			<use xlink:href="#SVGID_00000181078645517117072500000004137423592432574868_"  overflow="visible"/>
		</clipPath>
		<g clip-path="url(#SVGID_00000145029505495517820710000016197594629156264321_)">
			<path fill="#0071BC" d="M131.08,357.38c-0.37,0-0.46,0-0.56-0.09c0.1,0,0.19,0,0.19-0.09c1.76-0.18,3.52-0.46,5.37-0.74
				c0.56-0.09,1.11-0.09,1.67,0c2.04,0.18,4.08,0.18,6.03,0c0.09,0,0.28,0,0.38,0c-0.09,0-0.09,0.09-0.19,0.09
				c-0.46,0.09-0.92,0.19-1.39,0.19c-1.86,0.18-4.36,0.55-6.21,0.74C134.61,357.47,132.84,357.47,131.08,357.38z"/>
		</g>
	</g>
	<path fill="#0071BC" d="M46.87,198.6c0.28-0.92,0.65-1.39,1.11-1.48c1.49,0,3.06,0,4.73-0.18c0.38,0.09,0.56,0.55,0.38,1.39
		c-0.74,3.43-1.49,6.95-1.95,10.57c-0.19,0.93-0.56,1.49-1.02,1.58c-1.95,0.09-3.8,0.18-5.57,0.18c-0.47-0.09-0.56-0.56-0.38-1.58
		C44.92,205.65,45.85,202.12,46.87,198.6z"/>
	<path fill="#0071BC" d="M42.41,217.7c0.19-0.93,0.56-1.48,1.03-1.57c1.85,0,3.8,0,5.84-0.18c0.55,0.09,0.74,0.55,0.74,1.48
		c-0.37,3.62-0.64,7.33-0.74,11.04c-0.09,0.93-0.47,1.48-1.02,1.66c-2.23,0.19-4.45,0.19-6.49,0.19c-0.56-0.1-0.74-0.65-0.74-1.58
		C41.3,225.03,41.77,221.32,42.41,217.7z"/>
	<path fill="#0071BC" d="M40.37,237.46c0.09-0.93,0.38-1.49,1.02-1.58c2.14,0,4.36,0,6.68-0.18c0.65,0,0.93,0.56,1.02,1.49
		c0,3.71,0.19,7.51,0.56,11.22c0,1.03-0.28,1.58-0.93,1.67c-2.51,0.18-4.91,0.18-7.23,0.18c-0.65-0.09-0.93-0.64-1.03-1.57
		C40.28,244.97,40.28,241.17,40.37,237.46z"/>
	<path fill="#0071BC" d="M40.93,257.49c0-1.02,0.28-1.49,0.84-1.58c2.41,0,4.82,0,7.42-0.18c0.64,0,1.11,0.56,1.3,1.58
		c0.46,3.71,1.11,7.41,1.86,11.13c0.09,0.93-0.18,1.49-0.84,1.67c-2.69,0.18-5.29,0.28-7.79,0.28c-0.65-0.09-1.11-0.64-1.3-1.57
		C41.77,265.01,41.3,261.3,40.93,257.49z"/>
	<path fill="#0071BC" d="M44.08,277.34c-0.18-0.93,0.09-1.4,0.74-1.58c2.51,0,5.1-0.09,7.88-0.18c0.74,0.09,1.3,0.55,1.58,1.48
		c0.93,3.62,1.95,7.24,3.15,10.86c0.28,0.93,0,1.48-0.74,1.57c-2.88,0.19-5.56,0.28-8.16,0.19c-0.65-0.1-1.2-0.56-1.58-1.49
		C45.94,284.66,44.92,281.05,44.08,277.34z"/>
	<path fill="#0071BC" d="M50.02,296.54c-0.28-0.93-0.09-1.4,0.56-1.49c2.6,0,5.29-0.09,8.16-0.28c0.74,0.09,1.39,0.55,1.76,1.39
		c0.84,2.14,1.76,4.27,2.69,6.4c0.56,1.3,1.2,2.6,1.76,3.89c0.37,0.84,0.18,1.39-0.56,1.49c-2.88,0.18-5.56,0.28-8.16,0.28
		c-0.74-0.09-1.3-0.56-1.86-1.4c-0.65-1.2-1.2-2.5-1.76-3.8C51.69,300.8,50.85,298.67,50.02,296.54z"/>
	<path fill="#0071BC" d="M58.46,314.25c-0.37-0.84-0.28-1.2,0.38-1.3c2.59,0,5.28-0.09,8.16-0.28c0.84,0,1.4,0.46,1.95,1.2
		c1.76,3.06,3.62,5.93,5.47,8.72c0.46,0.74,0.28,1.11-0.38,1.3c-2.78,0.18-5.37,0.28-7.97,0.28c-0.74-0.1-1.39-0.47-1.95-1.21
		C62.17,320.28,60.22,317.31,58.46,314.25z"/>
	<path fill="#0071BC" d="M68.94,329.19c-0.46-0.65-0.46-1.02,0.18-1.02c2.51,0,5.11-0.09,7.89-0.28c0.74,0,1.39,0.38,2.04,1.02
		c2.04,2.51,4.08,4.92,6.21,7.05c0.47,0.55,0.38,0.93-0.18,1.02c-2.6,0.18-5.1,0.28-7.51,0.18c-0.65-0.09-1.3-0.37-2.04-0.93
		C73.21,334.1,71.07,331.78,68.94,329.19z"/>
	<path fill="#0071BC" d="M80.91,341.15c-0.74-0.74-0.38-0.84,0-0.84c2.32,0,4.73-0.09,7.32-0.18c0.74,0,1.4,0.28,2.04,0.74
		c2.23,1.95,4.45,3.71,6.78,5.38c0.74,0.55,0.28,0.74,0,0.74c-2.41,0.19-4.64,0.19-6.78,0.19c-0.64,0-1.3-0.28-2.04-0.65
		C85.73,344.86,83.31,343.09,80.91,341.15z"/>
	<path fill="#0071BC" d="M94.17,349.96c-0.38-0.18-0.38-0.28-0.56-0.46v-0.09c0.09,0,0.18,0,0.28,0c2.13,0,4.27-0.09,6.59-0.18
		c0.65,0,1.3,0.18,1.95,0.55c2.32,1.3,4.73,2.51,7.15,3.53c0.37,0.18,0.37,0.18,0.46,0.37c-0.09,0.09-0.18,0.09-0.28,0.09
		c-2.04,0.1-4.08,0.19-5.93,0.19c-0.56,0-1.21-0.19-1.95-0.38C99.36,352.46,96.67,351.35,94.17,349.96z"/>
	<g>
		<defs>
			<rect id="SVGID_00000157280723509710768670000004649958968935967915_" x="106.86" y="353.37" width="18.13" height="5.02"/>
		</defs>
		<clipPath id="SVGID_00000091007140461641222080000016557197240249853370_">
			<use xlink:href="#SVGID_00000157280723509710768670000004649958968935967915_"  overflow="visible"/>
		</clipPath>
		<g clip-path="url(#SVGID_00000091007140461641222080000016557197240249853370_)">
			<path fill="#0071BC" d="M108.26,355.52c-0.37-0.09-0.46-0.09-0.64-0.28c0.09,0,0.18-0.09,0.18-0.09c1.76,0,3.71-0.09,5.66-0.18
				c0.55,0,1.2,0.09,1.86,0.28c2.41,0.74,4.91,1.3,7.41,1.67c0.47,0.09,0.47,0.09,0.56,0.18c-0.09,0-0.18,0.09-0.28,0.09
				c-1.67,0.09-3.34,0.18-4.92,0.18c-0.46,0-1.11-0.09-1.85-0.18C113.64,356.82,110.95,356.26,108.26,355.52z"/>
		</g>
	</g>
	<g>
		<defs>
			<rect id="SVGID_00000112606255722083679250000000883630336804320432_" x="121.36" y="356.99" width="12.69" height="1.4"/>
		</defs>
		<clipPath id="SVGID_00000054983526819560115090000014539460477833111425_">
			<use xlink:href="#SVGID_00000112606255722083679250000000883630336804320432_"  overflow="visible"/>
		</clipPath>
		<g clip-path="url(#SVGID_00000054983526819560115090000014539460477833111425_)">
			<path fill="#0071BC" d="M122.36,357.75c-0.09,0-0.09,0-0.18,0C122.27,357.75,122.27,357.75,122.36,357.75
				c1.48,0,2.97-0.1,4.55-0.19c0.46,0,1.02,0,1.76,0c1.3,0.09,2.59,0.09,3.89,0C129.5,357.65,125.42,357.75,122.36,357.75z"/>
		</g>
	</g>
	<path fill="#0071BC" d="M39.54,197.95c0.38-0.84,0.74-1.3,1.12-1.4c1.2,0.19,2.5,0.38,3.89,0.47c0.37,0.09,0.37,0.65,0.09,1.48
		c-1.11,3.53-2.13,6.96-3.06,10.57c-0.28,0.93-0.65,1.4-1.12,1.49c-1.57-0.09-3.15-0.28-4.54-0.56c-0.38-0.18-0.38-0.74-0.18-1.66
		C36.85,204.81,38.15,201.38,39.54,197.95z"/>
	<path fill="#0071BC" d="M33.42,216.87c0.28-0.93,0.56-1.4,1.02-1.49c1.49,0.28,3.15,0.46,4.82,0.56c0.47,0.09,0.56,0.64,0.47,1.57
		c-0.65,3.62-1.21,7.33-1.67,11.04c-0.18,1.02-0.47,1.48-1.02,1.48c-1.86-0.09-3.71-0.37-5.38-0.64c-0.46-0.19-0.55-0.74-0.46-1.67
		C31.84,224.1,32.58,220.48,33.42,216.87z"/>
	<path fill="#0071BC" d="M30.08,236.53c0.09-0.93,0.46-1.48,0.93-1.48c1.76,0.28,3.61,0.55,5.56,0.64c0.47,0.09,0.74,0.65,0.74,1.67
		c-0.18,3.71-0.28,7.51-0.18,11.22c0,0.93-0.28,1.48-0.84,1.57c-2.13-0.18-4.08-0.37-5.93-0.74c-0.47-0.19-0.74-0.74-0.74-1.76
		C29.52,243.95,29.71,240.24,30.08,236.53z"/>
	<path fill="#0071BC" d="M29.62,256.47c0-0.93,0.28-1.49,0.74-1.49c1.95,0.38,3.99,0.56,6.12,0.74c0.56,0.09,0.93,0.65,1.02,1.67
		c0.28,3.71,0.74,7.42,1.3,11.13c0.09,0.93-0.18,1.49-0.74,1.49c-2.22-0.18-4.45-0.46-6.4-0.74c-0.55-0.18-0.93-0.74-1.11-1.76
		C30.08,263.89,29.8,260.18,29.62,256.47z"/>
	<path fill="#0071BC" d="M32.03,276.22c-0.09-0.92,0.09-1.39,0.55-1.39c2.04,0.37,4.27,0.65,6.59,0.84c0.65,0.09,1.02,0.65,1.3,1.67
		c0.84,3.61,1.76,7.23,2.88,10.85c0.19,0.93,0.1,1.39-0.55,1.49c-2.41-0.19-4.64-0.47-6.68-0.84c-0.56-0.19-1.02-0.74-1.3-1.67
		C33.69,283.46,32.77,279.84,32.03,276.22z"/>
	<path fill="#0071BC" d="M37.59,295.33c-0.28-0.93-0.18-1.3,0.28-1.3c2.13,0.37,4.36,0.65,6.77,0.84c0.64,0.09,1.2,0.65,1.57,1.58
		c0.84,2.13,1.67,4.26,2.69,6.39c0.56,1.3,1.21,2.6,1.86,3.8c0.38,0.84,0.28,1.3-0.37,1.3c-2.41-0.19-4.64-0.47-6.77-0.84
		c-0.56-0.18-1.11-0.65-1.58-1.58c-0.65-1.3-1.2-2.6-1.86-3.89C39.26,299.69,38.43,297.56,37.59,295.33z"/>
	<path fill="#0071BC" d="M46.12,313.14c-0.46-0.74-0.37-1.2,0.09-1.2c2.14,0.37,4.36,0.64,6.68,0.84c0.65,0.09,1.21,0.55,1.76,1.39
		c1.76,3.06,3.71,5.93,5.66,8.72c0.47,0.74,0.38,1.11-0.18,1.11c-2.32-0.18-4.55-0.37-6.59-0.84c-0.55-0.18-1.11-0.55-1.76-1.3
		C49.93,319.07,47.98,316.2,46.12,313.14z"/>
	<path fill="#0071BC" d="M57.07,328.07c-0.74-0.93-0.38-0.93-0.09-0.93c2.04,0.37,4.17,0.55,6.49,0.74c0.65,0.1,1.3,0.47,1.95,1.12
		c2.14,2.5,4.36,4.91,6.68,7.05c0.74,0.74,0.38,0.84,0,0.84c-2.22-0.18-4.26-0.47-6.21-0.74c-0.56-0.18-1.2-0.56-1.86-1.11
		C61.62,332.99,59.29,330.67,57.07,328.07z"/>
	<path fill="#0071BC" d="M69.87,340.13c-0.37-0.28-0.55-0.46-0.55-0.64c0.09-0.1,0.18-0.1,0.28-0.1c1.86,0.38,3.89,0.56,6.03,0.74
		c0.65,0.09,1.3,0.38,1.95,0.93c2.41,1.95,4.91,3.71,7.42,5.38c0.37,0.18,0.46,0.28,0.56,0.46v0.09c-0.1,0-0.19,0-0.28,0
		c-1.95-0.09-3.89-0.37-5.66-0.64c-0.55-0.09-1.2-0.38-1.95-0.84C75.06,343.84,72.47,342.07,69.87,340.13z"/>
	<path fill="#0071BC" d="M84.24,349.03c-0.55-0.28-0.65-0.37-0.65-0.46c0.1,0,0.19,0,0.19,0c1.66,0.28,3.52,0.46,5.47,0.65
		c0.56,0.09,1.21,0.28,1.95,0.64c2.69,1.4,5.29,2.51,8.07,3.53c0.37,0.09,0.46,0.18,0.55,0.28l-0.09,0.09c-0.09,0-0.09,0-0.09,0
		c-1.76-0.09-3.34-0.37-4.91-0.55c-0.46-0.09-1.11-0.28-1.95-0.56C89.9,351.53,87.03,350.33,84.24,349.03z"/>
	<g>
		<defs>
			<rect id="SVGID_00000142876400676849808430000007391052556301632641_" x="97.8" y="353.37" width="18.13" height="5.02"/>
		</defs>
		<clipPath id="SVGID_00000140698738624927563220000005467445276858994613_">
			<use xlink:href="#SVGID_00000142876400676849808430000007391052556301632641_"  overflow="visible"/>
		</clipPath>
		<g clip-path="url(#SVGID_00000140698738624927563220000005467445276858994613_)">
			<path fill="#0071BC" d="M99.73,354.69c-0.64-0.18-0.74-0.18-0.84-0.28h0.1c1.48,0.28,3.06,0.47,4.63,0.56
				c0.56,0.09,1.12,0.18,1.95,0.37c2.78,0.74,5.57,1.3,8.44,1.67c0.18,0,0.47,0.09,0.65,0.09h-0.09c-0.65,0-1.2-0.09-1.86-0.18
				c-2.69-0.38-6.31-0.93-9-1.4C102.51,355.43,101.12,355.06,99.73,354.69z"/>
		</g>
	</g>
	<path fill="#0071BC" d="M33.79,196.19c0.47-0.84,0.84-1.3,1.12-1.3c0.93,0.37,1.95,0.74,3.06,1.02c0.28,0.18,0.18,0.64-0.18,1.57
		c-1.49,3.43-2.78,6.86-3.89,10.39c-0.38,0.93-0.65,1.4-1.02,1.4c-1.3-0.38-2.41-0.74-3.53-1.21c-0.28-0.18-0.18-0.74,0.09-1.66
		C30.64,202.96,32.12,199.52,33.79,196.19z"/>
	<path fill="#0071BC" d="M26.37,214.73c0.37-0.93,0.64-1.3,0.93-1.3c1.11,0.46,2.41,0.93,3.71,1.3c0.28,0.19,0.37,0.74,0.18,1.67
		c-0.93,3.62-1.76,7.24-2.41,10.85c-0.18,0.93-0.46,1.4-0.93,1.4c-1.48-0.38-2.88-0.84-4.17-1.4c-0.37-0.28-0.37-0.83-0.18-1.76
		C24.42,221.88,25.35,218.26,26.37,214.73z"/>
	<path fill="#0071BC" d="M22.01,234.02c0.18-0.93,0.47-1.39,0.84-1.3c1.3,0.56,2.78,1.02,4.27,1.49c0.37,0.28,0.55,0.84,0.46,1.76
		c-0.46,3.71-0.65,7.42-0.84,11.13c-0.09,0.93-0.28,1.4-0.74,1.4c-1.66-0.47-3.24-1.03-4.63-1.58c-0.38-0.28-0.56-0.84-0.56-1.86
		C21.08,241.35,21.46,237.73,22.01,234.02z"/>
	<path fill="#0071BC" d="M20.71,253.78c0-0.93,0.18-1.39,0.55-1.3c1.49,0.64,3.07,1.2,4.73,1.57c0.47,0.19,0.74,0.84,0.84,1.76
		c0.18,3.71,0.47,7.42,0.93,11.13c0.09,0.93-0.09,1.39-0.55,1.39c-1.76-0.46-3.43-1.02-5.01-1.66c-0.37-0.28-0.64-0.84-0.83-1.86
		C20.99,261.11,20.71,257.4,20.71,253.78z"/>
	<path fill="#0071BC" d="M22.57,273.35c-0.09-0.92,0-1.3,0.37-1.3c1.58,0.65,3.25,1.2,5.1,1.76c0.47,0.18,0.84,0.84,1.12,1.76
		c0.74,3.62,1.57,7.23,2.68,10.76c0.19,0.93,0.1,1.39-0.37,1.3c-1.86-0.46-3.62-1.11-5.19-1.76c-0.47-0.28-0.84-0.84-1.12-1.86
		C24.14,280.58,23.31,276.97,22.57,273.35z"/>
	<path fill="#0071BC" d="M27.85,292.45c-0.28-0.93-0.28-1.3,0.09-1.2c1.58,0.65,3.34,1.3,5.2,1.76c0.55,0.18,1.02,0.74,1.39,1.67
		c0.84,2.13,1.67,4.26,2.69,6.39c0.56,1.3,1.2,2.6,1.86,3.8c0.37,0.84,0.37,1.21-0.09,1.21c-1.86-0.47-3.62-1.12-5.2-1.76
		c-0.46-0.28-0.92-0.84-1.39-1.67c-0.65-1.3-1.2-2.51-1.86-3.8C29.52,296.72,28.69,294.59,27.85,292.45z"/>
	<path fill="#0071BC" d="M36.48,310.17c-0.55-1.02-0.37-1.11-0.09-1.02c1.58,0.65,3.34,1.3,5.2,1.76c0.55,0.18,1.11,0.74,1.57,1.57
		c1.86,3.07,3.8,5.94,5.84,8.72c0.65,0.93,0.38,1.02,0.09,0.93c-1.85-0.46-3.52-1.11-5.1-1.76c-0.46-0.19-0.93-0.74-1.58-1.49
		C40.37,316.2,38.33,313.23,36.48,310.17z"/>
	<path fill="#0071BC" d="M47.79,325.29c-0.37-0.47-0.46-0.65-0.55-0.84c0,0,0.09,0,0.09-0.09c0.09,0,0.09,0,0.09,0
		c1.57,0.64,3.24,1.2,5.01,1.76c0.56,0.18,1.11,0.55,1.76,1.3c2.22,2.51,4.64,4.91,7.05,7.14c0.38,0.38,0.56,0.56,0.56,0.65
		c-0.09,0.09-0.18,0.09-0.18,0.09c-1.76-0.46-3.34-1.02-4.83-1.67c-0.46-0.18-1.02-0.64-1.66-1.2
		C52.52,330.2,50.12,327.79,47.79,325.29z"/>
	<path fill="#0071BC" d="M61.24,337.44c-0.46-0.37-0.55-0.46-0.74-0.55c0.09,0,0.09,0,0.09,0c1.49,0.64,2.97,1.11,4.73,1.57
		c0.56,0.19,1.12,0.56,1.86,1.03c2.6,1.95,5.29,3.8,7.98,5.37c0.64,0.38,0.64,0.38,0.64,0.56c0,0-0.09,0-0.18,0
		c-1.58-0.38-3.06-0.93-4.36-1.49c-0.47-0.18-1.02-0.55-1.76-1.02C66.72,341.33,63.93,339.48,61.24,337.44z"/>
	<path fill="#0071BC" d="M76.45,346.62c-0.28-0.09-0.56-0.28-0.84-0.47h0.09c1.3,0.56,2.69,1.03,4.18,1.49
		c0.46,0.18,1.11,0.37,1.86,0.74c2.88,1.39,5.75,2.6,8.81,3.62c0.64,0.18,0.74,0.28,0.84,0.28H91.3c-0.56-0.18-1.12-0.28-1.58-0.47
		c-3.71-1.39-8.63-3.24-12.15-4.82C77.1,346.99,76.82,346.8,76.45,346.62z"/>
	<path fill="#0071BC" d="M96.02,353.86c0.47,0.09,1.03,0.28,1.49,0.37L96.02,353.86C95.93,353.86,95.93,353.86,96.02,353.86z"/>
	<path fill="#0071BC" d="M29.62,193.4c0.28-0.46,0.65-1.02,1.02-1.11c0.65,0.65,1.4,1.11,2.13,1.67c0.19,0.18,0,0.74-0.37,1.57
		c-1.67,3.34-3.24,6.68-4.64,10.2c-0.37,0.93-0.64,1.3-1.02,1.2c-0.93-0.55-1.76-1.2-2.41-1.86c-0.19-0.28,0-0.84,0.37-1.76
		C26.19,199.99,27.85,196.65,29.62,193.4z"/>
	<path fill="#0071BC" d="M21.46,211.4c0.37-0.93,0.64-1.3,0.83-1.2c0.74,0.74,1.58,1.39,2.6,1.95c0.18,0.28,0.18,0.83-0.09,1.76
		c-1.11,3.53-2.13,7.05-2.97,10.67c-0.28,0.93-0.46,1.39-0.84,1.3c-1.11-0.65-2.04-1.4-2.88-2.13c-0.18-0.28-0.18-0.93,0-1.86
		C19.14,218.26,20.15,214.83,21.46,211.4z"/>
	<path fill="#0071BC" d="M16.35,230.22c0.18-0.92,0.38-1.3,0.65-1.11c0.84,0.84,1.86,1.58,2.97,2.23c0.28,0.28,0.37,0.84,0.18,1.86
		c-0.55,3.61-1.02,7.32-1.2,10.94c-0.09,0.93-0.28,1.39-0.65,1.3c-1.2-0.74-2.32-1.57-3.24-2.41c-0.28-0.38-0.37-0.93-0.28-1.95
		C15.15,237.37,15.71,233.75,16.35,230.22z"/>
	<path fill="#0071BC" d="M14.4,249.52c0-0.65,0.09-1.02,0.28-1.21c0.09,0,0.09,0,0.18,0c0.93,0.93,2.04,1.76,3.34,2.41
		c0.38,0.28,0.47,0.93,0.56,1.95c0,3.62,0.18,7.33,0.55,11.03c0.09,0.93-0.09,1.3-0.37,1.21c-1.3-0.84-2.41-1.67-3.43-2.6
		c-0.28-0.37-0.46-1.02-0.55-1.95C14.5,256.75,14.4,253.13,14.4,249.52z"/>
	<path fill="#0071BC" d="M15.89,268.9c-0.09-0.74-0.09-1.02,0-1.2h0.09c1.02,0.93,2.22,1.86,3.53,2.59
		c0.37,0.28,0.64,0.93,0.83,1.95c0.65,3.62,1.49,7.24,2.51,10.76c0.28,1.2,0.09,1.3-0.18,1.2c-1.3-0.84-2.51-1.76-3.62-2.69
		c-0.28-0.37-0.55-0.93-0.84-1.95C17.37,276.04,16.54,272.43,15.89,268.9z"/>
	<path fill="#0071BC" d="M20.99,287.82c-0.18-0.56-0.28-0.84-0.28-1.02c0,0,0.09,0,0.09-0.1c0,0,0.09,0,0.09,0.1
		c1.02,1.02,2.22,1.85,3.62,2.68c0.37,0.28,0.74,0.93,1.11,1.86c0.84,2.13,1.67,4.27,2.6,6.4c0.55,1.3,1.2,2.6,1.86,3.89
		c0.28,0.56,0.28,0.74,0.37,1.02l-0.09,0.09h-0.09c-1.4-0.84-2.6-1.76-3.62-2.69c-0.37-0.37-0.74-0.93-1.2-1.86
		c-0.65-1.3-1.2-2.59-1.86-3.89C22.66,292.09,21.83,289.95,20.99,287.82z"/>
	<path fill="#0071BC" d="M29.62,305.63c-0.28-0.46-0.37-0.74-0.46-0.93h0.09c1.02,0.93,2.22,1.86,3.62,2.69
		c0.37,0.28,0.83,0.84,1.39,1.67c1.86,3.06,3.89,6.03,6.03,8.81c0.38,0.46,0.47,0.65,0.56,0.84l-0.09,0.09h-0.09
		c-1.3-0.84-2.51-1.67-3.53-2.69c-0.37-0.37-0.74-0.84-1.39-1.58C33.6,311.65,31.56,308.68,29.62,305.63z"/>
	<path fill="#0071BC" d="M41.21,320.84c-0.37-0.37-0.55-0.56-0.64-0.74c0,0,0.09,0,0.09,0.09c1.02,0.93,2.22,1.86,3.52,2.6
		c0.38,0.28,0.93,0.74,1.58,1.49c2.32,2.59,4.82,5.01,7.33,7.23c0.46,0.38,0.55,0.56,0.64,0.65h-0.09c-0.93-0.56-1.86-1.2-2.6-1.86
		c-2.13-1.95-5.01-4.55-7.05-6.49C42.97,322.69,42.04,321.76,41.21,320.84z"/>
	<path fill="#0071BC" d="M57.53,335.3c0.28,0.18,0.65,0.47,1.67,1.2c2.69,2.05,5.57,3.89,8.44,5.57c0.18,0.09,0.28,0.18,0.46,0.28
		c-3.24-2.05-7.51-4.73-10.66-6.96l-1.86-1.39C56.24,334.47,56.89,334.84,57.53,335.3z"/>
	<path fill="#0071BC" d="M27.39,189.79c0.37-0.55,0.55-0.84,0.84-1.02h0.09c0.28,0.74,0.64,1.4,1.11,2.13
		c0.09,0.28-0.09,0.74-0.56,1.67c-1.86,3.25-3.52,6.49-5.1,9.83c-0.37,0.74-0.65,1.12-0.84,1.12c-0.65-0.84-1.02-1.58-1.39-2.41
		c-0.09-0.28,0.09-0.93,0.55-1.76C23.68,196,25.44,192.85,27.39,189.79z"/>
	<path fill="#0071BC" d="M18.67,206.94c0.28-0.55,0.37-0.93,0.64-1.11h0.09c0.38,0.93,0.84,1.76,1.4,2.6c0.09,0.28,0,0.84-0.28,1.76
		c-1.3,3.43-2.41,6.86-3.34,10.38c-0.18,0.74-0.37,1.02-0.55,1.21c0,0-0.1,0-0.19,0c-0.64-0.84-1.11-1.86-1.48-2.78
		c-0.09-0.38,0-1.02,0.28-1.86C16.17,213.53,17.28,210.2,18.67,206.94z"/>
	<path fill="#0071BC" d="M13.11,225.03c0.18-0.93,0.28-1.02,0.46-1.11c0.47,1.11,0.93,2.04,1.67,2.97c0.18,0.28,0.18,0.93,0,1.86
		c-0.74,3.53-1.2,7.14-1.58,10.66c-0.09,0.74-0.18,1.02-0.28,1.2c0,0-0.09,0-0.09-0.09c-0.74-1.02-1.3-2.04-1.76-3.15
		c-0.09-0.37-0.09-1.02,0-1.95C11.81,231.98,12.37,228.56,13.11,225.03z"/>
	<path fill="#0071BC" d="M10.89,243.86c0-1.02,0.09-1.02,0.18-1.11c0.46,1.2,1.02,2.32,1.76,3.34c0.18,0.37,0.28,1.02,0.28,2.04
		c-0.09,3.62,0.09,7.24,0.37,10.76c0.09,1.02,0,1.12-0.09,1.12c0,0,0-0.1-0.09-0.1c-0.74-1.02-1.39-2.22-1.86-3.43
		c-0.09-0.47-0.28-1.11-0.28-2.04C10.89,250.91,10.79,247.38,10.89,243.86z"/>
	<path fill="#0071BC" d="M12.18,262.87c-0.09-0.56-0.09-0.84-0.09-1.03c0.55,1.3,1.2,2.41,1.95,3.53c0.18,0.38,0.37,1.02,0.55,1.95
		c0.56,3.62,1.4,7.15,2.32,10.66c0.18,0.56,0.18,0.84,0.18,1.02H17c-0.84-1.11-1.49-2.32-1.95-3.52c-0.18-0.47-0.37-1.11-0.65-2.04
		C13.48,269.92,12.74,266.39,12.18,262.87z"/>
	<path fill="#0071BC" d="M16.73,280.58C16.73,280.58,16.82,280.68,16.73,280.58c0.46,1.39,1.11,2.51,1.95,3.71
		c0.28,0.37,0.55,1.02,0.93,1.95c0.84,2.13,1.66,4.26,2.59,6.4c0.56,1.3,1.21,2.59,1.86,3.8c0.28,0.55,0.38,0.74,0.47,0.93
		c-0.56-0.65-0.93-1.3-1.3-1.95l-2.97-6.03C19.23,286.8,17.75,283.28,16.73,280.58z"/>
	<path fill="#0071BC" d="M27.12,302.2c0.37,0.46,0.83,1.2,1.11,1.76c1.95,3.07,3.99,6.03,6.12,8.91v0.09l-4.26-5.84l-3.8-6.03
		C26.56,301.45,26.83,301.82,27.12,302.2z"/>
	<path fill="#0071BC" d="M26.92,185.25c0.38-0.47,0.56-0.74,0.74-0.93c0,0,0,0,0.09,0.09c-0.09,0.93-0.09,1.76,0.09,2.5
		c0,0.28-0.28,0.84-0.74,1.67c-1.95,3.06-3.71,6.12-5.29,9.28c-0.28,0.64-0.46,0.84-0.65,1.02c0,0-0.09,0-0.09-0.09
		c-0.18-0.93-0.18-1.95-0.09-2.97c0.09-0.38,0.28-0.93,0.74-1.76C23.21,191.09,24.98,188.12,26.92,185.25z"/>
	<path fill="#0071BC" d="M18.12,201.38c0.38-0.83,0.47-0.93,0.56-0.93c-0.09,1.12-0.09,2.23,0.09,3.16c0,0.37-0.18,0.93-0.56,1.86
		c-1.3,3.24-2.5,6.59-3.52,9.92c-0.28,0.93-0.38,1.02-0.47,1.02c-0.18-1.2-0.18-2.32-0.09-3.53c0.09-0.37,0.18-1.02,0.46-1.95
		C15.62,207.69,16.82,204.54,18.12,201.38z"/>
	<g>
		<defs>
			<rect id="SVGID_00000070839808963052861910000007372308194011039161_" x="10" y="217.4" width="4.4" height="18.13"/>
		</defs>
		<clipPath id="SVGID_00000117677975736446114220000000687179989636239011_">
			<use xlink:href="#SVGID_00000070839808963052861910000007372308194011039161_"  overflow="visible"/>
		</clipPath>
		<g clip-path="url(#SVGID_00000117677975736446114220000000687179989636239011_)">
			<path fill="#0071BC" d="M12.55,218.72c0.09-0.55,0.19-0.74,0.28-0.92c-0.09,1.3,0,2.5,0.18,3.7c0,0.38,0,1.02-0.28,1.95
				c-0.74,3.43-1.3,6.87-1.67,10.39c-0.09,0.56-0.09,0.74-0.18,1.02c-0.28-1.3-0.28-2.59-0.19-3.89c0-0.28,0.09-0.55,0.09-0.84
				l0.1-0.83c0-0.1,0-0.19,0-0.28C11.16,225.4,11.81,222.06,12.55,218.72z"/>
		</g>
	</g>
	<g>
		<defs>
			<rect id="SVGID_00000070824710410770775980000007785440403616435881_" x="10" y="235.53" width="2.59" height="18.13"/>
		</defs>
		<clipPath id="SVGID_00000150804207688372667000000015044143522134354063_">
			<use xlink:href="#SVGID_00000070824710410770775980000007785440403616435881_"  overflow="visible"/>
		</clipPath>
		<g clip-path="url(#SVGID_00000150804207688372667000000015044143522134354063_)">
			<path fill="#0071BC" d="M10.33,239.97c0.09,0.46,0.09,1.02,0.09,2.04c-0.09,3.52,0,7.05,0.28,10.57
				c0.09,0.55,0.09,0.74,0.09,1.02c-0.09-0.38-0.09-0.74-0.18-1.02l-0.18-2.51c-0.09-3.99-0.28-9.37-0.18-13.45
				C10.14,237.83,10.23,238.95,10.33,239.97z"/>
		</g>
	</g>
	<path fill="#0071BC" d="M72.09,145.18c0.28-0.09,0.93-0.18,1.21-0.28c-0.18,0.19-0.28,0.38-0.47,0.56
		c-0.09,0.09-0.28,0.09-0.37,0.18c-3.89,1.2-7.51,2.6-11.04,4.27c0,0-0.09,0-0.18,0.09c0.28-0.47,0.65-0.93,1.02-1.4
		c0.18-0.18,0.65-0.37,1.3-0.64C66.34,146.84,69.12,145.92,72.09,145.18z"/>
	<path fill="#0071BC" d="M57.44,150.75c0.47-0.19,0.65-0.28,0.84-0.38c-0.46,0.56-0.93,1.11-1.3,1.67
		c-0.09,0.09-0.09,0.09-0.47,0.28c-3.34,1.86-6.39,3.89-9.37,6.03c0,0-0.09,0-0.09,0.1v-0.1c0.56-0.83,1.21-1.57,1.95-2.32
		c0.28-0.28,0.65-0.56,1.21-1.02C52.62,153.43,54.94,151.95,57.44,150.75z"/>
	<path fill="#0071BC" d="M45.29,159c0.38-0.28,0.47-0.37,0.56-0.46v0.09c-0.74,0.84-1.48,1.76-2.13,2.59
		c-0.09,0.1-0.18,0.19-0.47,0.47c-2.68,2.41-5.28,4.91-7.51,7.7c0,0,0,0,0,0.09c0,0,0-0.09,0.09-0.09c0.64-0.84,1.3-1.67,2.04-2.6
		l2.22-2.5C41.68,162.34,43.44,160.58,45.29,159z"/>
	<path fill="#0071BC" d="M73.3,144.07c0.84-0.19,1.02-0.1,1.02-0.1c-0.18,0.19-0.38,0.38-0.56,0.56c-0.18,0.09-0.28,0.09-1.3,0.37
		c-2.88,0.65-5.57,1.49-8.26,2.41c-0.55,0.18-0.74,0.28-0.93,0.28c0.47-0.46,0.93-0.93,1.4-1.39c0.18-0.09,0.64-0.28,1.2-0.47
		C68.29,145,70.7,144.44,73.3,144.07z"/>
	<path fill="#0071BC" d="M60.59,147.68c0.65-0.28,0.65-0.18,0.74-0.18c-0.64,0.56-1.2,1.11-1.76,1.67c-0.18,0.18-0.55,0.37-1.3,0.74
		c-2.41,1.2-4.73,2.5-6.86,3.99c-0.38,0.28-0.47,0.28-0.65,0.37v-0.09c0.74-0.84,1.58-1.58,2.51-2.32c0.28-0.28,0.64-0.56,1.2-0.84
		C56.42,149.72,58.46,148.61,60.59,147.68z"/>
	<path fill="#0071BC" d="M50.21,154.17c0.09-0.09,0.28-0.18,0.37-0.37c0,0,0,0.09-0.09,0.09c-0.93,0.84-1.86,1.76-2.78,2.6
		c-0.18,0.18-0.46,0.46-1.2,1.11c-1.21,1.02-2.41,2.22-3.53,3.34c1.95-1.95,4.64-4.45,6.68-6.4
		C49.83,154.45,50.02,154.27,50.21,154.17z"/>
	<path fill="#0071BC" d="M74.69,142.86c0.28,0,0.56,0,0.84,0c-0.18,0.18-0.46,0.38-0.65,0.56c-0.09,0.09-0.28,0.09-1.11,0.18
		c-2.5,0.28-4.82,0.74-7.05,1.4c-0.65,0.18-0.65,0.18-0.74,0.09c0.56-0.47,1.11-0.93,1.67-1.3c0.18-0.18,0.55-0.28,1.11-0.37
		C70.61,143.14,72.56,142.86,74.69,142.86z"/>
	<path fill="#0071BC" d="M64.39,144.62c0.38-0.18,0.47-0.18,0.47-0.09l-0.09,0.09c-0.74,0.56-1.4,1.11-2.04,1.58
		c-0.19,0.18-0.56,0.37-1.11,0.55c-2.05,0.84-3.99,1.86-5.75,3.07c-0.1,0.09-0.28,0.18-0.47,0.28l0.09-0.09
		c0.93-0.74,1.95-1.58,2.97-2.32c0.56-0.37,0.93-0.64,1.11-0.74C61.06,146.02,62.64,145.27,64.39,144.62z"/>
	<path fill="#0071BC" d="M52.89,151.86c-0.28,0.18-0.55,0.46-0.74,0.64l1.3-1.11C53.27,151.57,53.08,151.67,52.89,151.86z"/>
	<path fill="#0071BC" d="M76.36,141.75c0.28,0,0.46,0.09,0.55,0.18c-0.28,0.19-0.55,0.38-0.83,0.56c-0.09,0-0.19,0.09-1.02,0
		c-1.95-0.09-3.9,0-5.66,0.28c-0.28,0-0.38,0-0.56,0c0.65-0.46,1.3-0.84,1.95-1.3c0.18-0.09,0.47-0.18,0.93-0.18
		C73.21,141.38,74.78,141.47,76.36,141.75z"/>
	<path fill="#0071BC" d="M68.66,141.75c0.18,0,0.28,0,0.28,0l-0.09,0.09c-0.84,0.47-1.58,1.02-2.32,1.49
		c-0.09,0.09-0.38,0.18-1.02,0.46c-1.58,0.56-3.07,1.21-4.45,2.04c-0.09,0.09-0.18,0.09-0.28,0.19l0.09-0.1
		c0.74-0.55,1.57-1.11,2.41-1.57l0.74-0.47l0.74-0.46c0.09-0.09,0.28-0.18,0.37-0.28C66.34,142.49,67.46,142.02,68.66,141.75z"/>
	<path fill="#0071BC" d="M78.12,140.73c0.37,0.28,0.37,0.28,0.37,0.37c-0.28,0.19-0.55,0.38-0.84,0.47c-0.09,0-0.18,0.09-0.74-0.09
		c-1.48-0.38-2.78-0.65-4.08-0.65c-0.09,0-0.37,0-0.28-0.18c0.65-0.37,1.39-0.84,2.13-1.2c0.18-0.09,0.47-0.09,0.65-0.09
		C76.18,139.61,77.1,140.07,78.12,140.73z"/>
	<path fill="#0071BC" d="M73.39,139.05h0.09c0,0,0,0,0,0.09c0,0.1-0.09,0.1-0.18,0.19c-0.84,0.46-1.76,0.93-2.6,1.39
		c-0.28,0.09-0.46,0.18-0.84,0.28c-1.11,0.19-2.13,0.56-3.06,1.12c0,0,0,0-0.09,0c0.93-0.56,2.22-1.3,3.24-1.86l1.58-0.84
		C72.19,139.15,72.74,139.05,73.39,139.05z"/>
	<path fill="#0071BC" d="M80.07,139.8c0.09,0.18,0.18,0.37,0.09,0.47c-0.28,0.18-0.65,0.28-0.93,0.46c-0.09,0-0.28-0.09-0.47-0.28
		c-0.83-0.74-1.66-1.2-2.41-1.58c-0.18-0.09-0.18-0.18,0-0.28c0.74-0.38,1.48-0.74,2.22-1.11c0.18-0.09,0.38,0,0.47,0.09
		C79.24,138.13,79.6,138.87,80.07,139.8z"/>
	<path fill="#0071BC" d="M78.49,136.55c0,0.09-0.09,0.18-0.28,0.28c-0.93,0.46-1.76,0.84-2.69,1.3c-0.28,0.09-0.46,0.19-0.65,0.19
		c-0.46-0.1-0.93,0-1.3,0.18l2.51-1.21l2.22-1.02C78.22,136.18,78.31,136.27,78.49,136.55z"/>
	<path fill="#0071BC" d="M82.02,138.96c-0.09,0.28-0.09,0.56-0.18,0.56c-0.38,0.09-0.65,0.28-0.93,0.37c-0.09,0-0.19-0.18-0.28-0.37
		c-0.28-1.02-0.46-1.86-0.55-2.51c0-0.18,0.09-0.28,0.28-0.37c0.74-0.28,1.58-0.65,2.32-0.93c0.18-0.09,0.28,0,0.18,0.18
		C82.48,136.83,82.2,137.76,82.02,138.96z"/>
	<path fill="#0071BC" d="M83.69,134.42c-0.19,0.19-0.38,0.28-0.56,0.38c-0.93,0.37-1.86,0.74-2.78,1.11c-0.28,0.09-0.37,0.09-0.37,0
		c0-0.28,0.09-0.46,0.18-0.56l1.76-0.74c0.93-0.38,2.13-0.84,3.15-1.3C84.52,133.59,84.06,133.86,83.69,134.42z"/>
	<path fill="#0071BC" d="M84.06,138.32c-0.28,0.46-0.37,0.64-0.47,0.64c-0.28,0.09-0.64,0.18-1.02,0.28c0-0.1,0-0.28,0.1-0.47
		c0.37-1.3,0.74-2.32,1.3-3.24c0.18-0.19,0.28-0.38,0.55-0.47c0.74-0.28,1.58-0.55,2.32-0.74c0.09,0,0.18,0,0.09,0.19
		c-0.09,0.09-0.09,0.09-0.18,0.18C85.73,135.72,84.8,136.92,84.06,138.32z"/>
	<path fill="#0071BC" d="M88.97,132.57c-0.28,0.18-0.55,0.37-0.84,0.46c-0.93,0.28-1.86,0.56-2.88,0.93c-0.18,0.09-0.18,0.09-0.18,0
		c0-0.09,0.09-0.09,0.09-0.09c0.56-0.56,1.2-0.93,1.86-1.2l1.2-0.38c1.3-0.37,2.97-1.02,4.18-1.39c0,0-0.09,0-0.19,0.09
		C91.1,131.26,89.99,131.82,88.97,132.57z"/>
	<path fill="#0071BC" d="M86.01,137.76c-0.56,0.65-0.74,0.65-0.74,0.74c-0.37,0.09-0.64,0.18-0.93,0.28c0-0.09,0-0.09,0.28-0.65
		c1.02-1.48,2.04-2.68,3.15-3.8c0.18-0.18,0.46-0.46,0.84-0.55c0.74-0.18,1.48-0.38,2.32-0.56h0.09c-0.09,0.09-0.18,0.18-0.37,0.38
		C88.97,134.88,87.49,136.18,86.01,137.76z"/>
	<path fill="#0071BC" d="M94.26,131.17c-0.47,0.28-0.84,0.37-1.12,0.47c-0.93,0.18-1.85,0.46-2.78,0.64h-0.1
		c0-0.09,0-0.09,0.28-0.28c1.2-0.74,2.41-1.39,3.71-1.76c0.37-0.09,0.74-0.18,1.11-0.28c1.39-0.38,2.69-0.74,4.08-1.02
		c0.09,0,0.09,0,0.18,0c-0.09,0-0.09,0-0.37,0.09C97.51,129.59,95.83,130.34,94.26,131.17z"/>
	<path fill="#0071BC" d="M87.86,137.48c-0.74,0.55-0.93,0.74-1.02,0.74c-0.28,0-0.56,0.1-0.93,0.19c0-0.09,0-0.09,0.55-0.65
		c1.67-1.58,3.25-2.97,5.01-4.26c0.46-0.28,0.84-0.47,1.02-0.56c0.74-0.18,1.48-0.28,2.13-0.37c-0.09,0.09-0.28,0.18-0.65,0.46
		C92.03,134.32,89.99,135.81,87.86,137.48z"/>
	<path fill="#0071BC" d="M99.18,130.34c-0.84,0.38-1.11,0.47-1.3,0.47c-0.74,0.09-1.66,0.28-2.59,0.46c0,0,0,0-0.09,0
		c0-0.09,0-0.09,0.46-0.37c1.76-0.93,3.62-1.67,5.47-2.23c0.18,0,0.74-0.18,1.39-0.28c1.3-0.28,2.6-0.46,3.8-0.64h0.09
		c-0.09,0.09-0.09,0.09-0.55,0.18C103.62,128.57,101.4,129.32,99.18,130.34z"/>
	<g>
		<defs>
			<rect id="SVGID_00000124127237176085561490000016029423178839434642_" x="105.05" y="125.89" width="9.06" height="2.68"/>
		</defs>
		<clipPath id="SVGID_00000119807024088075375930000014850181243853337732_">
			<use xlink:href="#SVGID_00000124127237176085561490000016029423178839434642_"  overflow="visible"/>
		</clipPath>
		<g clip-path="url(#SVGID_00000119807024088075375930000014850181243853337732_)">
			<path fill="#0071BC" d="M111.14,126.82c-0.46,0.09-1.02,0.18-1.57,0.28c-1.21,0.18-2.41,0.37-3.62,0.55
				c2.13-0.37,4.91-0.74,7.05-1.02C112.44,126.72,111.79,126.72,111.14,126.82z"/>
		</g>
	</g>
	<path fill="#0071BC" d="M89.53,137.39c-0.84,0.55-1.02,0.64-1.21,0.74c-0.28,0-0.55,0-0.83,0.09c0-0.09,0.09-0.18,0.83-0.74
		c2.23-1.67,4.45-3.16,6.68-4.45c0.56-0.37,1.02-0.56,1.3-0.56c0.64-0.09,1.2-0.09,1.86-0.09c0,0-0.09,0-0.84,0.47
		C94.72,134.14,92.12,135.63,89.53,137.39z"/>
	<path fill="#0071BC" d="M103.53,130.06c-0.74,0.28-1.2,0.46-1.39,0.46c-0.74,0-1.49,0.1-2.22,0.1c0,0,0,0,0-0.1
		c0.18-0.09,0.28-0.18,0.64-0.37c2.32-1.02,4.64-1.86,7.05-2.41c0.64-0.19,1.11-0.28,1.48-0.28c1.11-0.09,2.22-0.18,3.24-0.18
		c0,0,0,0,0.1,0c-0.1,0.09-0.1,0.09-0.74,0.28C108.91,128.21,106.22,129.04,103.53,130.06z"/>
	<g>
		<defs>
			<rect id="SVGID_00000075132173057024727680000000215759218804564647_" x="112.3" y="125.89" width="14.5" height="2.68"/>
		</defs>
		<clipPath id="SVGID_00000036251789526784011990000015553108617486356381_">
			<use xlink:href="#SVGID_00000075132173057024727680000000215759218804564647_"  overflow="visible"/>
		</clipPath>
		<g clip-path="url(#SVGID_00000036251789526784011990000015553108617486356381_)">
			<path fill="#0071BC" d="M117.91,126.44c-1.02,0.09-1.39,0.09-1.66,0.18c-1.12,0-2.32,0.09-3.62,0.19h-0.09
				c0.09-0.1,0.09-0.1,0.55-0.1c1.21-0.18,2.32-0.28,3.53-0.37c2.88-0.18,6.77-0.37,9.64-0.37c-0.09,0-0.18,0-0.28,0
				C123.38,125.89,120.6,126.07,117.91,126.44z"/>
		</g>
	</g>
	<path fill="#0071BC" d="M90.92,137.39c-1.02,0.55-1.2,0.64-1.3,0.74c-0.28,0-0.47,0-0.65,0c0-0.09,0.09-0.18,1.02-0.74
		c2.69-1.67,5.38-3.25,8.16-4.55c0.74-0.38,1.2-0.56,1.39-0.56c0.56,0,1.02,0.09,1.49,0.18c-0.09,0.1-0.19,0.19-1.11,0.56
		C96.95,134.23,93.89,135.72,90.92,137.39z"/>
	<path fill="#0071BC" d="M107.15,130.25c-0.84,0.28-1.3,0.38-1.58,0.38c-0.55-0.1-1.2-0.1-1.86-0.19c0.1-0.09,0.1-0.18,0.93-0.46
		c2.78-1.02,5.57-1.86,8.35-2.51c0.74-0.18,1.3-0.28,1.67-0.28c0.93,0,1.86,0.09,2.69,0.18v0.09c-0.18,0.09-0.47,0.09-0.93,0.28
		C113.27,128.48,110.21,129.32,107.15,130.25z"/>
	<g>
		<defs>
			<rect id="SVGID_00000031181166199139471230000001080150464475363483_" x="117.74" y="125.89" width="16.32" height="2.68"/>
		</defs>
		<clipPath id="SVGID_00000132777013523398710100000000825565529310264766_">
			<use xlink:href="#SVGID_00000031181166199139471230000001080150464475363483_"  overflow="visible"/>
		</clipPath>
		<g clip-path="url(#SVGID_00000132777013523398710100000000825565529310264766_)">
			<path fill="#0071BC" d="M123.66,126.82c-0.84,0.09-1.39,0.09-1.76,0.09c-0.93-0.09-1.95-0.19-3.06-0.28h-0.09
				c0.09-0.09,0.18-0.09,0.84-0.18c2.78-0.37,5.66-0.55,8.44-0.46c0.65,0,1.2,0,1.76,0c1.3,0.09,2.59,0.18,3.8,0.37h0.09
				c-0.18,0-0.18,0-0.93,0C129.78,126.35,126.72,126.44,123.66,126.82z"/>
		</g>
	</g>
	<path fill="#0071BC" d="M92.03,137.76c-1.11,0.56-1.3,0.65-1.48,0.65s-0.38-0.09-0.56-0.09c0.09-0.1,0.18-0.19,1.2-0.74
		c3.07-1.67,6.22-3.16,9.37-4.36c0.38-0.09,1.02-0.37,1.49-0.46c0.55,0.09,0.93,0.18,1.3,0.37c-0.09,0.09-0.09,0.18-1.3,0.56
		C98.71,134.7,95.37,136.09,92.03,137.76z"/>
	<path fill="#0071BC" d="M110.03,131.08c-1.02,0.28-1.39,0.28-1.58,0.37c-0.55-0.18-1.02-0.37-1.57-0.46
		c0.09-0.09,0.18-0.18,1.11-0.47c3.15-1.02,6.31-1.76,9.55-2.32c0.84-0.18,1.39-0.18,1.67-0.18c0.74,0.18,1.48,0.37,2.13,0.64
		c-0.09,0-0.09,0.1-1.11,0.19C116.8,129.41,113.46,130.15,110.03,131.08z"/>
	<g>
		<defs>
			<rect id="SVGID_00000095322116833472345200000006561589920045548177_" x="123.18" y="125.89" width="16.32" height="2.68"/>
		</defs>
		<clipPath id="SVGID_00000087413685968239120900000001659913967432691086_">
			<use xlink:href="#SVGID_00000095322116833472345200000006561589920045548177_"  overflow="visible"/>
		</clipPath>
		<g clip-path="url(#SVGID_00000087413685968239120900000001659913967432691086_)">
			<path fill="#0071BC" d="M128.2,127.93c-0.93,0.09-1.49,0.09-1.76,0c-0.74-0.28-1.48-0.47-2.41-0.65v-0.09
				c0.18-0.09,0.46-0.09,0.93-0.09c3.15-0.28,6.3-0.47,9.46-0.38c0.83,0,1.39,0.1,1.76,0.1c1.12,0.28,2.04,0.55,2.97,0.93
				c0,0,0,0-0.93,0C134.88,127.65,131.55,127.75,128.2,127.93z"/>
		</g>
	</g>
	<path fill="#0071BC" d="M92.78,138.22c-1.2,0.47-1.39,0.56-1.48,0.56c-0.19-0.09-0.28-0.18-0.38-0.18c0.09-0.09,0.28-0.18,1.4-0.74
		c3.43-1.58,6.86-2.88,10.29-4.08c0.56-0.18,1.21-0.38,1.58-0.47c0.37,0.19,0.65,0.38,0.93,0.56c-0.09,0.09-0.18,0.18-1.49,0.55
		C100.01,135.53,96.39,136.74,92.78,138.22z"/>
	<path fill="#0071BC" d="M112.16,132.28c-0.84,0.18-1.3,0.28-1.57,0.18c-0.38-0.28-0.74-0.46-1.12-0.74c0-0.09,0.1-0.19,1.3-0.47
		c3.43-0.84,6.95-1.57,10.39-2.04c0.93-0.09,1.48-0.18,1.76-0.09c0.55,0.28,1.11,0.65,1.48,1.02c-0.09,0.09-0.09,0.18-1.39,0.28
		C119.39,130.9,115.78,131.54,112.16,132.28z"/>
	<path fill="#0071BC" d="M131.45,129.88c-0.93,0-1.48,0-1.76-0.09c-0.47-0.38-1.02-0.74-1.67-1.12c0.09-0.09,0.18-0.18,1.2-0.28
		c3.43-0.18,6.86-0.28,10.3-0.09c0.93,0,1.48,0.09,1.76,0.28c0.84,0.47,1.48,0.84,2.13,1.4v0.09c-0.28,0-0.56,0-1.2,0
		C138.59,129.78,135.07,129.78,131.45,129.88z"/>
	<path fill="#0071BC" d="M93.24,138.87c-1.21,0.38-1.49,0.47-1.58,0.47c-0.09-0.09-0.18-0.19-0.28-0.38
		c0.09-0.09,0.28-0.18,1.48-0.64c3.62-1.4,7.24-2.6,10.95-3.62c0.37-0.09,1.2-0.28,1.57-0.38c0.28,0.28,0.38,0.47,0.56,0.74
		c-0.09,0.09-0.28,0.18-1.58,0.47C100.75,136.55,96.95,137.57,93.24,138.87z"/>
	<path fill="#0071BC" d="M113.37,133.96c-0.84,0.09-1.4,0.18-1.67,0.09c-0.18-0.37-0.38-0.65-0.65-0.93
		c0.09-0.09,0.18-0.18,1.49-0.46c3.71-0.74,7.32-1.21,11.03-1.58c0.56-0.09,1.2-0.09,1.67,0c0.37,0.46,0.74,0.93,0.93,1.39
		c-0.09,0.1-0.18,0.19-1.49,0.28C120.87,132.94,117.07,133.4,113.37,133.96z"/>
	<path fill="#0071BC" d="M133.39,132.57c-0.83,0-1.3-0.1-1.66-0.19c-0.28-0.55-0.65-1.11-1.02-1.57c0.09-0.09,0.18-0.18,1.39-0.28
		c3.62-0.09,7.24,0,10.85,0.28c0.93,0.09,1.49,0.18,1.76,0.37c0.47,0.56,0.93,1.2,1.21,1.86c-0.1,0.09-0.19,0.18-1.49,0.09
		C140.82,132.84,137.11,132.57,133.39,132.57z"/>
	<path fill="#0071BC" d="M93.43,139.61c-1.3,0.37-1.49,0.37-1.58,0.37c0-0.09,0-0.28-0.09-0.37c0.09-0.09,0.37-0.18,1.58-0.56
		c3.71-1.2,7.51-2.13,11.31-2.97c0.38-0.09,1.21-0.28,1.58-0.28c0.09,0.28,0.18,0.65,0.18,0.93c-0.18,0.09-0.28,0.18-1.66,0.37
		C100.94,137.85,97.14,138.59,93.43,139.61z"/>
	<path fill="#0071BC" d="M113.74,136.09c-0.84,0.09-1.4,0.09-1.58,0c0-0.46-0.09-0.84-0.18-1.2c0.09-0.09,0.28-0.18,1.58-0.37
		c3.8-0.56,7.61-0.84,11.32-1.02c0.55,0,1.3,0,1.57,0.09c0.18,0.55,0.18,1.11,0.18,1.66c-0.18,0.09-0.28,0.19-1.66,0.28
		C121.34,135.53,117.54,135.72,113.74,136.09z"/>
	<path fill="#0071BC" d="M133.95,135.81c-0.84-0.09-1.3-0.18-1.58-0.37c0-0.74-0.09-1.3-0.18-1.86c0.09-0.09,0.28-0.19,1.58-0.19
		c3.71,0.1,7.42,0.38,11.13,0.84c0.93,0.18,1.49,0.28,1.67,0.47c0.18,0.74,0.28,1.48,0.28,2.32c-0.09,0.09-0.28,0.28-1.57,0.09
		C141.47,136.55,137.76,136.09,133.95,135.81z"/>
	<path fill="#0071BC" d="M93.14,140.54c-1.2,0.18-1.39,0.18-1.57,0.18c0-0.18,0.09-0.28,0.09-0.46c0.09,0,0.37-0.1,1.58-0.47
		c3.8-0.93,7.51-1.67,11.31-2.22c0.65-0.09,1.3-0.18,1.58-0.09c0,0.37-0.18,0.74-0.28,1.11c-0.18,0.09-0.38,0.18-1.67,0.28
		C100.57,139.34,96.85,139.89,93.14,140.54z"/>
	<path fill="#0071BC" d="M113.09,138.5c-0.84,0-1.3-0.09-1.48-0.09c0.18-0.56,0.28-0.93,0.37-1.4c0.18-0.09,0.37-0.18,1.67-0.28
		c3.8-0.28,7.61-0.37,11.32-0.28c0.64,0,1.3,0.09,1.57,0.28c-0.09,0.65-0.28,1.3-0.55,2.04c-0.18,0.18-0.74,0.18-1.67,0.18
		C120.6,138.59,116.89,138.41,113.09,138.5z"/>
	<path fill="#0071BC" d="M133.03,139.71c-0.84-0.18-1.3-0.28-1.48-0.46c0.28-0.84,0.46-1.49,0.64-2.23
		c0.18-0.09,0.38-0.28,1.67-0.18c3.8,0.37,7.51,0.84,11.13,1.49c0.93,0.18,1.48,0.46,1.48,0.64c-0.18,0.84-0.46,1.76-0.74,2.69
		c-0.18,0.18-0.74,0.28-1.66,0C140.45,140.91,136.74,140.27,133.03,139.71z"/>
	<path fill="#0071BC" d="M92.59,141.65c-1.11,0.09-1.3,0.09-1.4,0.09c0.1-0.18,0.19-0.37,0.28-0.55c0.09-0.1,0.37-0.1,1.57-0.38
		c3.62-0.65,7.33-1.02,11.04-1.3c0.55-0.09,1.2-0.09,1.48,0c-0.18,0.46-0.46,0.84-0.74,1.3c-0.19,0.09-0.38,0.18-1.67,0.18
		C99.64,141.09,96.12,141.29,92.59,141.65z"/>
	<path fill="#0071BC" d="M111.61,141.38c-0.84-0.09-1.21-0.18-1.4-0.28c0.38-0.55,0.65-1.11,0.93-1.57
		c0.18-0.09,0.38-0.18,1.67-0.18c3.71,0,7.42,0.18,11.03,0.55c0.56,0.09,1.21,0.18,1.4,0.38c-0.37,0.83-0.84,1.57-1.3,2.32
		c-0.28,0.18-0.74,0.18-1.76,0.09C118.65,142.02,115.12,141.56,111.61,141.38z"/>
	<path fill="#0071BC" d="M130.62,144.16c-0.93-0.19-1.3-0.47-1.3-0.65c0.56-0.84,1.02-1.67,1.49-2.51c0.18-0.18,0.84-0.18,1.76-0.09
		c3.7,0.56,7.32,1.4,10.94,2.23c0.93,0.28,1.39,0.55,1.3,0.83c-0.46,1.03-1.11,2.05-1.86,3.07c-0.28,0.28-0.83,0.28-1.76,0
		C137.67,146.02,134.14,145,130.62,144.16z"/>
	<path fill="#0071BC" d="M91.66,142.77c-1.11,0-1.2,0-1.3-0.09c0.18-0.18,0.37-0.37,0.46-0.55c0.18-0.1,0.37-0.1,1.58-0.19
		c3.43-0.28,6.86-0.37,10.39-0.28c0.55,0,1.11,0.09,1.3,0.18c-0.38,0.47-0.74,0.93-1.11,1.4c-0.18,0.09-0.65,0.09-1.58,0
		C98.07,142.95,94.81,142.77,91.66,142.77z"/>
	<path fill="#0071BC" d="M109.1,144.34c-1.11-0.18-1.11-0.38-1.2-0.47c0.46-0.55,0.93-1.11,1.39-1.66c0.18-0.09,0.74-0.19,1.67-0.09
		c3.53,0.37,6.95,0.83,10.48,1.48c0.93,0.18,1.3,0.37,1.2,0.65c-0.64,0.74-1.3,1.57-2.04,2.32c-0.28,0.18-0.84,0.18-1.67-0.09
		C115.59,145.73,112.34,145,109.1,144.34z"/>
	<path fill="#0071BC" d="M126.63,148.98c-0.83-0.28-1.2-0.65-1.02-0.84c0.84-0.93,1.58-1.76,2.23-2.6c0.28-0.18,0.84-0.18,1.76,0
		c3.43,0.93,6.96,1.95,10.3,3.15c0.84,0.38,1.2,0.65,1.11,0.93c-0.83,1.12-1.76,2.23-2.78,3.34c-0.37,0.28-0.92,0.18-1.85-0.09
		C133.21,151.39,129.88,150.09,126.63,148.98z"/>
	<path fill="#0071BC" d="M90.46,143.97c-1.02-0.09-1.12-0.18-1.12-0.18c0.19-0.18,0.47-0.37,0.65-0.55c0.09,0,0.38-0.09,1.4,0
		c3.15,0.09,6.21,0.37,9.45,0.84c0.56,0.09,1.03,0.18,1.21,0.37c-0.47,0.46-0.93,0.93-1.49,1.39c-0.18,0.09-0.64,0-1.48-0.09
		C96.12,144.8,93.24,144.25,90.46,143.97z"/>
	<path fill="#0071BC" d="M105.86,147.4c-0.56-0.18-0.84-0.37-1.02-0.56v-0.09c0.64-0.55,1.2-1.11,1.76-1.57
		c0.28-0.18,0.74-0.09,1.58,0c3.15,0.74,6.4,1.57,9.55,2.5c0.84,0.28,1.11,0.47,1.02,0.74c-0.84,0.84-1.67,1.58-2.6,2.32
		c-0.28,0.18-0.83,0.09-1.66-0.19C111.7,149.44,108.73,148.33,105.86,147.4z"/>
	<path fill="#0071BC" d="M121.53,153.81c-0.74-0.38-1.02-0.74-0.84-1.02c1.02-0.84,1.95-1.76,2.88-2.6
		c0.38-0.18,0.93-0.18,1.76,0.09c3.15,1.2,6.4,2.51,9.55,4.08c0.84,0.47,1.11,0.74,0.84,1.11c-1.11,1.12-2.32,2.14-3.62,3.25
		c-0.37,0.28-1.02,0.18-1.76-0.28C127.37,156.77,124.49,155.29,121.53,153.81z"/>
	<path fill="#0071BC" d="M88.97,145.09c-0.84-0.28-0.84-0.28-0.93-0.38c0.28-0.18,0.47-0.37,0.74-0.55c0.09,0,0.28,0,1.2,0.09
		c2.69,0.46,5.47,1.11,8.16,1.86c0.46,0.18,0.93,0.28,1.02,0.46c-0.56,0.47-1.11,0.93-1.76,1.3c-0.18,0.09-0.65,0-1.3-0.28
		C93.7,146.66,91.3,145.73,88.97,145.09z"/>
	<path fill="#0071BC" d="M101.96,150.46c-0.65-0.37-0.84-0.55-0.74-0.74c0.74-0.55,1.39-1.02,2.13-1.57
		c0.28-0.09,0.74-0.09,1.49,0.18c2.78,1.02,5.66,2.22,8.43,3.53c0.74,0.37,1.03,0.64,0.84,0.93c-1.02,0.74-1.95,1.57-3.06,2.32
		c-0.37,0.18-0.84,0.09-1.58-0.37C106.97,153.06,104.37,151.67,101.96,150.46z"/>
	<path fill="#0071BC" d="M115.41,158.54c-0.65-0.47-0.84-0.84-0.56-1.12c1.2-0.83,2.32-1.66,3.43-2.59
		c0.37-0.18,0.93-0.09,1.66,0.28c2.88,1.49,5.66,3.15,8.53,5.01c0.74,0.47,0.93,0.93,0.65,1.21c-1.39,1.11-2.78,2.13-4.26,3.24
		c-0.47,0.18-1.03,0.09-1.76-0.37C120.51,162.15,117.91,160.29,115.41,158.54z"/>
	<path fill="#0071BC" d="M87.3,146.11c-0.64-0.38-0.64-0.47-0.64-0.47c0.28-0.18,0.55-0.37,0.84-0.55c0.09,0,0.28,0,1.02,0.28
		c2.22,0.84,4.45,1.76,6.77,2.97c0.55,0.28,0.84,0.56,0.74,0.65c-0.64,0.46-1.3,0.84-1.95,1.2c-0.28,0.09-0.55-0.09-1.11-0.47
		C91.01,148.42,89.16,147.22,87.3,146.11z"/>
	<path fill="#0071BC" d="M97.51,153.25c-0.46-0.37-0.65-0.74-0.46-0.93c0.83-0.46,1.57-1.02,2.41-1.48c0.28-0.09,0.65,0,1.3,0.37
		c2.32,1.39,4.73,2.88,7.15,4.45c0.55,0.46,0.74,0.84,0.55,1.02c-1.11,0.74-2.22,1.48-3.43,2.22c-0.38,0.09-0.84,0-1.4-0.46
		C101.58,156.59,99.55,154.92,97.51,153.25z"/>
	<path fill="#0071BC" d="M108.45,162.98c-0.46-0.55-0.64-0.93-0.28-1.2c1.3-0.84,2.6-1.58,3.8-2.41c0.37-0.19,0.93,0,1.58,0.37
		c2.41,1.86,4.82,3.8,7.23,5.84c0.56,0.56,0.74,1.02,0.38,1.3c-1.58,1.02-3.16,2.04-4.82,3.07c-0.47,0.18-1.02,0-1.67-0.56
		C112.62,167.25,110.59,165.12,108.45,162.98z"/>
	<path fill="#0071BC" d="M85.45,147.13c-0.28-0.28-0.37-0.47-0.46-0.65c0.37-0.18,0.65-0.28,0.93-0.46c0.18,0,0.55,0.18,0.84,0.46
		c1.67,1.2,3.43,2.51,5.19,3.89c0.47,0.38,0.65,0.65,0.47,0.84c-0.65,0.37-1.4,0.74-2.14,1.11c-0.18,0.09-0.46-0.09-0.93-0.55
		C88.05,150.09,86.75,148.52,85.45,147.13z"/>
	<path fill="#0071BC" d="M92.78,155.94c-0.37-0.47-0.46-0.84-0.28-1.02c0.93-0.47,1.76-0.93,2.59-1.4c0.28-0.09,0.65,0.1,1.12,0.47
		c1.86,1.67,3.71,3.53,5.66,5.38c0.46,0.55,0.55,0.92,0.28,1.11c-1.2,0.64-2.51,1.39-3.71,2.04c-0.37,0.09-0.74-0.09-1.2-0.65
		C95.74,159.83,94.17,157.88,92.78,155.94z"/>
	<path fill="#0071BC" d="M100.94,167.25c-0.38-0.65-0.38-1.02-0.1-1.3c1.4-0.74,2.78-1.48,4.18-2.32c0.37-0.18,0.93,0,1.39,0.56
		c1.95,2.13,3.89,4.36,5.93,6.68c0.47,0.64,0.56,1.11,0.1,1.39c-1.67,1.02-3.43,1.95-5.2,2.88c-0.55,0.18-0.93,0-1.48-0.65
		C104.18,171.98,102.51,169.57,100.94,167.25z"/>
	<path fill="#0071BC" d="M83.5,148.05c-0.09-0.28-0.18-0.56-0.18-0.74c0.28-0.18,0.65-0.28,0.93-0.47c0.09,0,0.18,0.1,0.56,0.56
		c1.11,1.49,2.22,3.06,3.43,4.82c0.28,0.47,0.38,0.74,0.19,0.93c-0.74,0.37-1.49,0.74-2.23,1.02c-0.18,0-0.46-0.18-0.64-0.65
		C84.89,151.57,84.24,149.72,83.5,148.05z"/>
	<path fill="#0071BC" d="M87.68,158.44c-0.18-0.56-0.18-0.93,0-1.12c0.93-0.37,1.86-0.83,2.69-1.3c0.28-0.09,0.55,0.18,0.93,0.65
		c1.3,1.95,2.59,4.08,3.99,6.3c0.37,0.56,0.37,1.02,0,1.21c-1.3,0.64-2.6,1.2-3.89,1.85c-0.38,0.1-0.74-0.18-1.02-0.74
		C89.53,162.8,88.6,160.58,87.68,158.44z"/>
	<path fill="#0071BC" d="M92.87,171.06c-0.28-0.65-0.18-1.11,0.18-1.4c1.49-0.64,2.97-1.3,4.36-2.04c0.46-0.09,0.84,0.09,1.3,0.74
		c1.4,2.41,2.97,4.91,4.45,7.51c0.37,0.74,0.28,1.2-0.09,1.48c-1.76,0.93-3.62,1.76-5.47,2.6c-0.46,0.18-0.93-0.18-1.3-0.84
		C95.09,176.34,93.98,173.65,92.87,171.06z"/>
	<path fill="#0071BC" d="M81.55,148.89c0-0.28,0-0.65,0.09-0.84c0.38-0.18,0.65-0.28,1.02-0.38c0.1,0,0.19,0.09,0.38,0.65
		c0.46,1.76,1.02,3.62,1.67,5.66c0.18,0.55,0.09,0.84-0.09,1.02c-0.74,0.28-1.49,0.65-2.32,0.93c-0.18,0-0.37-0.28-0.37-0.84
		C81.64,152.88,81.55,150.84,81.55,148.89z"/>
	<path fill="#0071BC" d="M82.39,160.48c0-0.65,0.09-1.02,0.28-1.21c0.92-0.37,1.85-0.74,2.78-1.11c0.28-0.09,0.47,0.18,0.74,0.74
		c0.74,2.22,1.49,4.55,2.32,7.05c0.18,0.65,0.09,1.12-0.19,1.3c-1.3,0.55-2.68,1.11-4.08,1.57c-0.37,0.09-0.65-0.18-0.74-0.93
		C83.13,165.4,82.76,162.89,82.39,160.48z"/>
	<path fill="#0071BC" d="M84.62,174.39c-0.1-0.74,0-1.2,0.37-1.39c1.48-0.56,3.06-1.11,4.55-1.76c0.37-0.09,0.74,0.18,1.02,0.84
		c0.93,2.59,1.95,5.37,2.97,8.16c0.18,0.74,0.09,1.3-0.38,1.58c-1.85,0.74-3.8,1.48-5.65,2.22c-0.47,0.09-0.84-0.18-1.12-1.02
		C85.73,180.05,85.17,177.17,84.62,174.39z"/>
	<path fill="#0071BC" d="M79.51,149.53c0.09-0.18,0.18-0.64,0.38-0.93c0.37-0.18,0.64-0.28,1.02-0.37c0,0.09,0.09,0.09,0.09,0.84
		c-0.18,2.04-0.18,4.17-0.18,6.39c0,0.65-0.1,1.03-0.38,1.12c-0.74,0.28-1.57,0.46-2.32,0.74c-0.18,0-0.28-0.28-0.18-0.93
		C78.4,153.99,78.96,151.67,79.51,149.53z"/>
	<path fill="#0071BC" d="M77.1,162.25c0.09-0.65,0.28-1.12,0.55-1.21c0.93-0.28,1.86-0.55,2.78-0.93c0.28,0,0.38,0.28,0.47,0.93
		c0.09,2.41,0.28,5.01,0.55,7.7c0.09,0.74-0.09,1.11-0.46,1.3c-1.4,0.46-2.69,0.93-4.09,1.3c-0.37,0-0.55-0.28-0.55-1.02
		C76.64,167.53,76.82,164.84,77.1,162.25z"/>
	<path fill="#0071BC" d="M76.27,177.17c0-0.74,0.28-1.3,0.64-1.39c1.49-0.47,3.07-0.93,4.55-1.49c0.38-0.09,0.65,0.28,0.84,1.02
		c0.38,2.78,0.84,5.75,1.3,8.81c0.1,0.84-0.09,1.3-0.55,1.58c-1.95,0.65-3.8,1.3-5.66,1.76c-0.47,0.09-0.74-0.28-0.84-1.11
		C76.36,183.2,76.27,180.14,76.27,177.17z"/>
	<path fill="#0071BC" d="M77.56,150c0.09-0.18,0.38-0.74,0.65-1.02c0.37-0.09,0.65-0.19,1.02-0.28c0,0.09,0.09,0.09-0.18,0.93
		c-0.74,2.23-1.49,4.55-2.04,6.96c-0.19,0.64-0.38,1.02-0.56,1.11c-0.74,0.18-1.58,0.37-2.32,0.55c-0.1-0.18,0-0.55,0.18-1.02
		C75.25,154.73,76.36,152.32,77.56,150z"/>
	<path fill="#0071BC" d="M71.91,163.54c0.28-0.74,0.56-1.11,0.74-1.3c0.93-0.19,1.86-0.38,2.78-0.65c0.28,0,0.28,0.37,0.18,1.02
		c-0.46,2.69-0.84,5.38-1.11,8.26c-0.09,0.74-0.37,1.2-0.74,1.39c-1.39,0.37-2.69,0.65-3.99,0.93c-0.37,0-0.46-0.37-0.28-1.11
		C70.24,169.11,70.98,166.33,71.91,163.54z"/>
	<path fill="#0071BC" d="M68.01,179.21c0.18-0.84,0.47-1.3,0.84-1.48c1.49-0.28,2.97-0.65,4.45-1.02c0.37,0,0.55,0.37,0.55,1.11
		c-0.18,2.97-0.18,6.12-0.28,9.27c0,0.84-0.28,1.4-0.84,1.58c-1.86,0.47-3.71,0.93-5.66,1.3c-0.46,0-0.64-0.37-0.64-1.3
		C66.99,185.52,67.46,182.27,68.01,179.21z"/>
	<path fill="#0071BC" d="M75.71,150.28c0.18-0.18,0.56-0.74,0.84-1.02c0.37-0.09,0.65-0.09,0.93-0.18c0,0.09,0,0.18-0.46,0.93
		c-1.4,2.32-2.69,4.82-3.89,7.41c-0.38,0.74-0.56,1.03-0.84,1.12c-0.74,0.09-1.4,0.18-2.04,0.28l-0.1-0.09
		c0-0.28,0.19-0.56,0.47-1.02C72.19,155.19,73.95,152.69,75.71,150.28z"/>
	<path fill="#0071BC" d="M66.99,164.29c0.38-0.74,0.74-1.12,0.93-1.21c0.84-0.09,1.67-0.18,2.6-0.37c0.18,0,0.18,0.37-0.09,1.11
		c-1.02,2.78-2.04,5.66-2.88,8.63c-0.28,0.84-0.56,1.2-0.93,1.4c-1.3,0.18-2.51,0.37-3.71,0.55c-0.28-0.09-0.28-0.46,0-1.2
		C64.21,170.04,65.6,167.16,66.99,164.29z"/>
	<path fill="#0071BC" d="M60.31,180.42c0.28-0.83,0.65-1.3,1.02-1.39c1.3-0.18,2.69-0.37,4.08-0.65c0.38,0,0.47,0.47,0.28,1.21
		c-0.74,3.15-1.3,6.3-1.76,9.64c-0.18,0.84-0.47,1.39-1.02,1.48c-1.76,0.28-3.53,0.56-5.1,0.74c-0.38,0-0.56-0.46-0.38-1.39
		C58.37,186.82,59.29,183.58,60.31,180.42z"/>
	<path fill="#0071BC" d="M74.14,150.37c0.18-0.18,0.74-0.74,1.02-1.02c0.28,0,0.55,0,0.74-0.09c0,0.09,0,0.18-0.74,1.02
		c-1.95,2.41-3.8,4.91-5.57,7.61c-0.47,0.74-0.74,1.11-1.02,1.11c-0.65,0-1.2,0.09-1.76,0.09c0-0.09-0.09-0.18,0.65-1.11
		C69.59,155.38,71.81,152.79,74.14,150.37z"/>
	<path fill="#0071BC" d="M62.82,164.56c0.46-0.74,0.93-1.11,1.11-1.2c0.74,0,1.39,0,2.22-0.09c0.09,0.09,0.18,0.18-0.37,1.2
		c-1.58,2.88-3.06,5.75-4.36,8.81c-0.37,0.84-0.74,1.2-1.02,1.3c-1.11,0.09-2.13,0.09-3.15,0.09c-0.18-0.09-0.09-0.55,0.28-1.3
		C59.11,170.31,60.87,167.34,62.82,164.56z"/>
	<path fill="#0071BC" d="M53.64,180.7c0.47-0.84,0.84-1.3,1.11-1.4c1.12,0,2.32,0,3.53-0.09c0.28,0.09,0.28,0.47,0,1.3
		c-1.2,3.15-2.22,6.49-3.24,9.83c-0.28,0.93-0.65,1.39-1.02,1.48c-1.58,0.09-3.07,0.09-4.45,0.09c-0.37-0.09-0.37-0.55-0.09-1.48
		C50.85,187.19,52.16,183.94,53.64,180.7z"/>
	<path fill="#0071BC" d="M72.83,150.28c0.28-0.18,0.84-0.74,1.2-1.02c0.28,0,0.47,0.09,0.65,0.09c-0.09,0.09-0.09,0.18-0.93,1.02
		c-2.41,2.41-4.73,4.91-6.95,7.61c-0.65,0.74-1.02,1.02-1.2,1.11c-0.56-0.09-1.02-0.09-1.49-0.18c0-0.09,0-0.28,0.84-1.2
		C67.46,155.1,70.05,152.59,72.83,150.28z"/>
	<path fill="#0071BC" d="M59.29,164.19c0.65-0.74,1.02-1.12,1.2-1.21c0.56,0.09,1.21,0.18,1.86,0.18c0,0.1,0.09,0.28-0.64,1.21
		c-2.05,2.88-3.89,5.75-5.75,8.81c-0.47,0.84-0.84,1.2-1.21,1.3c-0.93-0.09-1.76-0.18-2.59-0.28c-0.19-0.09,0-0.56,0.55-1.39
		C54.84,169.94,56.98,166.97,59.29,164.19z"/>
	<path fill="#0071BC" d="M48.16,180.23c0.47-0.84,0.93-1.2,1.21-1.3c0.93,0.18,1.86,0.28,2.97,0.37c0.18,0.09,0.18,0.56-0.28,1.4
		c-1.58,3.15-3.07,6.49-4.45,9.83c-0.37,0.93-0.74,1.3-1.11,1.39c-1.3-0.09-2.51-0.28-3.62-0.46c-0.28-0.18-0.18-0.65,0.18-1.58
		C44.55,186.63,46.31,183.39,48.16,180.23z"/>
	<path fill="#0071BC" d="M71.72,149.91c0.28-0.19,0.93-0.74,1.4-0.93c0.18,0.09,0.37,0.09,0.55,0.18c-0.09,0.09-0.18,0.18-1.11,1.02
		c-2.88,2.32-5.57,4.82-8.16,7.42c-0.74,0.74-1.11,1.02-1.3,1.11c-0.37-0.09-0.84-0.28-1.11-0.38c0-0.09,0.09-0.28,1.02-1.11
		C65.79,154.64,68.76,152.23,71.72,149.91z"/>
	<path fill="#0071BC" d="M56.51,163.36c0.65-0.65,1.11-1.02,1.3-1.11c0.46,0.18,0.93,0.37,1.39,0.46c0,0.09,0,0.28-0.84,1.2
		c-2.41,2.78-4.64,5.66-6.77,8.72c-0.56,0.74-1.02,1.21-1.2,1.21c-0.74-0.19-1.4-0.47-2.04-0.65c-0.09-0.18,0.18-0.65,0.74-1.4
		C51.5,168.92,53.91,166.04,56.51,163.36z"/>
	<path fill="#0071BC" d="M43.81,178.85c0.56-0.74,1.02-1.2,1.2-1.2c0.65,0.28,1.49,0.55,2.23,0.74c0.18,0.09,0,0.65-0.47,1.4
		c-1.95,3.15-3.71,6.39-5.38,9.64c-0.46,0.84-0.83,1.3-1.2,1.3c-1.02-0.28-1.95-0.55-2.88-0.93c-0.18-0.18-0.09-0.64,0.38-1.57
		C39.73,185.15,41.68,182,43.81,178.85z"/>
	<path fill="#0071BC" d="M71.07,149.44c0.28-0.18,1.02-0.65,1.4-0.84c0.09,0.09,0.28,0.18,0.37,0.28c-0.09,0.09-0.18,0.18-1.3,0.93
		c-3.15,2.22-6.13,4.63-9.09,7.05c-0.74,0.65-1.11,0.93-1.3,1.02c-0.37-0.18-0.65-0.37-0.84-0.56c0.09-0.09,0.18-0.28,1.2-1.11
		C64.58,153.81,67.74,151.57,71.07,149.44z"/>
	<path fill="#0071BC" d="M54.56,162.06c0.47-0.37,1.02-0.84,1.3-1.02c0.28,0.28,0.64,0.56,1.02,0.74c0,0.18-0.1,0.28-1.02,1.2
		c-2.69,2.69-5.2,5.47-7.7,8.35c-0.64,0.74-1.02,1.11-1.2,1.11c-0.55-0.28-1.02-0.65-1.39-1.02c0-0.18,0.28-0.65,0.93-1.39
		C49.09,167.34,51.78,164.65,54.56,162.06z"/>
	<path fill="#0071BC" d="M40.75,176.81c0.37-0.47,0.84-0.93,1.11-1.11c0.55,0.46,1.02,0.83,1.67,1.2c0,0.18,0.09,0.37-0.65,1.48
		c-2.22,3.07-4.26,6.22-6.22,9.37c-0.55,0.84-0.92,1.2-1.11,1.2c-0.74-0.46-1.39-0.93-1.95-1.48c-0.09-0.18,0.09-0.74,0.65-1.58
		C36.29,182.83,38.43,179.77,40.75,176.81z"/>
	<path fill="#0071BC" d="M70.61,148.79c0.28-0.09,1.11-0.55,1.48-0.74c0.1,0.09,0.1,0.18,0.19,0.37c-0.09,0.09-0.19,0.18-1.4,0.93
		c-3.34,2.04-6.59,4.27-9.64,6.59c-0.84,0.65-1.11,0.84-1.39,0.93c-0.19-0.28-0.38-0.56-0.47-0.84c0.09-0.09,0.18-0.28,1.3-1.02
		C63.93,152.79,67.18,150.75,70.61,148.79z"/>
	<path fill="#0071BC" d="M53.54,160.29c0.47-0.37,1.02-0.74,1.3-0.83c0.19,0.37,0.38,0.64,0.56,0.93c-0.09,0.18-0.18,0.28-1.11,1.2
		c-2.88,2.5-5.57,5.1-8.16,7.88c-0.64,0.65-0.93,0.93-1.2,1.02c-0.37-0.46-0.65-0.93-0.84-1.39c0-0.19,0.38-0.65,1.02-1.3
		C47.7,165.12,50.58,162.71,53.54,160.29z"/>
	<path fill="#0071BC" d="M39.08,174.11c0.37-0.37,0.84-0.84,1.11-0.93c0.28,0.56,0.56,1.11,0.84,1.58c0,0.18-0.28,0.64-0.84,1.48
		c-2.41,2.88-4.64,5.84-6.68,8.9c-0.46,0.74-0.74,1.02-1.02,1.12c-0.46-0.65-0.84-1.3-1.11-1.95c0-0.28,0.28-0.74,0.84-1.58
		C34.35,179.68,36.57,176.81,39.08,174.11z"/>
	<path fill="#0071BC" d="M70.52,147.96c0.28-0.09,1.11-0.47,1.48-0.65c0,0.09,0,0.28,0,0.37c-0.09,0.09-0.28,0.19-1.48,0.84
		c-3.43,1.86-6.77,3.8-9.93,5.93c-0.83,0.56-1.11,0.74-1.3,0.84c-0.09-0.28-0.09-0.64-0.09-0.93c0.09-0.18,0.28-0.28,1.39-1.02
		C63.75,151.39,67.08,149.63,70.52,147.96z"/>
	<path fill="#0071BC" d="M53.36,158.16c0.28-0.18,0.93-0.64,1.2-0.74c0,0.47,0,0.84,0.09,1.21c-0.09,0.09-0.18,0.37-1.3,1.11
		c-2.97,2.32-5.84,4.73-8.53,7.33c-0.65,0.55-0.93,0.83-1.11,0.83c-0.09-0.55-0.09-1.11-0.09-1.76c0.09-0.28,0.46-0.65,1.2-1.3
		C47.52,162.52,50.39,160.29,53.36,158.16z"/>
	<path fill="#0071BC" d="M38.71,170.68c0.46-0.46,0.64-0.64,0.93-0.84h0.09c-0.09,0.65,0,1.3,0.09,1.95
		c-0.09,0.19-0.38,0.65-1.02,1.4c-2.51,2.69-4.73,5.47-6.96,8.44c-0.46,0.55-0.64,0.84-0.83,0.93h-0.1
		c-0.09-0.74-0.18-1.58-0.09-2.41c0.09-0.28,0.38-0.84,0.93-1.57C33.98,175.88,36.29,173.19,38.71,170.68z"/>
	<path fill="#0071BC" d="M11.35,258.79c0.09,0.65,0.18,1.4,0.37,2.04c0.19,1.02,0.38,1.95,0.56,2.97l-0.93-5.2
		C11.35,258.7,11.35,258.79,11.35,258.79z"/>
	<path fill="#0071BC" d="M28.5,179.96c0.28-0.46,0.46-0.56,0.56-0.74c-0.38,1.11-0.74,2.13-1.03,3.06
		c-0.09,0.28-0.37,0.84-0.92,1.58c-1.95,2.78-3.71,5.75-5.29,8.63c-0.28,0.47-0.37,0.65-0.46,0.84c0.18-1.11,0.55-2.32,1.11-3.53
		c0.18-0.37,0.46-1.02,0.84-1.76C24.98,185.34,26.65,182.56,28.5,179.96z"/>
	<path fill="#0071BC" d="M20.34,194.33c0-0.09,0.1-0.18,0.1-0.18v0.09c-0.56,1.3-0.93,2.51-1.21,3.62
		c-0.09,0.37-0.37,0.93-0.74,1.86c-1.3,3.06-2.51,6.21-3.53,9.46c-0.09,0.28-0.18,0.64-0.28,0.92c0.09-0.46,0.18-0.83,0.37-1.2
		c1.48-4.36,3.53-10.01,5.28-14.28C20.25,194.42,20.25,194.33,20.34,194.33z"/>
	<path fill="#0071BC" d="M13.29,214.93c-0.09,0.55-0.28,1.2-0.46,1.85c-0.09,0.38-0.19,0.74-0.28,1.12l0.74-3.07
		C13.29,214.83,13.29,214.83,13.29,214.93z"/>
	<path fill="#0071BC" d="M32.58,173.28C32.58,173.28,32.49,173.37,32.58,173.28c-0.93,1.2-1.57,2.32-2.22,3.43
		c-0.18,0.37-0.56,0.83-1.02,1.57c-1.86,2.6-3.43,5.2-5.01,7.98c-0.09,0.28-0.28,0.46-0.38,0.74c5.11-8.81,5.2-8.9,8.53-13.54
		C32.49,173.37,32.49,173.37,32.58,173.28z"/>
	<path fill="#0071BC" d="M70.79,147.04c0.28-0.09,1.02-0.38,1.4-0.47c0,0.18-0.1,0.28-0.19,0.47c-0.09,0.09-0.28,0.18-1.48,0.74
		c-3.43,1.58-6.77,3.25-9.93,5.11c-0.83,0.46-1.11,0.64-1.3,0.64c0.09-0.37,0.18-0.74,0.37-1.11c0.19-0.09,0.38-0.28,1.4-0.84
		C64.21,149.91,67.46,148.33,70.79,147.04z"/>
	<path fill="#0071BC" d="M54.1,155.57c0.28-0.19,0.93-0.56,1.11-0.56c-0.18,0.46-0.38,0.93-0.47,1.39c-0.09,0.1-0.28,0.28-1.3,1.02
		c-2.97,2.05-5.75,4.27-8.44,6.59c-0.55,0.47-0.74,0.65-1.02,0.74H43.9c0.18-0.65,0.37-1.3,0.65-2.04c0.18-0.28,0.55-0.65,1.2-1.2
		C48.45,159.46,51.14,157.42,54.1,155.57z"/>
	<path fill="#0071BC" d="M39.91,166.69c0.37-0.37,0.65-0.55,0.84-0.74c-0.28,0.84-0.56,1.58-0.74,2.32
		c-0.09,0.28-0.47,0.74-1.11,1.39c-2.51,2.51-4.73,5.11-6.95,7.7c-0.47,0.56-0.65,0.74-0.74,0.84v-0.09
		c0.18-0.93,0.55-1.86,0.93-2.78c0.18-0.37,0.55-0.84,1.11-1.48C35.27,171.33,37.5,169.02,39.91,166.69z"/>
	<path fill="#0071BC" d="M72.47,145.64c0.09,0,0.18,0,0.28-0.09c-0.09,0.18-0.18,0.37-0.28,0.56c-0.18,0.09-0.28,0.09-1.49,0.55
		c-3.34,1.3-6.49,2.69-9.55,4.18c-1.02,0.55-1.11,0.46-1.2,0.46c0.28-0.37,0.56-0.84,0.84-1.3c0.09-0.09,0.09-0.09,0.37-0.28
		C64.95,148.24,68.57,146.84,72.47,145.64z"/>
	<path fill="#0071BC" d="M56.6,152.32c0.09,0,0.09,0,0.18-0.09c-0.37,0.56-0.74,1.11-0.92,1.58c-0.1,0.18-0.56,0.46-1.3,0.93
		c-2.88,1.76-5.57,3.61-8.16,5.66c-0.56,0.37-0.74,0.55-0.93,0.64c0.37-0.84,0.93-1.57,1.48-2.32c0.09-0.09,0.09-0.18,0.38-0.47
		C50.21,156.21,53.27,154.17,56.6,152.32z"/>
	<path fill="#0071BC" d="M43.25,161.69C43.25,161.69,43.25,161.59,43.25,161.69C43.34,161.69,43.34,161.69,43.25,161.69
		c-0.55,0.84-1.11,1.76-1.57,2.51c-0.18,0.28-0.56,0.64-1.21,1.3c-2.32,2.22-4.54,4.55-6.58,6.95c-0.38,0.38-0.47,0.56-0.65,0.65
		c0,0,0,0,0-0.09c0.55-1.02,1.2-2.04,2.04-3.16c0.18-0.18,0.28-0.37,0.47-0.55C37.96,166.6,40.56,164,43.25,161.69z"/>
	<path fill="#87C71F" d="M192.48,328.35c0.09-0.47,0.47-0.93,1.02-1.3c2.13-1.3,4.18-2.6,6.13-3.9c0.46-0.28,0.74-0.18,0.64,0.28
		c-0.46,1.86-1.02,3.52-1.76,5.1c-0.18,0.47-0.55,0.84-1.02,1.11c-1.76,1.11-3.52,2.32-5.28,3.43c-0.47,0.28-0.65,0.18-0.56-0.09
		C192.02,331.5,192.29,330.02,192.48,328.35z"/>
	<path fill="#87C71F" d="M180.88,334.84c0-0.38,0.28-0.84,0.93-1.11c2.22-1.21,4.45-2.41,6.68-3.62c0.56-0.28,0.84-0.28,0.93,0.18
		c-0.09,1.58-0.28,3.06-0.56,4.36c-0.09,0.38-0.46,0.74-0.93,1.03c-1.86,1.11-3.8,2.13-5.75,3.15c-0.55,0.28-0.84,0.18-0.84,0
		C181.16,337.53,181.07,336.23,180.88,334.84z"/>
	<path fill="#87C71F" d="M159.46,321.86c-0.19-0.65,0.09-1.11,0.84-1.58c3.06-1.39,6.12-2.78,9.09-4.26
		c0.84-0.28,1.39-0.18,1.67,0.37c0.84,2.32,1.66,4.55,2.41,6.68c0.09,0.56-0.18,1.12-0.93,1.49c-2.78,1.39-5.66,2.69-8.44,3.99
		c-0.74,0.28-1.3,0.18-1.66-0.28C161.5,326.22,160.57,324.08,159.46,321.86z"/>
	<path fill="#87C71F" d="M149.72,338.65c-0.28-0.47,0-0.84,0.65-1.12c2.88-1.02,5.66-2.13,8.44-3.34c0.74-0.28,1.3-0.18,1.58,0.28
		c0.93,1.67,1.86,3.34,2.68,4.73c0.19,0.38-0.09,0.74-0.74,1.02c-2.51,1.02-5.11,2.04-7.61,2.97c-0.74,0.19-1.21,0.19-1.58-0.18
		C152.13,341.71,150.93,340.22,149.72,338.65z"/>
	<path fill="#87C71F" d="M117.54,321.58c-0.37-0.74-0.09-1.2,0.74-1.58c3.34-1.02,6.68-2.04,10.11-3.24c0.93-0.18,1.58,0,2.04,0.64
		c1.49,2.6,2.97,5.11,4.36,7.51c0.28,0.65,0.09,1.11-0.74,1.49c-3.24,1.11-6.4,2.13-9.64,3.06c-0.93,0.18-1.58,0-2.04-0.56
		C120.78,326.59,119.12,324.18,117.54,321.58z"/>
	<path fill="#87C71F" d="M134.7,343.56c-0.38-0.47-0.18-0.74,0.55-1.02c2.78-0.84,5.66-1.76,8.53-2.69c0.74-0.18,1.4-0.09,1.76,0.28
		c1.3,1.58,2.6,2.97,3.8,4.27c0.28,0.37,0.09,0.64-0.55,0.93c-2.6,0.83-5.11,1.66-7.7,2.41c-0.74,0.18-1.3,0.09-1.76-0.18
		C137.85,346.34,136.27,345.04,134.7,343.56z"/>
	<path fill="#0071BC" d="M108.91,306.28c-0.28-0.84-0.09-1.4,0.84-1.76c3.52-1.02,6.95-2.13,10.48-3.34
		c0.93-0.19,1.66,0.09,2.13,0.83c1.48,3.07,3.06,6.13,4.55,8.91c0.28,0.74,0.09,1.3-0.84,1.66c-3.43,1.21-6.86,2.23-10.2,3.25
		c-0.93,0.18-1.57-0.09-2.13-0.74C112.16,312.4,110.49,309.43,108.91,306.28z"/>
	<path fill="#87C71F" d="M203.98,173.28c-0.65-0.65-1.02-1.3-0.93-1.76c0.56-1.57,1.02-3.15,1.3-4.55c0.19-0.28,0.56-0.18,1.3,0.47
		c2.69,2.41,5.37,5.01,7.88,7.7c0.65,0.74,0.93,1.3,0.93,1.76c-0.28,1.48-0.74,3.15-1.39,4.82c-0.28,0.37-0.65,0.18-1.3-0.47
		C209.27,178.47,206.67,175.79,203.98,173.28z"/>
	<path fill="#87C71F" d="M183.85,169.29c-0.74-0.65-1.02-1.11-0.84-1.67c1.11-1.67,2.04-3.15,2.78-4.64
		c0.28-0.37,0.84-0.28,1.67,0.28c3.06,2.13,6.03,4.36,8.9,6.77c0.74,0.64,1.02,1.2,0.84,1.66c-0.84,1.67-1.86,3.34-2.97,5.11
		c-0.37,0.37-0.93,0.28-1.67-0.38C189.69,173.93,186.82,171.52,183.85,169.29z"/>
	<path fill="#87C71F" d="M198.88,182.46c-0.65-0.74-0.84-1.3-0.65-1.86c1.2-1.76,2.22-3.53,3.06-5.2c0.28-0.37,0.74-0.28,1.49,0.38
		c2.69,2.59,5.28,5.19,7.79,7.97c0.65,0.74,0.84,1.39,0.65,1.95c-0.93,1.76-1.95,3.53-3.25,5.38c-0.37,0.37-0.93,0.28-1.57-0.38
		C204.07,187.84,201.57,185.06,198.88,182.46z"/>
	<g>
		<defs>
			<rect id="SVGID_00000090982581220701901330000011484850290838014852_" x="210.19" y="188.4" width="13.27" height="19.94"/>
		</defs>
		<clipPath id="SVGID_00000066479740769779099650000008444262502918618004_">
			<use xlink:href="#SVGID_00000090982581220701901330000011484850290838014852_"  overflow="visible"/>
		</clipPath>
		<g clip-path="url(#SVGID_00000066479740769779099650000008444262502918618004_)">
			<path fill="#87C71F" d="M211.95,197.58c-0.55-0.83-0.64-1.48-0.37-2.13c1.3-1.86,2.32-3.71,3.24-5.47
				c0.28-0.37,0.74-0.18,1.4,0.47c2.22,2.97,4.36,6.03,6.3,9.18c0.47,0.83,0.65,1.57,0.47,2.13c-0.93,1.86-2.04,3.71-3.34,5.66
				c-0.37,0.46-0.83,0.28-1.39-0.56C216.31,203.7,214.18,200.55,211.95,197.58z"/>
		</g>
	</g>
	<path fill="#87C71F" d="M160.76,166.23c-0.74-0.56-1.02-1.02-0.74-1.49c1.3-1.48,2.6-2.88,3.71-4.36c0.37-0.38,1.02-0.28,1.86,0.18
		c3.15,1.86,6.31,3.89,9.37,6.03c0.74,0.56,1.02,1.11,0.74,1.58c-1.3,1.57-2.6,3.24-4.18,4.82c-0.46,0.37-1.11,0.28-1.86-0.28
		C166.78,170.4,163.82,168.27,160.76,166.23z"/>
	<path fill="#87C71F" d="M190.8,192.29c-0.64-0.74-0.74-1.4-0.37-1.95c1.67-1.86,3.24-3.62,4.73-5.47c0.46-0.37,1.02-0.28,1.76,0.38
		c2.59,2.68,5.1,5.47,7.51,8.34c0.55,0.84,0.74,1.49,0.37,2.04c-1.49,1.95-3.15,3.8-4.91,5.75c-0.56,0.47-1.11,0.28-1.76-0.46
		C195.72,197.95,193.31,195.08,190.8,192.29z"/>
	<path fill="#87C71F" d="M203.32,208.06c-0.55-0.84-0.55-1.57-0.09-2.13c1.76-1.95,3.53-3.89,5.01-5.84
		c0.46-0.46,1.02-0.28,1.57,0.47c2.23,3.06,4.27,6.12,6.22,9.36c0.46,0.93,0.55,1.67,0.18,2.23c-1.58,1.95-3.34,3.99-5.2,6.03
		c-0.55,0.46-1.02,0.28-1.57-0.56C207.5,214.37,205.46,211.12,203.32,208.06z"/>
	<path fill="#87C71F" d="M152.41,174.02c-0.64-0.65-0.84-1.2-0.46-1.58c1.67-1.48,3.24-2.88,4.73-4.36
		c0.46-0.28,1.11-0.19,1.95,0.28c2.97,2.13,5.93,4.36,8.81,6.68c0.74,0.65,0.84,1.2,0.56,1.67c-1.67,1.57-3.43,3.24-5.29,4.82
		c-0.56,0.37-1.2,0.18-1.95-0.47C157.97,178.66,155.19,176.25,152.41,174.02z"/>
	<path fill="#87C71F" d="M155.47,196c-0.55-0.74-0.55-1.4,0-1.86c2.23-1.58,4.36-3.25,6.49-4.82c0.65-0.38,1.21-0.18,1.95,0.46
		c2.51,2.69,5.01,5.47,7.42,8.35c0.56,0.84,0.65,1.39,0.09,1.95c-2.22,1.76-4.55,3.53-6.95,5.19c-0.74,0.38-1.4,0.19-2.04-0.55
		C160.2,201.75,157.88,198.88,155.47,196z"/>
	<path fill="#87C71F" d="M167.71,211.86c-0.55-0.84-0.46-1.48,0.09-2.13c2.51-1.76,4.82-3.53,7.15-5.38
		c0.64-0.37,1.3-0.18,1.95,0.56c2.32,2.97,4.55,6.03,6.77,9.09c0.46,0.83,0.46,1.57-0.09,2.13c-2.41,1.86-4.91,3.8-7.51,5.66
		c-0.74,0.46-1.39,0.18-2.04-0.56C172.07,218.08,169.94,214.93,167.71,211.86z"/>
	<path fill="#87C71F" d="M131.26,188.95c-0.46-0.74-0.46-1.3,0-1.76c2.13-1.3,4.27-2.69,6.31-3.99c0.64-0.28,1.2-0.09,1.95,0.56
		c2.41,2.6,4.73,5.28,7.05,8.07c0.56,0.74,0.56,1.4,0,1.86c-2.32,1.49-4.64,3.07-7.05,4.55c-0.74,0.28-1.3,0.09-1.95-0.65
		C135.53,194.52,133.39,191.73,131.26,188.95z"/>
	<path fill="#87C71F" d="M128.48,212.33c-0.37-0.84-0.28-1.49,0.38-1.95c2.69-1.4,5.28-2.88,7.88-4.36
		c0.74-0.28,1.39-0.09,1.95,0.65c1.95,3.06,3.99,6.12,5.93,9.37c0.47,0.84,0.28,1.57-0.37,2.04c-2.78,1.57-5.66,3.15-8.53,4.64
		c-0.84,0.28-1.49,0.09-2.04-0.74C132.01,218.72,130.24,215.57,128.48,212.33z"/>
	<path fill="#87C71F" d="M149.26,149.91c-0.93-0.38-1.3-0.74-1.11-1.02c0.74-1.12,1.39-2.23,1.95-3.34c0.28-0.28,0.84-0.18,1.76,0
		c3.52,1.11,7.05,2.41,10.48,3.89c0.84,0.38,1.3,0.84,1.2,1.11c-0.65,1.3-1.4,2.51-2.32,3.89c-0.28,0.28-0.92,0.28-1.76-0.09
		C156.03,152.79,152.69,151.3,149.26,149.91z"/>
	<path fill="#87C71F" d="M143.97,156.3c-0.83-0.46-1.11-0.84-0.92-1.2c1.11-1.2,2.13-2.32,2.97-3.53c0.37-0.28,0.93-0.28,1.86,0.09
		c3.34,1.4,6.68,2.97,10.01,4.64c0.84,0.47,1.11,0.93,0.93,1.3c-1.11,1.39-2.22,2.78-3.53,4.08c-0.37,0.28-1.02,0.28-1.86-0.18
		C150.37,159.74,147.22,157.98,143.97,156.3z"/>
	<path fill="#87C71F" d="M129.04,169.02c-0.65-0.65-0.74-1.12-0.37-1.4c1.57-1.11,3.06-2.32,4.54-3.43
		c0.47-0.28,1.02-0.19,1.86,0.28c2.78,1.95,5.57,4.08,8.35,6.3c0.65,0.65,0.84,1.12,0.46,1.49c-1.66,1.3-3.52,2.69-5.28,3.99
		c-0.56,0.28-1.2,0.18-1.86-0.46C134.14,173.46,131.55,171.15,129.04,169.02z"/>
	<path fill="#87C71F" d="M119.86,175.04c-0.46-0.65-0.55-1.11-0.18-1.49c1.76-1.11,3.43-2.13,5.1-3.24
		c0.47-0.28,1.12-0.09,1.76,0.46c2.41,2.23,4.91,4.55,7.33,7.05c0.56,0.64,0.65,1.2,0.18,1.57c-1.95,1.3-3.89,2.6-6.03,3.8
		c-0.56,0.28-1.2,0.09-1.76-0.55C124.13,179.96,121.99,177.45,119.86,175.04z"/>
	<path fill="#87C71F" d="M189.14,147.59c-0.84-0.55-1.3-0.93-1.49-1.2c-0.46-1.02-1.11-1.95-1.86-2.78v-0.09
		c0.09,0,0.18-0.09,1.02,0.37c3.06,1.76,6.03,3.62,8.81,5.57c0.74,0.56,1.3,0.93,1.58,1.3c0.84,0.92,1.49,1.95,1.95,3.06v0.09
		c-0.09,0-0.18,0.09-1.02-0.47C195.17,151.3,192.2,149.35,189.14,147.59z"/>
	<path fill="#87C71F" d="M172.63,144.9c-0.93-0.37-1.39-0.74-1.48-1.11c0-1.02-0.09-2.04-0.28-3.06v-0.09
		c0.18-0.18,0.83,0,1.39,0.18c3.34,1.3,6.68,2.69,9.92,4.27c0.84,0.46,1.3,0.83,1.49,1.11c0.28,1.11,0.37,2.22,0.37,3.43
		c-0.09,0.28-0.55,0.19-1.39-0.18C179.4,147.77,176.06,146.29,172.63,144.9z"/>
	<path fill="#87C71F" d="M190.16,153.71c-0.84-0.56-1.21-0.93-1.3-1.3c0-1.2-0.09-2.41-0.37-3.52c0,0,0,0,0-0.1
		c0.18-0.18,0.74,0.1,1.2,0.38c3.06,1.76,6.13,3.8,9,5.84c0.74,0.56,1.2,1.02,1.39,1.39c0.28,1.21,0.37,2.41,0.37,3.8
		c-0.09,0.28-0.46,0.19-1.3-0.37C196.28,157.7,193.22,155.66,190.16,153.71z"/>
	<path fill="#87C71F" d="M171.15,151.21c-0.93-0.46-1.3-0.84-1.3-1.2c0.47-1.21,0.84-2.41,1.03-3.53c0.18-0.28,0.64-0.28,1.57,0.09
		c3.43,1.49,6.77,3.06,10.02,4.73c0.84,0.47,1.3,0.93,1.3,1.3c-0.28,1.3-0.65,2.6-1.11,3.99c-0.18,0.28-0.74,0.28-1.58-0.19
		C177.82,154.45,174.48,152.79,171.15,151.21z"/>
	<path fill="#87C71F" d="M92.59,207.41c-0.18-0.93,0-1.49,0.65-1.86c2.5-0.93,5.01-1.95,7.41-2.97c0.65-0.19,1.21,0.09,1.58,0.93
		c1.2,3.24,2.51,6.49,3.8,9.83c0.28,0.93,0.09,1.48-0.65,1.95c-2.78,1.11-5.47,2.22-8.25,3.24c-0.74,0.18-1.3-0.18-1.67-1.02
		C94.54,214.18,93.52,210.75,92.59,207.41z"/>
	<path fill="#87C71F" d="M82.57,230.78c-0.18-1.02,0.19-1.58,0.93-1.86c2.88-0.84,5.75-1.76,8.63-2.69c0.74-0.18,1.3,0.19,1.67,1.11
		c1.02,3.53,2.13,7.05,3.25,10.58c0.18,0.92-0.1,1.57-0.84,1.95c-3.16,1.02-6.22,2.04-9.37,2.97c-0.84,0.18-1.4-0.19-1.76-1.12
		C84.15,238.02,83.31,234.4,82.57,230.78z"/>
	<path fill="#87C71F" d="M168.55,340.69c-0.09-0.38,0.09-0.65,0.74-1.02c2.41-1.02,4.73-2.14,7.05-3.34
		c0.65-0.28,1.02-0.18,1.11,0.09c0.38,1.4,0.56,2.6,0.74,3.71c0,0.28-0.28,0.56-0.84,0.93c-1.95,1.02-4.08,1.95-6.12,2.88
		c-0.56,0.18-0.93,0.18-1.11,0C169.75,343,169.2,341.98,168.55,340.69z"/>
	<path fill="#87C71F" d="M171.33,345.88c-0.09-0.18,0.18-0.46,0.65-0.64c1.95-0.84,3.8-1.76,5.66-2.69c0.46-0.18,0.74-0.28,0.83,0
		c0.1,0.84,0,1.57-0.09,2.04c-0.09,0.18-0.28,0.37-0.74,0.55c-1.49,0.74-3.07,1.49-4.55,2.14c-0.38,0.18-0.65,0.28-0.74,0.18
		C171.98,347.08,171.7,346.53,171.33,345.88z"/>
	<path fill="#87C71F" d="M161.03,349.96c-0.18-0.18,0-0.37,0.47-0.55c1.95-0.74,3.89-1.49,5.84-2.32c0.55-0.18,0.84-0.18,1.02-0.09
		c0.56,0.65,1.02,1.12,1.39,1.4c0,0,0,0,0,0.09c-0.09,0.09-0.18,0.18-0.55,0.28c-1.58,0.65-3.15,1.3-4.73,1.86
		c-0.47,0.18-0.74,0.18-1.02,0.18C162.8,350.79,161.96,350.42,161.03,349.96z"/>
	<path fill="#87C71F" d="M135.44,315.65c-0.28-0.74,0-1.3,0.83-1.67c3.34-1.2,6.68-2.6,10.02-3.99c0.93-0.28,1.58-0.09,2.04,0.55
		c1.3,2.69,2.51,5.29,3.8,7.7c0.28,0.65,0,1.21-0.84,1.58c-3.15,1.3-6.4,2.6-9.55,3.8c-0.93,0.28-1.48,0.09-1.95-0.47
		C138.32,320.84,136.92,318.33,135.44,315.65z"/>
	<path fill="#87C71F" d="M143.05,350.05c-0.38-0.28-0.19-0.47,0.37-0.74c2.41-0.74,4.91-1.49,7.33-2.32
		c0.64-0.18,1.11-0.18,1.57,0.09c1.2,1.03,2.32,1.86,3.43,2.6c0.28,0.18,0.09,0.38-0.47,0.56c-2.13,0.74-4.17,1.39-6.3,2.04
		c-0.56,0.09-1.11,0.18-1.49,0C146.01,351.72,144.53,350.98,143.05,350.05z"/>
	<g transform="matrix(1, 0, 0, 1, 164, 207)">
		<g>
			<defs>
				<rect id="SVGID_00000010304518588067537300000014414926674535688875_" x="38.94" y="79.29" width="195.79" height="18.13"/>
			</defs>
			<clipPath id="SVGID_00000083053355211785478020000017542229902203690380_">
				<use xlink:href="#SVGID_00000010304518588067537300000014414926674535688875_"  overflow="visible"/>
			</clipPath>
			<g clip-path="url(#SVGID_00000083053355211785478020000017542229902203690380_)">
				<g>
					<g transform="translate(0.621913, 7.902816)">
						<g>
							<path fill="#969696" d="M40.58,85.72v-9.74h3.17c1.06,0,1.85,0.22,2.38,0.65c0.55,0.44,0.82,1.09,0.82,1.95
								c0,0.45-0.13,0.86-0.4,1.22c-0.25,0.34-0.59,0.61-1.05,0.79c0.52,0.16,0.94,0.44,1.25,0.85c0.3,0.4,0.45,0.89,0.45,1.47
								c0,0.87-0.28,1.56-0.85,2.07c-0.57,0.5-1.37,0.74-2.41,0.74H40.58z M41.86,81.16v3.51h2.12c0.6,0,1.08-0.15,1.42-0.45
								c0.35-0.32,0.54-0.75,0.54-1.3c0-1.17-0.64-1.76-1.93-1.76H41.86z M41.86,80.14h1.95c0.57,0,1.01-0.14,1.33-0.42
								c0.34-0.28,0.51-0.67,0.51-1.16c0-0.52-0.16-0.91-0.48-1.16c-0.3-0.24-0.78-0.37-1.42-0.37h-1.9V80.14z"/>
						</g>
					</g>
				</g>
				<g>
					<g transform="translate(7.682441, 7.902816)">
						<g>
							<path fill="#969696" d="M47.71,85.72h-1.3v-9.74h1.3V85.72z"/>
						</g>
					</g>
				</g>
				<g>
					<g transform="translate(12.091477, 7.902816)">
						<g>
							<path fill="#969696" d="M51.21,84.67h4.62v1.05H49.9v-9.74h1.3V84.67z"/>
						</g>
					</g>
				</g>
				<g>
					<g transform="translate(18.513136, 7.902816)">
						<g>
							<path fill="#969696" d="M56.43,84.67h4.62v1.05h-5.92v-9.74h1.3V84.67z"/>
						</g>
					</g>
				</g>
				<g>
					<g transform="translate(24.934795, 7.902816)">
						<g>
							<path fill="#969696" d="M61.73,85.72h-1.3v-9.74h1.3V85.72z"/>
						</g>
					</g>
				</g>
				<g>
					<g transform="translate(29.343831, 7.902816)">
						<g>
							<path fill="#969696" d="M71.41,85.72h-1.27l-4.9-7.51v7.51h-1.3v-9.74h1.3l4.9,7.53v-7.53h1.27V85.72z"/>
						</g>
					</g>
				</g>
				<g>
					<g transform="translate(37.087542, 7.902816)">
						<g>
							<path fill="#969696" d="M77.42,84.44c-0.33,0.47-0.79,0.84-1.39,1.08c-0.59,0.23-1.27,0.34-2.07,0.34
								c-0.79,0-1.5-0.18-2.12-0.57c-0.61-0.38-1.08-0.91-1.42-1.59c-0.34-0.69-0.51-1.5-0.51-2.41v-0.85c0-1.45,0.34-2.58,1.02-3.4
								c0.68-0.81,1.64-1.22,2.89-1.22c1.02,0,1.84,0.27,2.46,0.79c0.62,0.51,1,1.25,1.13,2.21h-1.27
								c-0.25-1.28-1.02-1.93-2.32-1.93c-0.85,0-1.5,0.3-1.95,0.91c-0.44,0.61-0.67,1.47-0.68,2.61v0.79c0,1.1,0.24,1.98,0.74,2.63
								c0.51,0.64,1.2,0.96,2.07,0.96c0.47,0,0.89-0.06,1.25-0.17c0.35-0.11,0.66-0.29,0.91-0.54v-2.18h-2.27v-1.05h3.54V84.44z"/>
						</g>
					</g>
				</g>
				<g>
					<g transform="translate(44.591216, 7.902816)">
					</g>
				</g>
				<g>
					<g transform="translate(48.815608, 7.902816)">
						<g>
							<path fill="#969696" d="M82.62,81.38c-1.1-0.32-1.9-0.71-2.41-1.16c-0.5-0.47-0.74-1.05-0.74-1.73c0-0.77,0.3-1.4,0.91-1.9
								c0.62-0.51,1.42-0.76,2.41-0.76c0.66,0,1.25,0.13,1.78,0.4c0.52,0.27,0.93,0.62,1.22,1.08c0.28,0.45,0.42,0.95,0.42,1.47
								h-1.27c0-0.58-0.19-1.03-0.57-1.36c-0.38-0.34-0.91-0.51-1.59-0.51c-0.64,0-1.15,0.14-1.5,0.42
								c-0.34,0.27-0.51,0.64-0.51,1.13c0,0.4,0.16,0.74,0.48,1.02c0.34,0.27,0.91,0.51,1.73,0.74c0.81,0.23,1.44,0.48,1.9,0.76
								c0.47,0.28,0.81,0.61,1.02,0.96c0.23,0.36,0.34,0.79,0.34,1.3c0,0.78-0.31,1.41-0.93,1.9c-0.61,0.47-1.43,0.71-2.46,0.71
								c-0.67,0-1.29-0.13-1.87-0.37c-0.59-0.26-1.04-0.62-1.36-1.08c-0.3-0.45-0.45-0.96-0.45-1.53h1.3c0,0.59,0.21,1.06,0.65,1.42
								c0.43,0.34,1.01,0.51,1.73,0.51c0.68,0,1.2-0.14,1.56-0.42c0.35-0.28,0.54-0.66,0.54-1.13c0-0.47-0.17-0.84-0.51-1.1
								C84.1,81.89,83.5,81.63,82.62,81.38z"/>
						</g>
					</g>
				</g>
				<g>
					<g transform="translate(55.654563, 7.902816)">
						<g>
							<path fill="#969696" d="M92.82,81.16c0,0.96-0.16,1.81-0.48,2.52c-0.33,0.7-0.79,1.24-1.39,1.61
								c-0.59,0.38-1.27,0.57-2.04,0.57c-0.78,0-1.47-0.18-2.07-0.57c-0.59-0.38-1.05-0.91-1.39-1.61
								c-0.33-0.69-0.48-1.51-0.48-2.44v-0.71c0-0.92,0.16-1.74,0.48-2.46c0.32-0.72,0.77-1.26,1.36-1.64
								c0.6-0.4,1.29-0.59,2.07-0.59c0.77,0,1.46,0.19,2.07,0.57c0.6,0.38,1.06,0.93,1.39,1.64c0.32,0.72,0.48,1.55,0.48,2.49V81.16
								z M91.52,80.53c0-1.15-0.24-2.04-0.71-2.66c-0.45-0.62-1.1-0.93-1.93-0.93c-0.81,0-1.46,0.31-1.93,0.93
								c-0.45,0.62-0.69,1.49-0.71,2.58v0.71c0,1.12,0.23,2,0.71,2.63c0.47,0.64,1.12,0.96,1.95,0.96c0.83,0,1.47-0.3,1.93-0.91
								c0.45-0.6,0.68-1.47,0.68-2.61V80.53z"/>
						</g>
					</g>
				</g>
				<g>
					<g transform="translate(63.206245, 7.902816)">
						<g>
							<path fill="#969696" d="M96.84,81.41h-4.11v4.31h-1.27v-9.74h6.03v1.05h-4.76v3.34h4.11V81.41z"/>
						</g>
					</g>
				</g>
				<g>
					<g transform="translate(69.73869, 7.902816)">
						<g>
							<path fill="#969696" d="M103.5,77.02h-3.14v8.7h-1.27v-8.7h-3.12v-1.05h7.53V77.02z"/>
						</g>
					</g>
				</g>
				<g>
					<g transform="translate(76.603495, 7.902816)">
						<g>
							<path fill="#969696" d="M104.44,82.66l0.2,1.27l0.25-1.16l1.95-6.8h1.08l1.87,6.8l0.28,1.19l0.2-1.33l1.5-6.66h1.3
								l-2.35,9.74h-1.19l-2.01-7.11l-0.14-0.74l-0.17,0.74l-2.07,7.11h-1.16l-2.38-9.74h1.3L104.44,82.66z"/>
						</g>
					</g>
				</g>
				<g>
					<g transform="translate(85.665566, 7.902816)">
						<g>
							<path fill="#969696" d="M115.09,83.17h-4.08l-0.93,2.55h-1.3l3.71-9.74h1.13l3.71,9.74h-1.3L115.09,83.17z M111.38,82.12
								h3.31l-1.64-4.56L111.38,82.12z"/>
						</g>
					</g>
				</g>
				<g>
					<g transform="translate(92.95136, 7.902816)">
						<g>
							<path fill="#969696" d="M119.2,81.78h-2.29v3.94h-1.27v-9.74h3.23c1.09,0,1.93,0.25,2.52,0.76c0.58,0.5,0.88,1.21,0.88,2.15
								c0,0.62-0.16,1.16-0.48,1.61c-0.33,0.44-0.78,0.76-1.36,0.99l2.29,4.14v0.08h-1.39L119.2,81.78z M116.91,80.73h1.98
								c0.64,0,1.15-0.16,1.53-0.48c0.38-0.34,0.57-0.79,0.57-1.36c0-0.58-0.18-1.03-0.54-1.36c-0.36-0.34-0.88-0.51-1.56-0.51
								h-1.98V80.73z"/>
						</g>
					</g>
				</g>
				<g>
					<g transform="translate(99.960188, 7.902816)">
						<g>
							<path fill="#969696" d="M126.82,81.21h-4.22v3.46h4.93v1.05h-6.2v-9.74h6.12v1.05h-4.84v3.14h4.22V81.21z"/>
						</g>
					</g>
				</g>
			</g>
		</g>
	</g>
	<g transform="matrix(1, 0, 0, 1, 109, 174)">
		<g>
			<defs>
				<rect id="SVGID_00000147920760243139124150000015566623615153976221_" x="-5.77" y="52.47" width="389.77" height="67.08"/>
			</defs>
			<clipPath id="SVGID_00000139257238400780031910000000618214735657480383_">
				<use xlink:href="#SVGID_00000147920760243139124150000015566623615153976221_"  overflow="visible"/>
			</clipPath>
			<g clip-path="url(#SVGID_00000139257238400780031910000000618214735657480383_)">
				<g>
					<g transform="translate(1.6898, 28.165823)">
						<g>
							<path fill="#005994" d="M0.08,36.13h8.98v31.1h24.08v8.13H0.08V36.13z"/>
						</g>
					</g>
				</g>
				<g>
					<g transform="translate(23.164065, 28.165823)">
						<g>
							<path fill="#005994" d="M13.91,70.89l15.13-34.76H40.8l15.13,34.76v4.48h-8.41l-3.06-7.56H25.39l-3.09,7.56h-8.38V70.89z
								 M41.36,60.24L34.9,44.26l-6.43,15.98H41.36z"/>
						</g>
					</g>
				</g>
				<g>
					<g transform="translate(47.26467, 28.165823)">
						<g>
							<path fill="#005994" d="M37.13,36.13h28.3c2.79,0,5.03,0.84,6.71,2.52c1.68,1.69,2.52,3.93,2.52,6.74v6.71
								c0,1.98-0.4,3.55-1.19,4.7c-0.78,1.13-1.64,2-2.61,2.58c-1.12,0.68-2.37,1.15-3.77,1.42l8.41,10.08v4.48h-8.13L56.48,61.37
								H46.11v13.99h-8.98V36.13z M62.06,53.52c2.44,0,3.65-1.22,3.65-3.65v-2.24c0-2.44-1.22-3.65-3.65-3.65H46.11v9.55H62.06z"/>
						</g>
					</g>
				</g>
				<g>
					<g transform="translate(72.601212, 28.165823)">
						<g>
							<path fill="#005994" d="M54.1,70.89l15.13-34.76h11.76l15.13,34.76v4.48h-8.41l-3.06-7.56H65.57l-3.09,7.56H54.1V70.89z
								 M81.55,60.24l-6.46-15.98l-6.43,15.98H81.55z"/>
						</g>
					</g>
				</g>
				<g>
					<g transform="translate(96.701817, 28.165823)">
						<g>
							<path fill="#005994" d="M77.32,36.13h33.06v5.04l-2.8,2.8H86.29v9.55h17.93v7.85H86.29v13.99h-8.98V36.13z"/>
						</g>
					</g>
				</g>
				<g>
					<g transform="translate(118.176082, 28.165823)">
						<g>
							<path fill="#005994" d="M91.15,70.89l15.13-34.76h11.76l15.13,34.76v4.48h-8.41l-3.06-7.56h-19.06l-3.09,7.56h-8.38V70.89z
								 M118.59,60.24l-6.46-15.98l-6.43,15.98H118.59z"/>
						</g>
					</g>
				</g>
				<g>
					<g transform="translate(142.276686, 28.165823)">
						<g>
							<path fill="#005994" d="M123.06,75.36c-2.82,0-5.06-0.84-6.74-2.52c-1.69-1.68-2.52-3.92-2.52-6.71V45.39
								c0-2.81,0.84-5.06,2.52-6.74c1.68-1.68,3.92-2.52,6.74-2.52h25.49v5.04l-2.8,2.8h-19.32c-2.44,0-3.65,1.22-3.65,3.65v16.26
								c0,2.42,1.22,3.63,3.65,3.63h22.12v7.85H123.06z"/>
						</g>
					</g>
				</g>
				<g>
					<g transform="translate(164.986873, 28.165823)">
						<g>
							<path fill="#005994" d="M144.04,43.98h-14.56v-7.85h38.1v5.04l-2.8,2.8h-11.78v31.39h-8.95V43.98z"/>
						</g>
					</g>
				</g>
				<g>
					<g transform="translate(187.233593, 28.165823)">
						<g>
							<path fill="#005994" d="M159.88,75.93c-2.82,0-5.06-0.84-6.74-2.52c-1.69-1.68-2.52-3.92-2.52-6.74V36.13h8.98v28.3
								c0,2.44,1.2,3.65,3.63,3.65h13.45c2.44,0,3.65-1.22,3.65-3.65v-28.3h8.95v30.54c0,2.82-0.84,5.06-2.52,6.74
								c-1.69,1.69-3.92,2.52-6.71,2.52H159.88z"/>
						</g>
					</g>
				</g>
			</g>
		</g>
	</g>
</g>
</svg>
