<?xml version="1.0" encoding="UTF-8"?>
<svg id="a" data-name="Layer 1" xmlns="http://www.w3.org/2000/svg" xmlns:xlink="http://www.w3.org/1999/xlink" viewBox="0 0 500 500">
  <defs>
    <clipPath id="b">
      <rect x="135.43" y="134.44" width="10.47" height="2.58" style="fill: none;"/>
    </clipPath>
    <clipPath id="c">
      <rect x="131.94" y="355.19" width="13.96" height="3.09" style="fill: none;"/>
    </clipPath>
    <clipPath id="d">
      <rect x="109.25" y="353.44" width="17.45" height="4.83" style="fill: none;"/>
    </clipPath>
    <clipPath id="e">
      <rect x="123.21" y="356.93" width="12.22" height="1.34" style="fill: none;"/>
    </clipPath>
    <clipPath id="f">
      <rect x="100.52" y="353.44" width="17.45" height="4.83" style="fill: none;"/>
    </clipPath>
    <clipPath id="g">
      <rect x="16" y="222.54" width="4.24" height="17.45" style="fill: none;"/>
    </clipPath>
    <clipPath id="h">
      <rect x="16" y="240" width="2.5" height="17.45" style="fill: none;"/>
    </clipPath>
    <clipPath id="i">
      <rect x="107.51" y="134.44" width="8.73" height="2.58" style="fill: none;"/>
    </clipPath>
    <clipPath id="j">
      <rect x="114.49" y="134.44" width="13.96" height="2.58" style="fill: none;"/>
    </clipPath>
    <clipPath id="k">
      <rect x="119.72" y="134.44" width="15.71" height="2.58" style="fill: none;"/>
    </clipPath>
    <clipPath id="l">
      <rect x="124.96" y="134.44" width="15.71" height="2.58" style="fill: none;"/>
    </clipPath>
    <clipPath id="m">
      <rect x="208.73" y="194.62" width="12.78" height="19.2" style="fill: none;"/>
    </clipPath>
    <clipPath id="n">
      <rect x="201.75" y="288.86" width="188.49" height="17.45" style="fill: none;"/>
    </clipPath>
    <clipPath id="o">
      <rect x="105.76" y="231.27" width="375.24" height="64.58" style="fill: none;"/>
    </clipPath>
  </defs>
  <path d="M38.1,179.52c-.18.18-.27.36-.45.54,0,.09-.09.09-.09.18l.54-.72Z" style="fill: #fff;"/>
  <g style="clip-path: url(#b);">
    <path d="M141.14,135.33c-.62-.1-1.16-.1-1.79-.18-.8-.09-1.6-.18-2.41-.27,2.59.35,5.98.72,8.57,1.07-1.42-.35-2.86-.53-4.38-.62Z" style="fill: #fff;"/>
  </g>
  <path d="M147.03,136.76c-.89-.09-1.43-.18-1.79-.27-.98-.36-1.96-.63-3.04-.89,0,0-.09,0-.09-.09q.18,0,.89.09c2.77.27,5.54.72,8.22,1.34l2.32.54.53.09c1.17.27,2.24.63,3.22.98,0,0,.09,0,.09.09-.18,0-.27,0-.89-.18-3.22-.72-6.34-1.25-9.46-1.7Z" style="fill: #fff;"/>
  <path d="M163.55,140.42c-1.17-.35-1.52-.54-1.79-.63-.63-.27-1.25-.44-1.87-.62,2.95.98,6.87,2.32,9.73,3.39-2.05-.8-4.02-1.51-6.07-2.14Z" style="fill: #fff;"/>
  <path d="M151.23,139.26c-.89-.18-1.42-.27-1.7-.45-.62-.53-1.34-.98-2.14-1.42v-.09c.27,0,.45,0,.98.09,3.22.35,6.43.98,9.56,1.7.8.18,1.42.35,1.78.53.99.45,1.79,1.07,2.5,1.7v.09c-.18,0-.44,0-1.07-.18-3.31-.8-6.61-1.43-9.91-1.96Z" style="fill: #fff;"/>
  <path d="M168.64,143.45c-.89-.27-1.42-.53-1.7-.71-.8-.63-1.7-1.25-2.68-1.79,0,0,0-.09-.09-.09.18,0,.27,0,.98.27,3.04.98,6.07,2.14,9.02,3.48.98.44,1.43.62,1.7.8,1.16.63,2.14,1.25,2.95,1.97v.09c-.18,0-.27,0-.98-.36-2.95-1.42-5.98-2.58-9.2-3.66Z" style="fill: #fff;"/>
  <path d="M153.73,142.65c-.89-.18-1.43-.35-1.61-.53-.35-.72-.72-1.34-1.25-1.96v-.09c.27-.09.63,0,1.16.09,3.4.53,6.69,1.16,10,2.05.89.27,1.43.44,1.7.72.62.72,1.07,1.42,1.42,2.23,0,0,0,.09-.09.09-.27,0-.53,0-1.25-.18-3.22-.98-6.69-1.7-10.09-2.41Z" style="fill: #fff;"/>
  <path d="M171.77,147.56c-.89-.36-1.43-.63-1.61-.89-.36-.8-.89-1.61-1.52-2.32v-.09c.27-.09.54,0,1.07.18,3.22,1.08,6.34,2.32,9.37,3.75.8.36,1.34.72,1.61.99.72.8,1.25,1.69,1.7,2.58v.09c-.18,0-.54-.09-1.16-.35-3.04-1.42-6.25-2.77-9.46-3.93Z" style="fill: #fff;"/>
  <path d="M185.34,151.67l-.18-.18v-.09c.09,0,.09-.09.54.18l-.36.09Z" style="fill: #fff;"/>
  <path d="M154.44,146.94c-.98-.18-1.43-.44-1.52-.72,0-.89-.09-1.6-.27-2.41.09-.09.18-.27,1.42-.09,3.48.71,6.88,1.51,10.27,2.5.89.27,1.43.54,1.52.8.18.89.27,1.79.27,2.77-.09.27-.53.18-1.42-.09-3.4-.98-6.78-1.96-10.27-2.77Z" style="fill: #fff;"/>
  <path d="M153.19,151.94c-.89-.27-1.34-.54-1.34-.89.35-.98.63-1.87.8-2.77.18-.18.62-.18,1.51,0,3.48.89,6.88,1.87,10.27,3.03.89.35,1.34.63,1.34.98-.18,1.07-.54,2.14-.89,3.21-.18.27-.72.27-1.61-.09-3.21-1.34-6.61-2.5-10.09-3.48Z" style="fill: #fff;"/>
  <path d="M101.77,192.12c-.27-.72-.18-1.25.27-1.52,1.87-.89,3.84-1.69,5.71-2.67.54-.18.98.09,1.43.71,1.51,2.68,3.03,5.36,4.55,8.22.35.72.27,1.34-.27,1.61-2.23,1.07-4.37,2.14-6.61,3.12-.63.18-1.07-.09-1.51-.8-1.17-3.04-2.41-5.9-3.57-8.67Z" style="fill: #fff;"/>
  <path d="M91.14,196.4c-.18-.8,0-1.34.54-1.61,1.96-.72,3.93-1.52,5.8-2.32.54-.09.98.18,1.25.89,1.08,2.86,2.15,5.81,3.31,8.75.27.8.09,1.34-.45,1.7-2.23.98-4.55,1.87-6.78,2.68-.63.18-1.07-.18-1.34-.98-.8-3.13-1.61-6.16-2.32-9.11Z" style="fill: #fff;"/>
  <path d="M80.42,199.89c0-.8.18-1.34.72-1.52,1.96-.63,3.93-1.16,5.9-1.87.53-.09.89.18,1.07.98.63,3.03,1.25,6.07,1.96,9.29.09.8-.09,1.43-.72,1.7-2.32.8-4.55,1.51-6.87,2.14-.63.09-.98-.27-1.17-1.16-.27-3.22-.62-6.43-.89-9.55Z" style="fill: #fff;"/>
  <path d="M82.48,217.2c-.09-.89.18-1.42.8-1.7,2.41-.71,4.82-1.51,7.23-2.32.63-.09,1.08.18,1.43,1.07.8,3.22,1.61,6.52,2.5,9.82.18.89-.09,1.51-.72,1.87-2.68.89-5.36,1.7-8.04,2.5-.72.09-1.16-.27-1.42-1.17-.72-3.39-1.25-6.69-1.79-10.09Z" style="fill: #fff;"/>
  <path d="M69.89,202.47c.09-.89.45-1.34.89-1.6,1.96-.36,3.84-.8,5.8-1.34.54-.09.8.36.89,1.16.09,3.22.27,6.43.63,9.74,0,.89-.27,1.43-.89,1.61-2.23.62-4.55,1.16-6.78,1.6-.63.1-.89-.35-.98-1.25.09-3.3.18-6.61.44-9.91Z" style="fill: #fff;"/>
  <path d="M69.62,220.42c0-.89.35-1.43.98-1.7,2.32-.54,4.73-1.07,7.14-1.7.62-.09.98.27,1.16,1.16.35,3.4.89,6.79,1.42,10.18.09.98-.18,1.52-.89,1.79-2.67.72-5.26,1.34-7.94,1.87-.72,0-1.07-.35-1.25-1.25-.35-3.48-.53-6.87-.62-10.36Z" style="fill: #fff;"/>
  <path d="M71.05,239.08c0-.98.27-1.52.98-1.79,2.68-.53,5.45-1.25,8.22-1.87.72-.09,1.25.27,1.43,1.16.63,3.48,1.42,6.97,2.14,10.54.09.98-.18,1.51-.89,1.79-2.95.8-5.89,1.42-8.84,2.05-.8.09-1.25-.35-1.52-1.25-.63-3.48-1.16-7.06-1.52-10.63Z" style="fill: #fff;"/>
  <path d="M74.17,258.1c-.09-.98.18-1.52.98-1.79,3.03-.63,6.07-1.34,9.11-2.15.8-.09,1.34.27,1.69,1.17.89,3.48,1.88,7.05,2.95,10.53.18.89-.09,1.52-.89,1.87-3.22.8-6.34,1.61-9.56,2.24-.8.09-1.42-.36-1.79-1.25-.98-3.48-1.79-7.05-2.5-10.62Z" style="fill: #fff;"/>
  <path d="M85.51,295.42c-.27-.89,0-1.42.8-1.7,3.3-.72,6.61-1.51,10-2.32.89-.18,1.51.18,2.05,1.07.89,2.05,1.79,4.1,2.68,6.16.53,1.25,1.16,2.5,1.7,3.75.27.89.09,1.42-.8,1.69-3.31.89-6.69,1.7-10,2.32-.89.09-1.61-.27-2.05-1.07-.63-1.25-1.16-2.5-1.7-3.75-.98-2.05-1.87-4.11-2.68-6.16Z" style="fill: #fff;"/>
  <path d="M93.46,312.48c-.36-.8-.09-1.34.71-1.52,3.31-.72,6.61-1.52,9.91-2.32.89-.18,1.61.18,2.05.89,1.52,2.95,3.13,5.81,4.64,8.49.36.71.1,1.25-.71,1.51-3.31.8-6.52,1.61-9.74,2.24-.89.09-1.52-.18-2.05-.89-1.52-2.59-3.22-5.36-4.82-8.39Z" style="fill: #fff;"/>
  <path d="M102.39,327.03c-.35-.62-.18-1.07.63-1.34,3.12-.63,6.34-1.43,9.55-2.23.89-.18,1.52.09,2.06.71,1.6,2.5,3.21,4.83,4.82,7.06.35.63.18.98-.63,1.25-3.03.8-6.16,1.52-9.2,2.15-.8.09-1.51-.09-2.05-.63-1.7-2.23-3.4-4.55-5.18-6.97Z" style="fill: #fff;"/>
  <path d="M111.94,338.73c-.45-.54-.27-.89.44-1.07,2.95-.63,5.9-1.34,8.93-2.14.8-.18,1.51,0,1.96.53,1.61,1.96,3.21,3.75,4.91,5.45.36.45.18.8-.53,1.07-2.77.72-5.54,1.34-8.3,1.96-.8.09-1.43,0-1.96-.44-1.79-1.7-3.66-3.4-5.45-5.36Z" style="fill: #fff;"/>
  <path d="M121.76,347.48c-.44-.36-.27-.63.36-.8,2.68-.54,5.36-1.17,8.03-1.87.72-.18,1.34-.09,1.87.27,1.61,1.42,3.22,2.68,4.83,3.75.35.27.27.54-.36.72-2.41.62-4.91,1.25-7.32,1.7-.71.09-1.25,0-1.79-.18-1.87-.98-3.75-2.14-5.62-3.57Z" style="fill: #fff;"/>
  <path d="M131.85,353.28c-.53-.27-.27-.45,0-.45,0,0,.09-.09.18-.09,2.32-.53,4.55-1.07,6.97-1.6.63-.18,1.16-.1,1.7.09,1.51.89,3.12,1.51,4.64,2.05q.18.09.18.27c-.09.09-.18.09-.44.18-1.97.54-4.02.98-5.99,1.43-.53.09-1.07.09-1.61,0-1.96-.54-3.84-1.07-5.62-1.87Z" style="fill: #fff;"/>
  <path d="M141.68,355.87q-.18,0-.27-.09v-.1q.09-.09.27-.09c1.87-.35,3.75-.8,5.62-1.34.54-.09.98-.18,1.43-.09,1.42.27,2.95.35,4.37.27h.18v.09c-.09,0-.18.09-.18.09-1.51.36-3.03.72-4.55,1.07-.44.1-.89.18-1.42.18-1.79.18-3.57.18-5.45,0Z" style="fill: #fff;"/>
  <path d="M154.44,354.44c-.8.18-1.61.35-2.32.54.8-.18,1.61-.27,2.32-.54Z" style="fill: #fff;"/>
  <path d="M59.97,204.08c.18-.89.54-1.34.98-1.52,1.7-.18,3.48-.44,5.36-.8.45,0,.72.44.63,1.25-.36,3.31-.63,6.61-.72,10-.09.89-.44,1.42-.98,1.61-2.14.35-4.2.62-6.16.89-.53,0-.71-.44-.71-1.34.44-3.4.98-6.78,1.6-10.09Z" style="fill: #fff;"/>
  <path d="M57.57,222.3c.18-.89.44-1.43.98-1.61,2.05-.27,4.28-.53,6.52-.98.53,0,.89.45.98,1.34,0,3.48.09,6.97.27,10.45,0,.98-.35,1.51-.98,1.7-2.5.44-4.91.8-7.23,1.07-.62,0-.98-.45-.98-1.43,0-3.48.18-7.05.45-10.53Z" style="fill: #fff;"/>
  <path d="M57.21,241.31c0-.89.36-1.51.98-1.6,2.41-.27,4.92-.63,7.51-1.07.71,0,1.07.35,1.25,1.34.35,3.57.8,7.14,1.34,10.72.09.98-.27,1.51-.98,1.69-2.77.45-5.54.8-8.13,1.17-.71,0-1.07-.45-1.25-1.43-.35-3.66-.63-7.23-.72-10.81Z" style="fill: #fff;"/>
  <path d="M58.9,260.51c-.09-.98.27-1.51.89-1.7,2.68-.27,5.45-.71,8.3-1.16.8,0,1.25.45,1.52,1.34.72,3.57,1.42,7.14,2.32,10.62.18.98-.18,1.52-.89,1.7-3.03.54-5.98.89-8.75,1.25-.8,0-1.25-.44-1.52-1.42-.72-3.4-1.34-7.06-1.87-10.63Z" style="fill: #fff;"/>
  <path d="M62.83,279.62c-.18-.89.1-1.43.8-1.7,2.86-.35,5.81-.72,8.84-1.25.8-.09,1.42.35,1.79,1.25.98,3.48,2.14,6.97,3.39,10.36.27.89,0,1.52-.8,1.7-3.13.54-6.16.98-9.11,1.34-.8,0-1.34-.45-1.7-1.34-1.25-3.39-2.32-6.87-3.22-10.36Z" style="fill: #fff;"/>
  <path d="M68.82,298.01c-.27-.89,0-1.43.72-1.61,2.95-.35,5.98-.8,9.11-1.34.89,0,1.51.35,1.96,1.16.8,2.05,1.7,4.1,2.68,6.16.53,1.25,1.16,2.5,1.69,3.75.36.8.1,1.34-.71,1.6-3.13.54-6.25.99-9.11,1.34-.8,0-1.43-.35-1.96-1.25-.63-1.25-1.17-2.41-1.79-3.66-.89-1.97-1.79-4.02-2.59-6.16Z" style="fill: #fff;"/>
  <path d="M76.94,315.15c-.36-.8-.18-1.25.53-1.42,2.95-.35,5.99-.8,9.11-1.34.89-.09,1.52.27,2.05,1.08,1.61,2.95,3.31,5.8,5,8.48.35.72.18,1.16-.63,1.34-3.03.54-6.07.89-8.93,1.25-.8,0-1.42-.27-1.96-.98-1.79-2.68-3.48-5.45-5.17-8.4Z" style="fill: #fff;"/>
  <path d="M86.49,329.53c-.44-.63-.27-1.07.45-1.16,2.86-.36,5.71-.8,8.75-1.25.89-.09,1.52.18,2.05.8,1.79,2.41,3.57,4.73,5.45,6.88.36.53.27.98-.44,1.16-2.95.54-5.71.89-8.39,1.25-.8,0-1.43-.27-2.06-.8-1.96-2.15-3.93-4.47-5.8-6.88Z" style="fill: #fff;"/>
  <path d="M97.12,341.05c-.45-.54-.36-.8.27-.89,2.68-.36,5.36-.72,8.22-1.17.8-.09,1.42.09,2.05.63,1.87,1.87,3.84,3.66,5.71,5.27.45.44.36.72-.27.89-2.68.44-5.18.8-7.68,1.07-.72,0-1.34-.18-1.97-.54-2.23-1.6-4.28-3.39-6.33-5.26Z" style="fill: #fff;"/>
  <path d="M108.46,349.62c-.72-.54-.18-.63.09-.72,2.32-.27,4.82-.63,7.41-1.07.72-.09,1.34.09,1.96.35,1.96,1.34,3.93,2.5,5.9,3.57.53.36.27.54.09.54h-.18c-2.32.35-4.55.72-6.69.98-.62,0-1.25-.09-1.87-.27-2.23-.99-4.47-2.15-6.69-3.4Z" style="fill: #fff;"/>
  <path d="M120.42,355.07q-.36-.18-.45-.27.09-.09.36-.09c2.05-.27,4.19-.53,6.34-.89.62-.09,1.16,0,1.79.18,1.96.71,3.93,1.34,5.89,1.79.18.09.27.09.35.09v.09c-.09,0-.18.09-.35.09-1.87.35-3.75.63-5.45.8-.54.09-1.07,0-1.7-.09-2.23-.45-4.55-.98-6.78-1.7Z" style="fill: #fff;"/>
  <g style="clip-path: url(#c);">
    <path d="M132.57,357.3c-.35,0-.44,0-.54-.09.1,0,.18,0,.18-.09,1.69-.18,3.39-.44,5.17-.72.54-.09,1.07-.09,1.61,0,1.96.18,3.93.18,5.8,0h.36c-.09,0-.09.09-.18.09-.44.09-.89.18-1.34.18-1.79.18-4.2.53-5.98.71-1.7,0-3.4,0-5.09-.09Z" style="fill: #fff;"/>
  </g>
  <path d="M51.49,204.44c.27-.89.63-1.34,1.07-1.42,1.43,0,2.95,0,4.55-.18.36.09.54.53.36,1.34-.72,3.31-1.43,6.69-1.87,10.18-.18.89-.54,1.43-.98,1.52-1.88.09-3.66.18-5.36.18-.45-.09-.54-.54-.36-1.52.72-3.3,1.61-6.69,2.59-10.09Z" style="fill: #fff;"/>
  <path d="M47.2,222.83c.18-.89.54-1.42.99-1.51,1.78,0,3.66,0,5.62-.18.53.09.71.53.71,1.42-.35,3.48-.62,7.06-.71,10.63-.09.89-.45,1.42-.98,1.6-2.15.18-4.29.18-6.25.18-.54-.1-.72-.63-.72-1.52.27-3.57.72-7.14,1.34-10.63Z" style="fill: #fff;"/>
  <path d="M45.24,241.85c.09-.89.36-1.43.98-1.52,2.06,0,4.2,0,6.43-.18.63,0,.89.54.98,1.43,0,3.57.18,7.23.54,10.8,0,.99-.27,1.52-.89,1.61-2.41.18-4.73.18-6.96.18-.63-.09-.89-.62-.99-1.51-.18-3.57-.18-7.23-.09-10.81Z" style="fill: #fff;"/>
  <path d="M45.78,261.14c0-.98.27-1.43.8-1.52,2.32,0,4.64,0,7.14-.18.62,0,1.07.54,1.25,1.52.44,3.57,1.07,7.14,1.79,10.71.09.89-.18,1.43-.8,1.61-2.59.18-5.09.27-7.5.27-.63-.09-1.07-.62-1.25-1.51-.62-3.66-1.07-7.23-1.42-10.89Z" style="fill: #fff;"/>
  <path d="M48.81,280.25c-.18-.89.09-1.34.72-1.52,2.41,0,4.91-.09,7.59-.18.72.09,1.25.53,1.52,1.42.89,3.48,1.87,6.97,3.03,10.45.27.89,0,1.42-.72,1.51-2.77.18-5.35.27-7.85.18-.63-.1-1.16-.54-1.52-1.43-.98-3.4-1.96-6.87-2.77-10.44Z" style="fill: #fff;"/>
  <path d="M54.53,298.73c-.27-.89-.09-1.34.54-1.43,2.5,0,5.09-.09,7.86-.27.71.09,1.34.53,1.69,1.34.8,2.06,1.7,4.11,2.59,6.16.54,1.25,1.16,2.5,1.7,3.75.35.8.18,1.34-.54,1.43-2.77.18-5.35.27-7.85.27-.72-.09-1.25-.54-1.79-1.34-.63-1.16-1.16-2.41-1.7-3.66-.89-2.14-1.7-4.19-2.5-6.24Z" style="fill: #fff;"/>
  <path d="M62.65,315.78c-.35-.8-.27-1.16.36-1.25,2.5,0,5.09-.09,7.85-.27.8,0,1.34.44,1.87,1.16,1.7,2.95,3.48,5.71,5.27,8.39.44.72.27,1.07-.36,1.25-2.67.18-5.17.27-7.68.27-.72-.1-1.34-.45-1.87-1.17-1.87-2.59-3.75-5.45-5.45-8.39Z" style="fill: #fff;"/>
  <path d="M72.74,330.16c-.44-.63-.44-.98.18-.98,2.41,0,4.92-.09,7.59-.27.71,0,1.34.36,1.96.98,1.96,2.41,3.93,4.74,5.98,6.79.45.53.36.89-.18.98-2.5.18-4.91.27-7.23.18-.63-.09-1.25-.35-1.96-.89-2.23-2.05-4.29-4.29-6.34-6.78Z" style="fill: #fff;"/>
  <path d="M84.26,341.67c-.72-.72-.36-.8,0-.8,2.23,0,4.55-.09,7.05-.18.72,0,1.34.27,1.96.72,2.15,1.87,4.29,3.57,6.52,5.18.71.53.27.71,0,.71-2.32.18-4.47.18-6.52.18-.62,0-1.25-.27-1.96-.63-2.41-1.61-4.73-3.31-7.05-5.18Z" style="fill: #fff;"/>
  <path d="M97.03,350.15c-.36-.18-.36-.27-.54-.44v-.09h.27c2.05,0,4.11-.09,6.34-.18.63,0,1.25.18,1.87.53,2.24,1.25,4.55,2.41,6.88,3.4q.35.18.44.35c-.09.09-.18.09-.27.09-1.96.1-3.93.18-5.71.18-.54,0-1.17-.18-1.87-.36-2.41-1.07-5-2.14-7.41-3.48Z" style="fill: #fff;"/>
  <g style="clip-path: url(#d);">
    <path d="M110.6,355.51c-.35-.09-.44-.09-.62-.27.09,0,.18-.09.18-.09,1.7,0,3.57-.09,5.45-.18.53,0,1.16.09,1.79.27,2.32.72,4.73,1.25,7.14,1.61q.45.09.54.18c-.09,0-.18.09-.27.09-1.61.09-3.22.18-4.74.18-.44,0-1.07-.09-1.78-.18-2.5-.35-5.09-.89-7.68-1.61Z" style="fill: #fff;"/>
  </g>
  <g style="clip-path: url(#e);">
    <path d="M124.17,357.66h-.18.18c1.42,0,2.86-.1,4.38-.18h1.7c1.25.09,2.5.09,3.75,0-2.95.09-6.88.18-9.82.18Z" style="fill: #fff;"/>
  </g>
  <path d="M44.44,203.81c.36-.8.72-1.25,1.08-1.34,1.16.18,2.41.36,3.75.45.35.09.35.63.09,1.42-1.07,3.4-2.05,6.7-2.95,10.18-.27.89-.63,1.34-1.08,1.43-1.51-.09-3.03-.27-4.37-.54-.36-.18-.36-.71-.18-1.6,1.07-3.4,2.32-6.7,3.65-10Z" style="fill: #fff;"/>
  <path d="M38.55,222.03c.27-.89.54-1.34.98-1.43,1.43.27,3.03.44,4.64.54.45.09.54.62.45,1.51-.63,3.48-1.17,7.06-1.61,10.63-.18.98-.45,1.42-.98,1.42-1.79-.09-3.57-.35-5.18-.62-.44-.18-.53-.72-.44-1.61.62-3.48,1.34-6.97,2.14-10.44Z" style="fill: #fff;"/>
  <path d="M35.33,240.96c.09-.89.44-1.42.89-1.42,1.69.27,3.48.53,5.35.62.45.09.72.63.72,1.61-.18,3.57-.27,7.23-.18,10.81,0,.89-.27,1.42-.8,1.51-2.05-.18-3.93-.35-5.71-.71-.45-.18-.72-.72-.72-1.7-.09-3.57.09-7.14.45-10.72Z" style="fill: #fff;"/>
  <path d="M34.88,260.16c0-.89.27-1.43.72-1.43,1.87.36,3.84.54,5.89.72.54.09.89.63.98,1.61.27,3.57.72,7.14,1.25,10.71.09.89-.18,1.43-.72,1.43-2.14-.18-4.29-.44-6.16-.72-.53-.18-.89-.72-1.07-1.7-.44-3.48-.72-7.05-.89-10.62Z" style="fill: #fff;"/>
  <path d="M37.21,279.17c-.09-.89.09-1.34.53-1.34,1.96.35,4.11.63,6.34.8.63.09.98.63,1.25,1.61.8,3.48,1.7,6.96,2.77,10.44.18.89.1,1.34-.53,1.43-2.32-.18-4.47-.45-6.43-.8-.54-.18-.98-.72-1.25-1.61-1.08-3.57-1.97-7.06-2.68-10.54Z" style="fill: #fff;"/>
  <path d="M42.56,297.56c-.27-.89-.18-1.25.27-1.25,2.05.35,4.19.63,6.52.8.62.09,1.16.63,1.51,1.52.8,2.05,1.61,4.1,2.59,6.16.54,1.25,1.17,2.5,1.79,3.66.36.8.27,1.25-.35,1.25-2.32-.18-4.47-.45-6.52-.8-.54-.18-1.07-.63-1.52-1.52-.63-1.25-1.16-2.5-1.79-3.75-.89-1.87-1.7-3.93-2.5-6.07Z" style="fill: #fff;"/>
  <path d="M50.78,314.71c-.44-.72-.35-1.16.09-1.16,2.06.35,4.2.62,6.43.8.63.09,1.17.53,1.7,1.34,1.7,2.95,3.57,5.71,5.45,8.39.45.72.36,1.07-.18,1.07-2.23-.18-4.38-.35-6.34-.8-.53-.18-1.07-.53-1.7-1.25-1.79-2.68-3.66-5.45-5.45-8.39Z" style="fill: #fff;"/>
  <path d="M61.32,329.09c-.72-.89-.36-.89-.09-.89,1.96.35,4.02.53,6.24.71.63.1,1.25.45,1.87,1.08,2.06,2.41,4.2,4.73,6.43,6.78.72.72.36.8,0,.8-2.14-.18-4.1-.45-5.98-.72-.54-.18-1.16-.54-1.79-1.07-2.32-1.96-4.55-4.2-6.69-6.69Z" style="fill: #fff;"/>
  <path d="M73.64,340.69c-.35-.27-.53-.44-.53-.62.09-.1.18-.1.27-.1,1.79.36,3.75.54,5.8.72.63.09,1.25.36,1.87.89,2.32,1.87,4.73,3.57,7.14,5.18.35.18.44.27.54.44v.09h-.27c-1.87-.09-3.75-.35-5.45-.62-.53-.09-1.16-.36-1.87-.8-2.5-1.61-5-3.31-7.5-5.18Z" style="fill: #fff;"/>
  <path d="M87.48,349.26c-.53-.27-.63-.35-.63-.44h.18c1.6.27,3.39.44,5.26.63.54.09,1.17.27,1.87.62,2.59,1.34,5.09,2.41,7.77,3.4.35.09.44.18.53.27l-.09.09h-.09c-1.7-.09-3.21-.35-4.73-.53-.44-.09-1.07-.27-1.87-.54-2.77-1.07-5.54-2.23-8.22-3.48Z" style="fill: #fff;"/>
  <g style="clip-path: url(#f);">
    <path d="M102.39,354.71c-.62-.18-.71-.18-.8-.27h.1c1.42.27,2.95.45,4.46.54.54.09,1.08.18,1.87.35,2.68.72,5.36,1.25,8.13,1.61.18,0,.45.09.63.09h-.09c-.63,0-1.16-.09-1.79-.18-2.59-.36-6.07-.89-8.67-1.34-1.16-.09-2.5-.44-3.84-.8Z" style="fill: #fff;"/>
  </g>
  <path d="M38.9,202.12c.45-.8.8-1.25,1.08-1.25.89.35,1.87.71,2.95.98.27.18.18.62-.18,1.51-1.43,3.31-2.68,6.61-3.75,10-.36.89-.63,1.34-.98,1.34-1.25-.36-2.32-.72-3.4-1.17-.27-.18-.18-.71.09-1.6,1.16-3.31,2.59-6.61,4.19-9.82Z" style="fill: #fff;"/>
  <path d="M31.76,219.97c.35-.89.62-1.25.89-1.25,1.07.44,2.32.89,3.57,1.25.27.18.35.72.18,1.61-.89,3.48-1.7,6.97-2.32,10.44-.18.89-.44,1.34-.89,1.34-1.42-.36-2.77-.8-4.02-1.34-.35-.27-.35-.8-.18-1.69.89-3.48,1.79-6.97,2.77-10.36Z" style="fill: #fff;"/>
  <path d="M27.56,238.54c.18-.89.45-1.34.8-1.25,1.25.54,2.68.98,4.11,1.43.35.27.53.8.44,1.69-.44,3.57-.63,7.14-.8,10.72-.09.89-.27,1.34-.72,1.34-1.6-.45-3.12-.99-4.46-1.52-.36-.27-.54-.8-.54-1.79.27-3.57.63-7.06,1.16-10.63Z" style="fill: #fff;"/>
  <path d="M26.31,257.56c0-.89.18-1.34.53-1.25,1.43.62,2.95,1.16,4.55,1.51.45.18.72.8.8,1.7.18,3.57.45,7.14.89,10.72.09.89-.09,1.34-.53,1.34-1.7-.44-3.31-.98-4.83-1.6-.35-.27-.62-.8-.8-1.79-.36-3.57-.63-7.14-.63-10.63Z" style="fill: #fff;"/>
  <path d="M28.1,276.4c-.09-.89,0-1.25.35-1.25,1.52.63,3.13,1.16,4.91,1.7.45.18.8.8,1.08,1.7.71,3.48,1.51,6.96,2.58,10.36.18.89.1,1.34-.35,1.25-1.79-.44-3.48-1.07-5-1.69-.45-.27-.8-.8-1.08-1.79-.98-3.31-1.78-6.79-2.5-10.27Z" style="fill: #fff;"/>
  <path d="M33.19,294.8c-.27-.89-.27-1.25.09-1.16,1.52.63,3.22,1.25,5,1.7.53.18.98.72,1.34,1.61.8,2.05,1.61,4.1,2.59,6.16.54,1.25,1.16,2.5,1.79,3.66.35.8.35,1.17-.09,1.17-1.79-.45-3.48-1.08-5-1.7-.44-.27-.89-.8-1.34-1.61-.63-1.25-1.16-2.41-1.79-3.66-.98-2.05-1.79-4.1-2.59-6.16Z" style="fill: #fff;"/>
  <path d="M41.49,311.85c-.53-.98-.35-1.07-.09-.98,1.52.63,3.22,1.25,5,1.7.53.18,1.07.71,1.51,1.51,1.79,2.95,3.66,5.72,5.62,8.39.63.89.36.98.09.89-1.78-.44-3.39-1.07-4.91-1.69-.44-.18-.89-.72-1.52-1.43-1.96-2.59-3.93-5.45-5.71-8.39Z" style="fill: #fff;"/>
  <path d="M52.39,326.41c-.35-.45-.44-.63-.53-.8,0,0,.09,0,.09-.09h.09c1.51.62,3.12,1.16,4.82,1.7.54.18,1.07.53,1.7,1.25,2.14,2.41,4.47,4.73,6.78,6.87.36.36.54.54.54.63-.09.09-.18.09-.18.09-1.7-.44-3.22-.98-4.65-1.61-.44-.18-.98-.62-1.6-1.16-2.5-2.14-4.82-4.47-7.06-6.87Z" style="fill: #fff;"/>
  <path d="M65.33,338.1c-.44-.35-.53-.44-.72-.53h.09c1.43.62,2.86,1.07,4.55,1.51.54.18,1.08.54,1.79.99,2.5,1.87,5.09,3.65,7.68,5.17q.62.36.62.54h-.18c-1.52-.36-2.95-.89-4.19-1.43-.45-.18-.98-.53-1.7-.98-2.68-1.52-5.36-3.3-7.95-5.27Z" style="fill: #fff;"/>
  <path d="M79.98,346.94c-.27-.09-.54-.27-.8-.45h.09c1.25.54,2.59.99,4.02,1.43.44.18,1.07.35,1.79.72,2.77,1.34,5.54,2.5,8.48,3.48.62.18.72.27.8.27h-.09c-.54-.18-1.08-.27-1.52-.45-3.57-1.34-8.3-3.12-11.7-4.64-.44,0-.72-.18-1.07-.35Z" style="fill: #fff;"/>
  <path d="M98.81,353.91c.45.09.99.27,1.43.35l-1.43-.35q-.09,0,0,0Z" style="fill: #fff;"/>
  <path d="M34.88,199.44c.27-.44.63-.98.98-1.07.63.63,1.34,1.07,2.05,1.61.18.18,0,.71-.35,1.51-1.61,3.22-3.12,6.43-4.47,9.82-.35.89-.62,1.25-.98,1.16-.89-.53-1.7-1.16-2.32-1.79-.18-.27,0-.8.35-1.7,1.43-3.21,3.03-6.43,4.73-9.55Z" style="fill: #fff;"/>
  <path d="M27.03,216.76c.35-.89.62-1.25.8-1.16.72.71,1.52,1.34,2.5,1.87.18.27.18.8-.09,1.69-1.07,3.4-2.05,6.79-2.86,10.27-.27.89-.44,1.34-.8,1.25-1.07-.63-1.96-1.34-2.77-2.05-.18-.27-.18-.89,0-1.79.98-3.48,1.96-6.79,3.22-10.09Z" style="fill: #fff;"/>
  <path d="M22.12,234.88c.18-.89.36-1.25.63-1.07.8.8,1.79,1.52,2.86,2.15.27.27.35.8.18,1.79-.53,3.48-.98,7.05-1.16,10.53-.09.89-.27,1.34-.63,1.25-1.16-.71-2.23-1.51-3.12-2.32-.27-.36-.35-.89-.27-1.87.35-3.57.89-7.06,1.51-10.45Z" style="fill: #fff;"/>
  <path d="M20.24,253.46c0-.63.09-.98.27-1.17h.18c.89.89,1.96,1.7,3.21,2.32.36.27.45.89.54,1.87,0,3.48.18,7.06.53,10.62.09.89-.09,1.25-.35,1.17-1.25-.8-2.32-1.61-3.31-2.5-.27-.35-.44-.98-.53-1.87-.45-3.48-.54-6.97-.54-10.44Z" style="fill: #fff;"/>
  <path d="M21.67,272.12c-.09-.72-.09-.98,0-1.16h.09c.98.89,2.14,1.79,3.4,2.5.35.27.62.89.8,1.87.63,3.48,1.43,6.97,2.41,10.36.27,1.16.09,1.25-.18,1.16-1.25-.8-2.41-1.7-3.48-2.59-.27-.35-.53-.89-.8-1.87-.8-3.4-1.61-6.87-2.23-10.27Z" style="fill: #fff;"/>
  <path d="M26.58,290.34c-.18-.54-.27-.8-.27-.98,0,0,.09,0,.09-.1,0,0,.09,0,.09.1.98.98,2.14,1.78,3.48,2.58.35.27.72.89,1.07,1.79.8,2.05,1.61,4.11,2.5,6.16.53,1.25,1.16,2.5,1.79,3.75.27.54.27.72.35.98l-.09.09h-.09c-1.34-.8-2.5-1.7-3.48-2.59-.35-.35-.72-.89-1.16-1.79-.63-1.25-1.16-2.5-1.79-3.75-.89-2.14-1.7-4.19-2.5-6.24Z" style="fill: #fff;"/>
  <path d="M34.88,307.48c-.27-.44-.35-.72-.44-.89h.09c.98.89,2.14,1.79,3.48,2.59.35.27.8.8,1.34,1.61,1.79,2.95,3.75,5.8,5.8,8.48.36.44.45.63.54.8l-.09.09h-.09c-1.25-.8-2.41-1.61-3.4-2.59-.35-.35-.72-.8-1.34-1.52-2.06-2.77-4.02-5.62-5.9-8.57Z" style="fill: #fff;"/>
  <path d="M46.05,322.12c-.35-.35-.53-.54-.62-.72,0,0,.09,0,.09.09.98.89,2.14,1.79,3.39,2.5.36.27.89.72,1.52,1.43,2.23,2.5,4.64,4.82,7.06,6.96.44.36.53.54.62.63h-.09c-.89-.54-1.79-1.16-2.5-1.79-2.05-1.87-4.82-4.38-6.78-6.25-.98-1.07-1.87-1.96-2.68-2.86Z" style="fill: #fff;"/>
  <path d="M61.76,336.05c.27.18.63.45,1.61,1.16,2.59,1.97,5.36,3.75,8.13,5.36.18.09.27.18.44.27-3.12-1.97-7.23-4.55-10.27-6.7l-1.79-1.34c.63.44,1.25.8,1.87,1.25Z" style="fill: #fff;"/>
  <path d="M32.74,195.95c.35-.53.53-.8.8-.98h.09c.27.72.62,1.34,1.07,2.05.09.27-.09.72-.54,1.61-1.79,3.13-3.39,6.25-4.91,9.46-.35.72-.63,1.08-.8,1.08-.63-.8-.98-1.52-1.34-2.32-.09-.27.09-.89.53-1.7,1.52-3.21,3.22-6.25,5.09-9.2Z" style="fill: #fff;"/>
  <path d="M24.35,212.47c.27-.53.35-.89.62-1.07h.09c.36.89.8,1.7,1.34,2.5.09.27,0,.8-.27,1.7-1.25,3.3-2.32,6.61-3.22,9.99-.18.72-.35.98-.53,1.17h-.18c-.62-.8-1.07-1.79-1.42-2.68-.09-.36,0-.98.27-1.79.89-3.48,1.96-6.69,3.31-9.82Z" style="fill: #fff;"/>
  <path d="M18.99,229.89c.18-.89.27-.98.44-1.07.45,1.07.89,1.96,1.61,2.86.18.27.18.89,0,1.79-.72,3.4-1.16,6.87-1.52,10.27-.09.72-.18.98-.27,1.16,0,0-.09,0-.09-.09-.72-.98-1.25-1.96-1.7-3.03-.09-.35-.09-.98,0-1.87.27-3.31.8-6.61,1.52-10Z" style="fill: #fff;"/>
  <path d="M16.85,248.01c0-.98.09-.98.18-1.07.44,1.16.98,2.23,1.7,3.21.18.35.27.98.27,1.96-.09,3.48.09,6.97.35,10.36.09.98,0,1.08-.09,1.08,0,0,0-.1-.09-.1-.72-.98-1.34-2.14-1.79-3.3-.09-.45-.27-1.07-.27-1.96-.27-3.4-.36-6.79-.27-10.18Z" style="fill: #fff;"/>
  <path d="M18.1,266.32c-.09-.54-.09-.8-.09-.99.53,1.25,1.16,2.32,1.87,3.4.18.36.35.98.53,1.87.54,3.48,1.34,6.88,2.24,10.27.18.54.18.8.18.98h-.09c-.8-1.07-1.43-2.23-1.87-3.39-.18-.45-.35-1.07-.63-1.96-.89-3.4-1.6-6.79-2.14-10.18Z" style="fill: #fff;"/>
  <path d="M22.48,283.37s.09.09,0,0c.44,1.34,1.07,2.41,1.87,3.57.27.35.53.98.89,1.87.8,2.05,1.6,4.1,2.5,6.16.54,1.25,1.17,2.5,1.79,3.66.27.53.36.71.45.89-.54-.63-.89-1.25-1.25-1.87l-2.86-5.81c-.98-2.5-2.41-5.89-3.39-8.48Z" style="fill: #fff;"/>
  <path d="M32.48,304.18c.35.44.8,1.16,1.07,1.69,1.87,2.95,3.84,5.81,5.89,8.58v.09l-4.1-5.62-3.66-5.81c.27.36.53.72.8,1.08Z" style="fill: #fff;"/>
  <path d="M32.29,191.58c.36-.45.54-.72.72-.89l.09.09c-.09.89-.09,1.69.09,2.41,0,.27-.27.8-.71,1.61-1.88,2.95-3.57,5.89-5.09,8.93-.27.62-.44.8-.63.98,0,0-.09,0-.09-.09-.18-.89-.18-1.87-.09-2.86.09-.36.27-.89.72-1.7,1.42-2.86,3.12-5.71,5-8.48Z" style="fill: #fff;"/>
  <path d="M23.81,207.11c.36-.8.45-.89.54-.89-.09,1.08-.09,2.15.09,3.04,0,.35-.18.89-.54,1.79-1.25,3.12-2.41,6.34-3.39,9.55-.27.89-.36.98-.45.98-.18-1.16-.18-2.23-.09-3.4.09-.35.18-.98.44-1.87.99-3.12,2.15-6.16,3.4-9.2Z" style="fill: #fff;"/>
  <g style="clip-path: url(#g);">
    <path d="M18.45,223.81c.09-.53.18-.71.27-.89-.09,1.25,0,2.41.18,3.57,0,.36,0,.98-.27,1.87-.72,3.31-1.25,6.61-1.61,10-.09.54-.09.72-.18.98-.27-1.25-.27-2.5-.18-3.75,0-.27.09-.53.09-.8l.1-.8v-.27c.27-3.48.89-6.69,1.6-9.91Z" style="fill: #fff;"/>
  </g>
  <g style="clip-path: url(#h);">
    <path d="M16.31,244.26c.09.44.09.98.09,1.96-.09,3.39,0,6.78.27,10.18.09.53.09.72.09.98-.09-.36-.09-.72-.18-.98l-.18-2.41c-.09-3.84-.27-9.02-.18-12.95-.09,1.16,0,2.24.09,3.22Z" style="fill: #fff;"/>
  </g>
  <path d="M75.78,153.01c.27-.09.89-.18,1.17-.27-.18.18-.27.36-.45.54-.09.09-.27.09-.35.18-3.75,1.16-7.23,2.5-10.63,4.11,0,0-.09,0-.18.09.27-.45.63-.89.98-1.34.18-.18.63-.35,1.25-.62,2.67-1.08,5.35-1.97,8.21-2.68Z" style="fill: #fff;"/>
  <path d="M61.67,158.37c.45-.18.63-.27.8-.36-.44.54-.89,1.07-1.25,1.61q-.09.09-.45.27c-3.21,1.79-6.16,3.75-9.02,5.8,0,0-.09,0-.09.1v-.1c.54-.8,1.17-1.51,1.87-2.23.27-.27.63-.54,1.17-.98,2.32-1.52,4.55-2.95,6.96-4.1Z" style="fill: #fff;"/>
  <path d="M49.97,166.31c.36-.27.45-.35.54-.44v.09c-.72.8-1.42,1.7-2.05,2.5-.09.1-.18.18-.45.45-2.58,2.32-5.09,4.73-7.23,7.41v.09s0-.09.09-.09c.62-.8,1.25-1.61,1.96-2.5l2.14-2.41c1.52-1.87,3.22-3.57,5-5.09Z" style="fill: #fff;"/>
  <path d="M76.94,151.94c.8-.18.98-.1.98-.1-.18.18-.36.36-.54.54-.18.09-.27.09-1.25.35-2.77.63-5.36,1.43-7.95,2.32-.53.18-.72.27-.89.27.45-.44.89-.89,1.34-1.34.18-.09.62-.27,1.16-.45,2.32-.71,4.64-1.25,7.14-1.6Z" style="fill: #fff;"/>
  <path d="M64.7,155.42c.63-.27.63-.18.72-.18-.62.54-1.16,1.07-1.7,1.61-.18.18-.53.35-1.25.72-2.32,1.16-4.55,2.41-6.61,3.84-.36.27-.45.27-.63.35v-.09c.72-.8,1.52-1.52,2.41-2.23.27-.27.62-.54,1.16-.8,1.87-1.25,3.84-2.32,5.89-3.22Z" style="fill: #fff;"/>
  <path d="M54.71,161.67c.09-.09.27-.18.35-.35,0,0,0,.09-.09.09-.89.8-1.79,1.7-2.68,2.5-.18.18-.44.44-1.16,1.07-1.17.98-2.32,2.14-3.4,3.21,1.87-1.87,4.47-4.28,6.43-6.16.18-.09.35-.27.54-.35Z" style="fill: #fff;"/>
  <path d="M78.28,150.77h.8c-.18.18-.44.36-.63.54-.09.09-.27.09-1.07.18-2.41.27-4.64.72-6.78,1.34q-.63.18-.72.09c.54-.45,1.07-.89,1.61-1.25.18-.18.53-.27,1.07-.35,1.79-.27,3.66-.54,5.71-.54Z" style="fill: #fff;"/>
  <path d="M68.37,152.47c.36-.18.45-.18.45-.09l-.09.09c-.72.54-1.34,1.07-1.96,1.52-.18.18-.54.35-1.07.53-1.97.8-3.85,1.79-5.54,2.95-.1.09-.27.18-.45.27l.09-.09c.89-.72,1.87-1.52,2.86-2.24.54-.35.89-.62,1.07-.71,1.43-.89,2.95-1.61,4.64-2.24Z" style="fill: #fff;"/>
  <path d="M57.29,159.44c-.27.18-.53.44-.71.62l1.25-1.07c-.18.18-.35.27-.54.45Z" style="fill: #fff;"/>
  <path d="M79.89,149.7c.27,0,.44.09.53.18-.27.18-.53.36-.8.54-.09,0-.18.09-.98,0-1.87-.09-3.76,0-5.45.27h-.54c.63-.44,1.25-.8,1.87-1.25.18-.09.45-.18.89-.18,1.43.09,2.95.18,4.47.44Z" style="fill: #fff;"/>
  <path d="M72.48,149.7h.27l-.09.09c-.8.45-1.52.98-2.23,1.43-.09.09-.36.18-.98.44-1.52.54-2.95,1.17-4.29,1.96-.09.09-.18.09-.27.18l.09-.1c.72-.53,1.51-1.07,2.32-1.51l.72-.45.72-.44c.09-.09.27-.18.35-.27,1.16-.63,2.24-1.08,3.4-1.34Z" style="fill: #fff;"/>
  <path d="M81.59,148.72q.35.27.35.35c-.27.18-.53.36-.8.45-.09,0-.18.09-.72-.09-1.42-.36-2.67-.63-3.93-.63-.09,0-.35,0-.27-.18.63-.35,1.34-.8,2.05-1.16.18-.09.45-.09.63-.09.8.27,1.7.71,2.68,1.34Z" style="fill: #fff;"/>
  <path d="M77.03,147.11h.09v.09c0,.1-.09.1-.18.18-.8.44-1.7.89-2.5,1.34-.27.09-.44.18-.8.27-1.07.18-2.05.54-2.95,1.08h-.09c.89-.54,2.14-1.25,3.12-1.79l1.52-.8c.63-.27,1.16-.36,1.79-.36Z" style="fill: #fff;"/>
  <path d="M83.46,147.83c.09.18.18.35.09.45-.27.18-.63.27-.89.44-.09,0-.27-.09-.45-.27-.8-.72-1.6-1.16-2.32-1.52-.18-.09-.18-.18,0-.27.72-.36,1.42-.72,2.14-1.07.18-.09.36,0,.45.09.18.53.53,1.25.98,2.14Z" style="fill: #fff;"/>
  <path d="M81.94,144.71c0,.09-.09.18-.27.27-.89.44-1.7.8-2.59,1.25-.27.09-.44.18-.63.18-.44-.1-.89,0-1.25.18l2.41-1.17,2.14-.98c-.09-.09,0,0,.18.27Z" style="fill: #fff;"/>
  <path d="M85.33,147.02c-.09.27-.09.54-.18.54-.36.09-.63.27-.89.35-.09,0-.18-.18-.27-.35-.27-.98-.44-1.79-.53-2.41,0-.18.09-.27.27-.35.72-.27,1.52-.63,2.24-.89.18-.09.27,0,.18.18-.36.89-.63,1.79-.8,2.95Z" style="fill: #fff;"/>
  <path d="M86.94,142.65c-.18.18-.36.27-.54.36-.89.35-1.79.72-2.68,1.07-.27.09-.35.09-.35,0,0-.27.09-.44.18-.54l1.7-.71c.89-.36,2.05-.8,3.03-1.25-.54.27-.98.54-1.34,1.07Z" style="fill: #fff;"/>
  <path d="M87.3,146.4c-.27.44-.35.62-.45.62-.27.09-.62.18-.98.27,0-.1,0-.27.1-.45.35-1.25.71-2.23,1.25-3.12.18-.18.27-.36.53-.45.72-.27,1.52-.53,2.24-.72.09,0,.18,0,.09.18l-.18.18c-.98.98-1.87,2.14-2.59,3.48Z" style="fill: #fff;"/>
  <path d="M92.03,140.87c-.27.18-.53.35-.8.44-.89.27-1.79.54-2.77.89q-.18.09-.18,0c0-.09.09-.09.09-.09.54-.54,1.16-.89,1.79-1.16l1.16-.36c1.25-.35,2.86-.98,4.02-1.34,0,0-.09,0-.18.09-1.07.27-2.14.8-3.12,1.52Z" style="fill: #fff;"/>
  <path d="M89.17,145.87c-.54.63-.72.63-.72.72-.35.09-.62.18-.89.27q0-.09.27-.63c.98-1.42,1.96-2.58,3.03-3.66.18-.18.44-.44.8-.53.71-.18,1.42-.36,2.23-.54h.09c-.09.09-.18.18-.35.36-1.61,1.25-3.03,2.5-4.47,4.02Z" style="fill: #fff;"/>
  <path d="M97.12,139.53c-.45.27-.8.35-1.08.45-.89.18-1.78.44-2.67.62h-.1q0-.09.27-.27c1.16-.72,2.32-1.34,3.57-1.7.35-.09.71-.18,1.07-.27,1.34-.36,2.59-.72,3.93-.98h.18q-.09,0-.35.09c-1.7.53-3.31,1.25-4.82,2.05Z" style="fill: #fff;"/>
  <path d="M90.96,145.6c-.72.53-.89.71-.98.71-.27,0-.54.1-.89.18q0-.09.53-.63c1.61-1.52,3.13-2.86,4.83-4.1.44-.27.8-.45.98-.54.72-.18,1.42-.27,2.05-.35-.09.09-.27.18-.63.44-1.87,1.25-3.84,2.68-5.89,4.29Z" style="fill: #fff;"/>
  <path d="M101.85,138.72c-.8.36-1.07.45-1.25.45-.71.09-1.6.27-2.5.44h-.09q0-.09.44-.35c1.7-.89,3.48-1.61,5.27-2.15.18,0,.72-.18,1.34-.27,1.25-.27,2.5-.44,3.66-.62h.09q-.09.09-.53.18c-2.15.62-4.29,1.34-6.43,2.32Z" style="fill: #fff;"/>
  <g style="clip-path: url(#i);">
    <path d="M113.37,135.33c-.44.09-.98.18-1.51.27-1.17.18-2.32.35-3.48.53,2.05-.35,4.73-.71,6.78-.98-.53.09-1.16.09-1.79.18Z" style="fill: #fff;"/>
  </g>
  <path d="M92.57,145.51c-.8.53-.98.62-1.17.71-.27,0-.53,0-.8.09,0-.09.09-.18.8-.71,2.15-1.61,4.29-3.04,6.43-4.29.54-.35.98-.54,1.25-.54.62-.09,1.16-.09,1.79-.09,0,0-.09,0-.8.45-2.5,1.25-5,2.68-7.5,4.38Z" style="fill: #fff;"/>
  <path d="M106.05,138.45c-.71.27-1.16.44-1.34.44-.72,0-1.43.1-2.14.1v-.1c.18-.09.27-.18.62-.35,2.24-.98,4.47-1.79,6.79-2.32.62-.18,1.07-.27,1.42-.27,1.07-.09,2.14-.18,3.12-.18h.1q-.1.09-.72.27c-2.68.63-5.27,1.43-7.86,2.41Z" style="fill: #fff;"/>
  <g style="clip-path: url(#j);">
    <path d="M119.89,134.97c-.98.09-1.34.09-1.6.18-1.08,0-2.24.09-3.48.18h-.09q.09-.1.53-.1c1.17-.18,2.24-.27,3.4-.35,2.77-.18,6.52-.35,9.29-.35h-.27c-2.5-.09-5.18.09-7.77.44Z" style="fill: #fff;"/>
  </g>
  <path d="M93.9,145.51c-.98.53-1.16.62-1.25.71h-.63c0-.09.09-.18.98-.71,2.59-1.61,5.18-3.13,7.86-4.38.71-.36,1.16-.54,1.34-.54.54,0,.98.09,1.43.18-.09.1-.18.18-1.07.54-2.86,1.16-5.81,2.59-8.67,4.2Z" style="fill: #fff;"/>
  <path d="M109.53,138.63c-.8.27-1.25.36-1.52.36-.53-.1-1.16-.1-1.79-.18.1-.09.1-.18.89-.44,2.68-.98,5.36-1.79,8.04-2.41.72-.18,1.25-.27,1.61-.27.89,0,1.79.09,2.59.18v.09c-.18.09-.45.09-.89.27-3.04.71-5.99,1.51-8.93,2.41Z" style="fill: #fff;"/>
  <g style="clip-path: url(#k);">
    <path d="M125.42,135.33c-.8.09-1.34.09-1.7.09-.89-.09-1.87-.18-2.95-.27h-.09c.09-.09.18-.09.8-.18,2.68-.35,5.45-.53,8.13-.44h1.7c1.25.09,2.5.18,3.66.35h.09-.89c-2.86,0-5.81.09-8.75.45Z" style="fill: #fff;"/>
  </g>
  <path d="M94.97,145.87c-1.07.54-1.25.63-1.42.63s-.36-.09-.54-.09c.09-.1.18-.18,1.16-.72,2.95-1.61,5.99-3.04,9.02-4.2.36-.09.98-.35,1.43-.44.53.09.89.18,1.25.35-.09.09-.09.18-1.25.54-3.22.98-6.43,2.32-9.65,3.93Z" style="fill: #fff;"/>
  <path d="M112.3,139.44c-.98.27-1.34.27-1.52.35-.53-.18-.98-.35-1.51-.44.09-.09.18-.18,1.07-.45,3.03-.98,6.07-1.69,9.2-2.23.8-.18,1.34-.18,1.61-.18.71.18,1.42.35,2.05.62-.09,0-.09.1-1.07.18-3.31.53-6.52,1.25-9.82,2.14Z" style="fill: #fff;"/>
  <g style="clip-path: url(#l);">
    <path d="M129.8,136.4c-.89.09-1.43.09-1.7,0-.72-.27-1.42-.45-2.32-.63v-.09c.18-.09.44-.09.89-.09,3.03-.27,6.07-.45,9.11-.36.8,0,1.34.1,1.69.1,1.08.27,1.96.53,2.86.89h-.89c-3.21-.1-6.42,0-9.64.18Z" style="fill: #fff;"/>
  </g>
  <path d="M95.69,146.31c-1.16.45-1.34.54-1.42.54-.18-.09-.27-.18-.36-.18.09-.09.27-.18,1.34-.72,3.3-1.52,6.61-2.77,9.91-3.93.54-.18,1.17-.36,1.52-.45.35.18.63.36.89.54-.09.09-.18.18-1.43.53-3.48,1.08-6.96,2.24-10.44,3.66Z" style="fill: #fff;"/>
  <path d="M114.35,140.6c-.8.18-1.25.27-1.51.18-.36-.27-.72-.44-1.08-.71,0-.09.1-.18,1.25-.45,3.3-.8,6.69-1.51,10-1.96.89-.09,1.42-.18,1.7-.09.53.27,1.07.63,1.42.98-.09.09-.09.18-1.34.27-3.48.45-6.97,1.07-10.45,1.79Z" style="fill: #fff;"/>
  <path d="M132.92,138.28c-.89,0-1.42,0-1.69-.09-.45-.36-.98-.72-1.61-1.08.09-.09.18-.18,1.16-.27,3.31-.18,6.61-.27,9.91-.09.89,0,1.42.09,1.7.27.8.45,1.42.8,2.05,1.34v.09h-1.16c-3.48-.27-6.88-.27-10.36-.18Z" style="fill: #fff;"/>
  <path d="M96.14,146.94c-1.17.36-1.43.45-1.52.45-.09-.09-.18-.18-.27-.36.09-.09.27-.18,1.42-.62,3.48-1.34,6.97-2.5,10.54-3.48.35-.09,1.16-.27,1.51-.36.27.27.36.45.54.72-.09.09-.27.18-1.52.45-3.48.98-7.14,1.96-10.71,3.21Z" style="fill: #fff;"/>
  <path d="M115.52,142.2c-.8.09-1.34.18-1.61.09-.18-.35-.36-.63-.63-.89.09-.09.18-.18,1.43-.44,3.57-.72,7.05-1.17,10.62-1.52.54-.09,1.16-.09,1.61,0,.35.44.72.89.89,1.34-.09.1-.18.18-1.43.27-3.66.18-7.32.62-10.89,1.16Z" style="fill: #fff;"/>
  <path d="M134.8,140.87c-.8,0-1.25-.1-1.6-.18-.27-.53-.63-1.07-.98-1.51.09-.09.18-.18,1.34-.27,3.48-.09,6.97,0,10.44.27.89.09,1.43.18,1.7.35.45.54.89,1.16,1.17,1.79-.1.09-.18.18-1.43.09-3.48-.27-7.06-.53-10.63-.53Z" style="fill: #fff;"/>
  <path d="M96.32,147.65c-1.25.35-1.43.35-1.52.35,0-.09,0-.27-.09-.35.09-.09.35-.18,1.52-.54,3.57-1.16,7.23-2.05,10.89-2.86.36-.09,1.17-.27,1.52-.27.09.27.18.63.18.89-.18.09-.27.18-1.6.35-3.66.72-7.32,1.43-10.89,2.41Z" style="fill: #fff;"/>
  <path d="M115.87,144.26c-.8.09-1.34.09-1.52,0,0-.44-.09-.8-.18-1.16.09-.09.27-.18,1.52-.35,3.66-.54,7.32-.8,10.89-.98.53,0,1.25,0,1.51.09.18.53.18,1.07.18,1.6-.18.09-.27.18-1.6.27-3.48,0-7.14.18-10.81.53Z" style="fill: #fff;"/>
  <path d="M135.33,143.99c-.8-.09-1.25-.18-1.52-.35,0-.72-.09-1.25-.18-1.79.09-.09.27-.18,1.52-.18,3.57.1,7.14.36,10.71.8.89.18,1.43.27,1.61.45.18.72.27,1.42.27,2.23-.09.09-.27.27-1.51.09-3.66-.53-7.23-.98-10.89-1.25Z" style="fill: #fff;"/>
  <path d="M96.05,148.54c-1.16.18-1.34.18-1.51.18,0-.18.09-.27.09-.44.09,0,.35-.1,1.52-.45,3.66-.89,7.23-1.61,10.89-2.14.63-.09,1.25-.18,1.52-.09,0,.35-.18.71-.27,1.07-.18.09-.36.18-1.61.27-3.48.45-7.06.98-10.63,1.61Z" style="fill: #fff;"/>
  <path d="M115.24,146.58c-.8,0-1.25-.09-1.42-.09.18-.54.27-.89.35-1.34.18-.09.35-.18,1.61-.27,3.66-.27,7.32-.35,10.89-.27.62,0,1.25.09,1.51.27-.09.63-.27,1.25-.53,1.96-.18.18-.72.18-1.61.18-3.57-.35-7.14-.53-10.81-.44Z" style="fill: #fff;"/>
  <path d="M134.44,147.74c-.8-.18-1.25-.27-1.42-.44.27-.8.44-1.43.62-2.15.18-.09.36-.27,1.61-.18,3.66.35,7.23.8,10.72,1.43.89.18,1.42.44,1.42.62-.18.8-.44,1.7-.72,2.59-.18.18-.71.27-1.6,0-3.48-.72-7.06-1.34-10.63-1.87Z" style="fill: #fff;"/>
  <path d="M95.51,149.62c-1.07.09-1.25.09-1.34.09.1-.18.18-.35.27-.53.09-.1.35-.1,1.51-.36,3.48-.63,7.06-.98,10.63-1.25.53-.09,1.16-.09,1.42,0-.18.44-.44.8-.71,1.25-.18.09-.36.18-1.61.18-3.4.09-6.78.27-10.18.63Z" style="fill: #fff;"/>
  <path d="M113.82,149.35c-.8-.09-1.17-.18-1.34-.27.36-.53.63-1.07.89-1.51.18-.09.36-.18,1.61-.18,3.57,0,7.14.18,10.62.53.54.09,1.17.18,1.34.36-.35.8-.8,1.51-1.25,2.23-.27.18-.72.18-1.7.09-3.4-.63-6.79-1.07-10.18-1.25Z" style="fill: #fff;"/>
  <path d="M132.12,152.03c-.89-.18-1.25-.45-1.25-.63.54-.8.98-1.61,1.43-2.41.18-.18.8-.18,1.7-.09,3.57.54,7.05,1.34,10.53,2.15.89.27,1.34.53,1.25.8-.44.99-1.07,1.97-1.79,2.95-.27.27-.8.27-1.69,0-3.4-.98-6.79-1.96-10.18-2.77Z" style="fill: #fff;"/>
  <path d="M94.62,150.69c-1.07,0-1.16,0-1.25-.09.18-.18.35-.35.44-.53.18-.1.35-.1,1.52-.18,3.3-.27,6.61-.35,10-.27.53,0,1.07.09,1.25.18-.36.45-.72.89-1.07,1.34-.18.09-.63.09-1.52,0-3.21-.27-6.34-.45-9.37-.45Z" style="fill: #fff;"/>
  <path d="M111.41,152.21c-1.07-.18-1.07-.36-1.16-.45.44-.53.89-1.07,1.34-1.6.18-.09.72-.18,1.61-.09,3.4.35,6.69.8,10.09,1.42.89.18,1.25.35,1.16.63-.62.72-1.25,1.51-1.96,2.23-.27.18-.8.18-1.61-.09-3.21-.72-6.34-1.42-9.46-2.05Z" style="fill: #fff;"/>
  <path d="M128.28,156.67c-.8-.27-1.16-.63-.98-.8.8-.89,1.52-1.7,2.15-2.5.27-.18.8-.18,1.69,0,3.31.89,6.7,1.87,9.91,3.03.8.36,1.16.63,1.07.89-.8,1.08-1.69,2.15-2.68,3.22-.35.27-.89.18-1.78-.09-3.04-1.43-6.25-2.68-9.38-3.75Z" style="fill: #fff;"/>
  <path d="M93.46,151.84c-.98-.09-1.08-.18-1.08-.18.18-.18.45-.35.63-.53.09,0,.36-.09,1.34,0,3.03.09,5.98.35,9.1.8.54.09.99.18,1.17.35-.45.44-.89.89-1.43,1.34-.18.09-.62,0-1.42-.09-2.86-.89-5.62-1.42-8.3-1.7Z" style="fill: #fff;"/>
  <path d="M108.28,155.15c-.54-.18-.8-.35-.98-.54v-.09c.62-.53,1.16-1.07,1.69-1.51.27-.18.72-.09,1.52,0,3.03.71,6.16,1.51,9.2,2.41.8.27,1.07.45.98.72-.8.8-1.61,1.52-2.5,2.24-.27.18-.8.09-1.6-.18-2.68-1.07-5.54-2.14-8.3-3.03Z" style="fill: #fff;"/>
  <path d="M123.37,161.31c-.72-.36-.98-.72-.8-.98.98-.8,1.87-1.7,2.77-2.5.36-.18.89-.18,1.7.09,3.03,1.16,6.16,2.41,9.2,3.93.8.45,1.07.72.8,1.07-1.07,1.08-2.24,2.06-3.48,3.13-.35.27-.98.18-1.7-.27-2.86-1.61-5.62-3.04-8.48-4.47Z" style="fill: #fff;"/>
  <path d="M92.03,152.92q-.8-.27-.89-.36c.27-.18.45-.35.72-.53.09,0,.27,0,1.16.09,2.59.44,5.27,1.07,7.86,1.79.44.18.89.27.98.44-.54.45-1.07.89-1.7,1.25-.18.09-.63,0-1.25-.27-2.32-.89-4.64-1.79-6.88-2.41Z" style="fill: #fff;"/>
  <path d="M104.53,158.1c-.63-.35-.8-.53-.72-.72.72-.53,1.34-.98,2.05-1.51.27-.09.72-.09,1.43.18,2.68.98,5.45,2.14,8.12,3.4.72.35.99.62.8.89-.98.71-1.87,1.51-2.95,2.23-.35.18-.8.09-1.52-.35-2.41-1.61-4.91-2.95-7.23-4.11Z" style="fill: #fff;"/>
  <path d="M117.48,165.87c-.63-.45-.8-.8-.54-1.08,1.16-.8,2.24-1.6,3.31-2.5.35-.18.89-.09,1.6.27,2.77,1.43,5.45,3.03,8.22,4.82.72.45.89.89.63,1.17-1.34,1.07-2.68,2.05-4.1,3.12-.45.18-.99.09-1.7-.35-2.5-1.97-5-3.76-7.41-5.45Z" style="fill: #fff;"/>
  <path d="M90.42,153.9c-.62-.36-.62-.45-.62-.45.27-.18.53-.35.8-.53.09,0,.27,0,.98.27,2.14.8,4.28,1.7,6.52,2.86.53.27.8.54.71.63-.62.44-1.25.8-1.87,1.16-.27.09-.53-.09-1.07-.45-1.87-1.25-3.66-2.41-5.45-3.48Z" style="fill: #fff;"/>
  <path d="M100.24,160.78c-.44-.35-.63-.72-.44-.89.8-.44,1.51-.98,2.32-1.42.27-.09.63,0,1.25.35,2.24,1.34,4.55,2.77,6.88,4.29.53.44.72.8.53.98-1.07.71-2.14,1.42-3.3,2.14-.36.09-.8,0-1.34-.44-1.96-1.79-3.93-3.4-5.89-5Z" style="fill: #fff;"/>
  <path d="M110.78,170.15c-.44-.53-.62-.89-.27-1.16,1.25-.8,2.5-1.52,3.66-2.32.35-.18.89,0,1.52.35,2.32,1.79,4.64,3.66,6.96,5.62.54.54.72.98.36,1.25-1.52.98-3.04,1.96-4.64,2.95-.45.18-.98,0-1.61-.54-1.96-2.05-3.93-4.1-5.99-6.16Z" style="fill: #fff;"/>
  <path d="M88.63,154.89c-.27-.27-.35-.45-.44-.63.35-.18.63-.27.89-.44.18,0,.53.18.8.44,1.61,1.16,3.3,2.41,5,3.75.45.36.63.63.45.8-.63.35-1.34.72-2.06,1.07-.18.09-.44-.09-.89-.53-1.25-1.61-2.5-3.13-3.75-4.47Z" style="fill: #fff;"/>
  <path d="M95.69,163.37c-.35-.45-.44-.8-.27-.98.89-.45,1.7-.89,2.5-1.34.27-.09.63.1,1.08.45,1.79,1.61,3.57,3.4,5.45,5.18.44.53.53.89.27,1.07-1.16.62-2.41,1.34-3.57,1.96-.35.09-.72-.09-1.16-.63-1.43-1.96-2.95-3.84-4.29-5.71Z" style="fill: #fff;"/>
  <path d="M103.55,174.26c-.36-.63-.36-.98-.1-1.25,1.34-.71,2.68-1.42,4.02-2.23.35-.18.89,0,1.34.54,1.87,2.05,3.75,4.19,5.71,6.43.45.62.54,1.07.1,1.34-1.61.98-3.31,1.87-5,2.77-.53.18-.89,0-1.42-.63-1.52-2.41-3.13-4.73-4.64-6.96Z" style="fill: #fff;"/>
  <path d="M86.76,155.78c-.09-.27-.18-.54-.18-.72.27-.18.63-.27.89-.45.09,0,.18.1.54.54,1.07,1.43,2.14,2.95,3.3,4.64.27.45.36.72.18.89-.72.35-1.43.72-2.15.98-.18,0-.44-.18-.62-.63-.63-1.87-1.25-3.66-1.97-5.26Z" style="fill: #fff;"/>
  <path d="M90.78,165.78c-.18-.54-.18-.89,0-1.08.89-.35,1.79-.8,2.59-1.25.27-.09.53.18.89.63,1.25,1.87,2.5,3.93,3.84,6.07.35.54.35.98,0,1.17-1.25.62-2.5,1.16-3.75,1.78-.36.1-.72-.18-.98-.71-.8-2.41-1.7-4.55-2.59-6.61Z" style="fill: #fff;"/>
  <path d="M95.78,177.92c-.27-.63-.18-1.07.18-1.34,1.43-.62,2.86-1.25,4.2-1.96.44-.09.8.09,1.25.72,1.34,2.32,2.86,4.73,4.29,7.23.35.72.27,1.16-.09,1.42-1.7.89-3.48,1.7-5.27,2.5-.44.18-.89-.18-1.25-.8-1.17-2.68-2.24-5.27-3.31-7.77Z" style="fill: #fff;"/>
  <path d="M84.88,156.58c0-.27,0-.63.09-.8.36-.18.63-.27.98-.36.1,0,.18.09.36.63.44,1.7.98,3.48,1.61,5.45.18.53.09.8-.09.98-.72.27-1.43.63-2.24.89-.18,0-.35-.27-.35-.8-.27-2.14-.36-4.1-.36-5.98Z" style="fill: #fff;"/>
  <path d="M85.69,167.74c0-.63.09-.98.27-1.17.89-.35,1.78-.71,2.67-1.07.27-.09.45.18.72.72.72,2.14,1.43,4.38,2.24,6.78.18.63.09,1.08-.18,1.25-1.25.53-2.58,1.07-3.93,1.51-.35.09-.63-.18-.72-.89-.35-2.41-.71-4.82-1.07-7.14Z" style="fill: #fff;"/>
  <path d="M87.84,181.13c-.1-.72,0-1.16.35-1.34,1.42-.54,2.95-1.07,4.38-1.7.35-.09.71.18.98.8.89,2.5,1.87,5.17,2.86,7.85.18.72.09,1.25-.36,1.52-1.78.72-3.66,1.42-5.44,2.14-.45.09-.8-.18-1.08-.98-.62-2.86-1.16-5.62-1.69-8.3Z" style="fill: #fff;"/>
  <path d="M82.92,157.2c.09-.18.18-.62.36-.89.35-.18.62-.27.98-.35,0,.09.09.09.09.8-.18,1.96-.18,4.02-.18,6.16,0,.63-.1.99-.36,1.08-.72.27-1.51.44-2.23.71-.18,0-.27-.27-.18-.89.44-2.32.98-4.55,1.51-6.61Z" style="fill: #fff;"/>
  <path d="M80.6,169.44c.09-.63.27-1.08.53-1.17.89-.27,1.79-.53,2.68-.89.27,0,.36.27.45.89.09,2.32.27,4.82.53,7.41.09.72-.09,1.07-.44,1.25-1.34.44-2.59.89-3.93,1.25-.35,0-.53-.27-.53-.98.27-2.68.44-5.27.72-7.77Z" style="fill: #fff;"/>
  <path d="M79.8,183.81c0-.72.27-1.25.62-1.34,1.43-.45,2.95-.89,4.38-1.43.36-.09.63.27.8.98.36,2.68.8,5.54,1.25,8.48.1.8-.09,1.25-.53,1.52-1.87.63-3.66,1.25-5.45,1.7-.45.09-.72-.27-.8-1.07-.18-3.04-.27-5.99-.27-8.84Z" style="fill: #fff;"/>
  <path d="M81.05,157.65c.09-.18.36-.72.63-.98.35-.09.63-.18.98-.27,0,.09.09.09-.18.89-.72,2.15-1.43,4.38-1.96,6.7-.18.62-.36.98-.54,1.07-.72.18-1.52.35-2.23.53-.1-.18,0-.53.18-.98.89-2.41,1.96-4.73,3.12-6.96Z" style="fill: #fff;"/>
  <path d="M75.6,170.69c.27-.72.54-1.07.72-1.25.89-.18,1.79-.36,2.68-.63.27,0,.27.35.18.98-.44,2.59-.8,5.18-1.07,7.95-.09.71-.35,1.16-.72,1.34-1.34.35-2.59.63-3.84.89-.35,0-.44-.35-.27-1.07.72-2.86,1.42-5.54,2.32-8.22Z" style="fill: #fff;"/>
  <path d="M71.85,185.78c.18-.8.45-1.25.8-1.42,1.43-.27,2.86-.63,4.29-.98.35,0,.53.35.53,1.07-.18,2.86-.18,5.89-.27,8.92,0,.8-.27,1.34-.8,1.52-1.79.45-3.57.89-5.45,1.25-.44,0-.62-.35-.62-1.25.53-3.03.98-6.16,1.51-9.11Z" style="fill: #fff;"/>
  <path d="M79.26,157.92c.18-.18.54-.72.8-.98.35-.09.63-.09.89-.18,0,.09,0,.18-.44.89-1.34,2.23-2.59,4.64-3.75,7.14-.36.72-.54.99-.8,1.08-.72.09-1.34.18-1.96.27l-.1-.09c0-.27.18-.54.45-.98,1.52-2.41,3.21-4.82,4.91-7.14Z" style="fill: #fff;"/>
  <path d="M70.87,171.4c.36-.72.72-1.08.89-1.17.8-.09,1.61-.18,2.5-.35.18,0,.18.35-.09,1.07-.98,2.68-1.96,5.45-2.77,8.3-.27.8-.54,1.16-.89,1.34-1.25.18-2.41.35-3.57.53-.27-.09-.27-.44,0-1.16,1.25-3.03,2.59-5.8,3.93-8.57Z" style="fill: #fff;"/>
  <path d="M64.44,186.93c.27-.8.63-1.25.98-1.34,1.25-.18,2.59-.35,3.93-.63.36,0,.45.45.27,1.17-.72,3.03-1.25,6.07-1.7,9.29-.18.8-.45,1.34-.98,1.42-1.7.27-3.4.54-4.91.72-.36,0-.54-.44-.36-1.34.89-3.13,1.79-6.25,2.77-9.29Z" style="fill: #fff;"/>
  <path d="M77.75,158.01c.18-.18.71-.72.98-.98.27,0,.53,0,.71-.09,0,.09,0,.18-.71.98-1.87,2.32-3.66,4.73-5.36,7.32-.45.72-.72,1.07-.98,1.07-.63,0-1.16.09-1.7.09,0-.09-.09-.18.63-1.07,2.05-2.5,4.19-5,6.43-7.32Z" style="fill: #fff;"/>
  <path d="M66.85,171.67c.44-.72.89-1.07,1.07-1.16.72,0,1.34,0,2.14-.09.09.09.18.18-.35,1.16-1.52,2.77-2.95,5.54-4.2,8.48-.35.8-.71,1.16-.98,1.25-1.07.09-2.05.09-3.03.09-.18-.09-.09-.53.27-1.25,1.52-2.95,3.22-5.8,5.09-8.48Z" style="fill: #fff;"/>
  <path d="M58.01,187.21c.45-.8.8-1.25,1.07-1.34,1.08,0,2.24,0,3.4-.09.27.09.27.45,0,1.25-1.16,3.03-2.14,6.24-3.12,9.46-.27.89-.63,1.34-.98,1.42-1.52.09-2.95.09-4.29.09-.35-.09-.35-.53-.09-1.42,1.34-3.12,2.59-6.25,4.02-9.37Z" style="fill: #fff;"/>
  <path d="M76.49,157.92c.27-.18.8-.72,1.16-.98.27,0,.45.09.63.09-.09.09-.09.18-.89.98-2.32,2.32-4.55,4.73-6.69,7.32-.63.72-.98.98-1.16,1.07-.54-.09-.98-.09-1.43-.18,0-.09,0-.27.8-1.16,2.41-2.5,4.91-4.92,7.59-7.14Z" style="fill: #fff;"/>
  <path d="M63.46,171.32c.63-.72.98-1.08,1.16-1.17.54.09,1.17.18,1.79.18,0,.1.09.27-.62,1.17-1.97,2.77-3.75,5.54-5.54,8.48-.45.8-.8,1.16-1.17,1.25-.89-.09-1.69-.18-2.5-.27-.18-.09,0-.54.53-1.34,2.05-2.77,4.11-5.63,6.34-8.3Z" style="fill: #fff;"/>
  <path d="M52.74,186.76c.45-.8.89-1.16,1.17-1.25.89.18,1.79.27,2.86.35.18.09.18.54-.27,1.34-1.52,3.03-2.95,6.25-4.29,9.46-.35.89-.72,1.25-1.07,1.34-1.25-.09-2.41-.27-3.48-.44-.27-.18-.18-.63.18-1.52,1.43-3.12,3.13-6.24,4.91-9.29Z" style="fill: #fff;"/>
  <path d="M75.42,157.56c.27-.18.89-.72,1.34-.89.18.09.35.09.53.18-.09.09-.18.18-1.07.98-2.77,2.23-5.36,4.64-7.86,7.14-.71.71-1.07.98-1.25,1.07-.35-.09-.8-.27-1.07-.36,0-.09.09-.27.98-1.07,2.68-2.5,5.54-4.82,8.39-7.05Z" style="fill: #fff;"/>
  <path d="M60.78,170.51c.63-.63,1.07-.98,1.25-1.07.44.18.89.35,1.34.44,0,.09,0,.27-.8,1.16-2.32,2.68-4.47,5.45-6.52,8.39-.54.72-.98,1.17-1.16,1.17-.72-.18-1.34-.45-1.96-.63-.09-.18.18-.63.71-1.34,2.32-2.77,4.64-5.54,7.14-8.12Z" style="fill: #fff;"/>
  <path d="M48.55,185.42c.54-.72.98-1.16,1.16-1.16.63.27,1.43.53,2.15.71.18.09,0,.63-.45,1.34-1.87,3.03-3.57,6.16-5.18,9.29-.44.8-.8,1.25-1.16,1.25-.98-.27-1.87-.53-2.77-.89-.18-.18-.09-.62.36-1.51,1.96-2.95,3.84-5.99,5.89-9.02Z" style="fill: #fff;"/>
  <path d="M74.79,157.11c.27-.18.98-.63,1.34-.8.09.09.27.18.35.27-.09.09-.18.18-1.25.89-3.03,2.14-5.9,4.46-8.75,6.78-.71.63-1.07.89-1.25.98-.35-.18-.63-.35-.8-.54.09-.09.18-.27,1.16-1.07,2.95-2.32,5.99-4.47,9.2-6.52Z" style="fill: #fff;"/>
  <path d="M58.9,169.26c.45-.35.98-.8,1.25-.98.27.27.62.54.98.72,0,.18-.1.27-.98,1.16-2.59,2.59-5,5.27-7.42,8.04-.62.72-.98,1.07-1.16,1.07-.53-.27-.98-.63-1.34-.98,0-.18.27-.63.89-1.34,2.5-2.59,5.09-5.18,7.77-7.68Z" style="fill: #fff;"/>
  <path d="M45.6,183.46c.35-.45.8-.89,1.07-1.07.53.44.98.8,1.61,1.16,0,.18.09.35-.63,1.42-2.14,2.95-4.1,5.99-5.99,9.02-.53.8-.89,1.16-1.07,1.16-.71-.44-1.34-.89-1.87-1.42-.09-.18.09-.72.63-1.52,1.96-2.95,4.02-5.89,6.25-8.75Z" style="fill: #fff;"/>
  <path d="M74.35,156.49c.27-.09,1.07-.53,1.42-.71.1.09.1.18.18.35-.09.09-.18.18-1.34.89-3.21,1.96-6.34,4.11-9.29,6.34-.8.63-1.07.8-1.34.89-.18-.27-.36-.54-.45-.8.09-.09.18-.27,1.25-.98,3.12-2.14,6.24-4.1,9.55-5.99Z" style="fill: #fff;"/>
  <path d="M57.92,167.56c.45-.35.98-.71,1.25-.8.18.35.36.62.54.89-.09.18-.18.27-1.07,1.16-2.77,2.41-5.36,4.91-7.86,7.59-.62.63-.89.89-1.16.98-.35-.44-.63-.89-.8-1.34,0-.18.36-.63.98-1.25,2.5-2.58,5.27-4.91,8.13-7.23Z" style="fill: #fff;"/>
  <path d="M43.99,180.87c.35-.35.8-.8,1.07-.89.27.54.54,1.07.8,1.52,0,.18-.27.62-.8,1.42-2.32,2.77-4.47,5.62-6.43,8.57-.44.72-.72.98-.98,1.08-.44-.63-.8-1.25-1.07-1.87,0-.27.27-.72.8-1.52,2.05-2.95,4.19-5.71,6.61-8.3Z" style="fill: #fff;"/>
  <path d="M74.26,155.69c.27-.09,1.07-.45,1.42-.63v.35c-.09.09-.27.18-1.42.8-3.31,1.79-6.52,3.66-9.56,5.71-.8.54-1.07.72-1.25.8-.09-.27-.09-.62-.09-.89.09-.18.27-.27,1.34-.98,3.04-1.87,6.25-3.57,9.56-5.17Z" style="fill: #fff;"/>
  <path d="M57.74,165.51c.27-.18.89-.62,1.16-.72,0,.45,0,.8.09,1.17-.09.09-.18.35-1.25,1.07-2.86,2.23-5.62,4.55-8.22,7.06-.63.53-.89.8-1.07.8-.09-.53-.09-1.07-.09-1.69.09-.27.44-.63,1.16-1.25,2.59-2.23,5.36-4.38,8.22-6.43Z" style="fill: #fff;"/>
  <path d="M43.64,177.56c.44-.44.62-.62.89-.8h.09c-.09.63,0,1.25.09,1.87-.09.18-.36.63-.98,1.34-2.41,2.59-4.55,5.27-6.7,8.13-.44.53-.62.8-.8.89h-.1c-.09-.72-.18-1.52-.09-2.32.09-.27.36-.8.89-1.51,2.15-2.59,4.38-5.18,6.7-7.59Z" style="fill: #fff;"/>
  <path d="M17.3,262.38c.09.63.18,1.34.35,1.96.18.98.36,1.87.54,2.86l-.89-5v.18Z" style="fill: #fff;"/>
  <path d="M33.81,186.49c.27-.44.44-.54.54-.72-.36,1.07-.72,2.05-.99,2.95-.09.27-.35.8-.89,1.52-1.88,2.68-3.57,5.54-5.09,8.3-.27.45-.35.63-.44.8.18-1.07.53-2.23,1.07-3.4.18-.35.44-.98.8-1.7,1.6-2.58,3.21-5.26,5-7.77Z" style="fill: #fff;"/>
  <path d="M25.95,200.33c0-.09.1-.18.1-.18v.09c-.54,1.25-.89,2.41-1.17,3.48-.09.35-.35.89-.71,1.79-1.25,2.95-2.41,5.98-3.4,9.11-.09.27-.18.62-.27.89.09-.44.18-.8.35-1.16,1.42-4.19,3.4-9.64,5.09-13.75-.09-.18-.09-.27,0-.27Z" style="fill: #fff;"/>
  <path d="M19.17,220.16c-.09.53-.27,1.16-.44,1.78-.09.36-.18.72-.27,1.08l.72-2.95v.1Z" style="fill: #fff;"/>
  <path d="M37.74,180.06s-.09.09,0,0c-.89,1.16-1.51,2.23-2.14,3.31-.18.35-.54.8-.98,1.51-1.79,2.5-3.31,5-4.82,7.68-.09.27-.27.44-.36.71,4.92-8.48,5-8.57,8.22-13.04q0-.09.09-.18Z" style="fill: #fff;"/>
  <path d="M74.53,154.8c.27-.09.98-.36,1.34-.45,0,.18-.1.27-.18.45-.09.09-.27.18-1.42.71-3.31,1.52-6.52,3.13-9.56,4.92-.8.44-1.07.62-1.25.62.09-.35.18-.71.35-1.07.18-.09.36-.27,1.34-.8,3.03-1.6,6.16-3.12,9.37-4.37Z" style="fill: #fff;"/>
  <path d="M58.46,163.01c.27-.18.89-.54,1.07-.54-.18.44-.36.89-.45,1.34-.09.1-.27.27-1.25.98-2.86,1.97-5.54,4.11-8.13,6.34-.53.45-.72.63-.98.72h-.09c.18-.63.35-1.25.63-1.96.18-.27.53-.63,1.16-1.16,2.59-1.96,5.18-3.93,8.04-5.71Z" style="fill: #fff;"/>
  <path d="M44.8,173.72c.35-.35.63-.53.8-.72-.27.8-.54,1.52-.72,2.24-.09.27-.45.72-1.07,1.34-2.41,2.41-4.55,4.92-6.69,7.41-.45.54-.63.72-.72.8v-.09c.18-.89.53-1.79.89-2.68.18-.35.53-.8,1.07-1.42,1.96-2.41,4.1-4.64,6.43-6.88Z" style="fill: #fff;"/>
  <path d="M76.14,153.45c.09,0,.18,0,.27-.09-.09.18-.18.35-.27.54-.18.09-.27.09-1.43.53-3.21,1.25-6.24,2.59-9.2,4.02-.98.53-1.07.44-1.16.44.27-.35.54-.8.8-1.25q.09-.09.35-.27c3.4-1.42,6.88-2.77,10.63-3.93Z" style="fill: #fff;"/>
  <path d="M60.87,159.88q.09,0,.18-.09c-.35.54-.71,1.07-.89,1.52-.1.18-.54.44-1.25.89-2.77,1.7-5.36,3.48-7.85,5.45-.54.35-.72.53-.89.62.35-.8.89-1.51,1.42-2.23.09-.09.09-.18.36-.45,2.77-1.96,5.71-3.93,8.92-5.71Z" style="fill: #fff;"/>
  <path d="M48.01,168.9s0-.09,0,0q.09,0,0,0c-.53.8-1.07,1.7-1.51,2.41-.18.27-.54.62-1.17,1.25-2.23,2.14-4.37,4.38-6.33,6.69-.36.36-.45.54-.63.63v-.09c.53-.98,1.16-1.96,1.96-3.04.18-.18.27-.35.45-.53,2.14-2.59,4.64-5.09,7.23-7.32Z" style="fill: #fff;"/>
  <path d="M191.68,329.35c.09-.45.45-.89.98-1.25,2.05-1.25,4.02-2.5,5.9-3.76.44-.27.71-.18.62.27-.44,1.79-.98,3.39-1.7,4.91-.18.45-.53.8-.98,1.07-1.7,1.07-3.39,2.24-5.09,3.31-.45.27-.63.18-.54-.09.36-1.43.63-2.86.8-4.47Z" style="fill: #fff;"/>
  <path d="M180.52,335.61c0-.36.27-.8.89-1.07,2.14-1.17,4.29-2.32,6.43-3.48.54-.27.8-.27.89.18-.09,1.52-.27,2.95-.54,4.19-.09.36-.44.72-.89.99-1.79,1.07-3.66,2.05-5.54,3.03-.53.27-.8.18-.8,0-.18-1.25-.27-2.5-.44-3.84Z" style="fill: #fff;"/>
  <path d="M159.89,323.1c-.18-.63.09-1.07.8-1.52,2.95-1.34,5.89-2.67,8.75-4.1.8-.27,1.34-.18,1.61.35.8,2.24,1.6,4.38,2.32,6.43.09.54-.18,1.08-.89,1.43-2.68,1.34-5.45,2.59-8.13,3.84-.71.27-1.25.18-1.6-.27-.89-1.96-1.79-4.02-2.86-6.16Z" style="fill: #fff;"/>
  <path d="M150.51,339.27c-.27-.45,0-.8.63-1.08,2.77-.98,5.45-2.05,8.13-3.21.72-.27,1.25-.18,1.52.27.89,1.61,1.79,3.22,2.58,4.55.18.36-.09.72-.71.98-2.41.98-4.92,1.96-7.32,2.86-.72.18-1.17.18-1.52-.18-.98-1.25-2.14-2.68-3.31-4.19Z" style="fill: #fff;"/>
  <path d="M119.53,322.84c-.35-.72-.09-1.16.72-1.52,3.21-.98,6.43-1.96,9.73-3.12.89-.18,1.52,0,1.96.62,1.43,2.5,2.86,4.92,4.2,7.23.27.63.09,1.07-.72,1.43-3.12,1.07-6.16,2.05-9.29,2.95-.89.18-1.52,0-1.96-.54-1.52-2.23-3.12-4.55-4.64-7.05Z" style="fill: #fff;"/>
  <path d="M136.05,344c-.36-.45-.18-.72.53-.98,2.68-.8,5.45-1.7,8.22-2.59.72-.18,1.34-.09,1.7.27,1.25,1.52,2.5,2.86,3.66,4.11.27.35.09.62-.53.89-2.5.8-4.92,1.6-7.42,2.32-.71.18-1.25.09-1.69-.18-1.43-1.16-2.95-2.41-4.47-3.84Z" style="fill: #fff;"/>
  <path d="M111.23,308.1c-.27-.8-.09-1.34.8-1.7,3.39-.98,6.69-2.05,10.09-3.21.89-.18,1.6.09,2.05.8,1.42,2.95,2.95,5.9,4.38,8.58.27.71.09,1.25-.8,1.6-3.31,1.17-6.61,2.15-9.82,3.13-.89.18-1.51-.09-2.05-.72-1.52-2.59-3.12-5.45-4.64-8.48Z" style="fill: #fff;"/>
  <path d="M202.75,180.06c-.63-.63-.98-1.25-.89-1.7.54-1.51.98-3.03,1.25-4.38.18-.27.54-.18,1.25.45,2.59,2.32,5.17,4.82,7.59,7.41.63.72.89,1.25.89,1.7-.27,1.42-.72,3.03-1.34,4.64-.27.35-.63.18-1.25-.45-2.41-2.68-4.91-5.26-7.5-7.68Z" style="fill: #fff;"/>
  <path d="M183.37,176.22c-.72-.63-.98-1.07-.8-1.61,1.07-1.61,1.96-3.03,2.68-4.47.27-.35.8-.27,1.61.27,2.95,2.05,5.8,4.19,8.57,6.52.72.62.98,1.16.8,1.6-.8,1.61-1.79,3.22-2.86,4.92-.35.35-.89.27-1.61-.36-2.77-2.41-5.54-4.73-8.39-6.87Z" style="fill: #fff;"/>
  <path d="M197.84,188.9c-.63-.72-.8-1.25-.63-1.79,1.16-1.7,2.14-3.4,2.95-5,.27-.35.72-.27,1.43.36,2.59,2.5,5.09,5,7.5,7.68.63.72.8,1.34.63,1.87-.89,1.7-1.87,3.4-3.13,5.18-.35.35-.89.27-1.51-.36-2.24-2.77-4.64-5.45-7.23-7.94Z" style="fill: #fff;"/>
  <g style="clip-path: url(#m);">
    <path d="M210.42,203.45c-.53-.8-.62-1.42-.35-2.05,1.25-1.79,2.23-3.57,3.12-5.27.27-.35.72-.18,1.34.45,2.14,2.86,4.19,5.8,6.07,8.84.45.8.63,1.51.45,2.05-.89,1.79-1.96,3.57-3.22,5.45-.35.44-.8.27-1.34-.54-1.87-3.03-3.93-6.07-6.07-8.93Z" style="fill: #fff;"/>
  </g>
  <path d="M161.14,173.28c-.72-.54-.98-.98-.72-1.43,1.25-1.42,2.5-2.77,3.57-4.19.35-.36.98-.27,1.79.18,3.03,1.79,6.07,3.75,9.02,5.8.72.54.98,1.07.72,1.52-1.25,1.51-2.5,3.12-4.02,4.64-.44.35-1.07.27-1.79-.27-2.77-2.23-5.62-4.28-8.57-6.24Z" style="fill: #fff;"/>
  <path d="M190.07,198.37c-.62-.72-.71-1.34-.35-1.87,1.61-1.79,3.12-3.48,4.55-5.27.44-.35.98-.27,1.7.36,2.5,2.58,4.91,5.26,7.23,8.03.53.8.71,1.43.35,1.96-1.43,1.87-3.03,3.66-4.73,5.54-.54.45-1.07.27-1.7-.44-2.32-2.86-4.64-5.62-7.06-8.3Z" style="fill: #fff;"/>
  <path d="M202.12,213.54c-.53-.8-.53-1.51-.09-2.05,1.7-1.87,3.4-3.75,4.83-5.62.44-.44.98-.27,1.51.45,2.15,2.95,4.11,5.89,5.99,9.01.44.89.53,1.61.18,2.15-1.52,1.87-3.22,3.84-5,5.8-.53.44-.98.27-1.51-.54-1.87-3.12-3.84-6.24-5.9-9.2Z" style="fill: #fff;"/>
  <path d="M153.1,180.78c-.62-.63-.8-1.16-.44-1.52,1.61-1.42,3.12-2.77,4.55-4.19.44-.27,1.07-.18,1.87.27,2.86,2.05,5.71,4.19,8.48,6.43.72.63.8,1.16.54,1.61-1.61,1.51-3.31,3.12-5.09,4.64-.54.35-1.16.18-1.87-.45-2.68-2.32-5.36-4.64-8.04-6.78Z" style="fill: #fff;"/>
  <path d="M156.05,201.94c-.53-.72-.53-1.34,0-1.79,2.15-1.52,4.2-3.13,6.25-4.64.63-.36,1.17-.18,1.87.44,2.41,2.59,4.83,5.27,7.14,8.04.54.8.63,1.34.09,1.87-2.14,1.7-4.38,3.4-6.69,5-.72.36-1.34.18-1.96-.53-2.15-2.86-4.38-5.62-6.7-8.39Z" style="fill: #fff;"/>
  <path d="M167.83,217.2c-.53-.8-.44-1.42.09-2.05,2.41-1.7,4.64-3.4,6.88-5.18.62-.35,1.25-.18,1.87.54,2.23,2.86,4.38,5.8,6.52,8.75.44.8.44,1.51-.09,2.05-2.32,1.79-4.73,3.66-7.23,5.45-.72.44-1.34.18-1.96-.54-1.87-3.03-3.93-6.07-6.07-9.02Z" style="fill: #fff;"/>
  <path d="M132.74,195.15c-.44-.71-.44-1.25,0-1.69,2.05-1.25,4.11-2.59,6.07-3.85.62-.27,1.16-.09,1.87.54,2.32,2.5,4.55,5.09,6.78,7.77.54.72.54,1.34,0,1.79-2.23,1.43-4.47,2.95-6.78,4.38-.72.27-1.25.09-1.87-.63-1.96-2.95-4.02-5.62-6.07-8.3Z" style="fill: #fff;"/>
  <path d="M130.06,217.65c-.35-.8-.27-1.43.36-1.87,2.59-1.34,5.09-2.77,7.59-4.2.72-.27,1.34-.09,1.87.63,1.87,2.95,3.84,5.89,5.71,9.02.45.8.27,1.51-.35,1.96-2.68,1.51-5.45,3.03-8.22,4.47-.8.27-1.43.09-1.96-.72-1.61-3.13-3.31-6.16-5-9.29Z" style="fill: #fff;"/>
  <path d="M150.07,157.56c-.89-.36-1.25-.72-1.07-.98.72-1.08,1.34-2.15,1.87-3.22.27-.27.8-.18,1.7,0,3.39,1.07,6.78,2.32,10.09,3.75.8.36,1.25.8,1.16,1.07-.63,1.25-1.34,2.41-2.24,3.75-.27.27-.89.27-1.69-.09-3.31-1.51-6.52-2.95-9.82-4.28Z" style="fill: #fff;"/>
  <path d="M144.98,163.72c-.8-.44-1.07-.8-.89-1.16,1.07-1.16,2.05-2.23,2.86-3.4.35-.27.89-.27,1.79.09,3.21,1.34,6.43,2.86,9.64,4.47.8.45,1.07.89.89,1.25-1.07,1.34-2.14,2.68-3.4,3.93-.35.27-.98.27-1.79-.18-2.95-1.7-5.98-3.4-9.11-5Z" style="fill: #fff;"/>
  <path d="M130.6,175.96c-.63-.63-.72-1.08-.35-1.34,1.51-1.07,2.95-2.23,4.37-3.3.45-.27.98-.18,1.79.27,2.68,1.87,5.36,3.93,8.04,6.07.63.63.8,1.08.44,1.43-1.6,1.25-3.39,2.59-5.09,3.84-.54.27-1.16.18-1.79-.44-2.5-2.24-5-4.47-7.41-6.52Z" style="fill: #fff;"/>
  <path d="M121.76,181.76c-.44-.63-.53-1.07-.18-1.43,1.7-1.07,3.31-2.05,4.91-3.12.45-.27,1.08-.09,1.7.44,2.32,2.15,4.73,4.38,7.06,6.79.54.62.63,1.16.18,1.51-1.87,1.25-3.75,2.5-5.8,3.66-.54.27-1.16.09-1.7-.53-2.05-2.59-4.1-5-6.16-7.32Z" style="fill: #fff;"/>
  <path d="M188.46,155.33c-.8-.53-1.25-.89-1.43-1.16-.44-.98-1.07-1.87-1.79-2.68v-.09c.09,0,.18-.09.98.35,2.95,1.7,5.8,3.48,8.48,5.36.72.54,1.25.89,1.52,1.25.8.89,1.43,1.87,1.87,2.95v.09c-.09,0-.18.09-.98-.45-2.86-2.05-5.71-3.93-8.66-5.62Z" style="fill: #fff;"/>
  <path d="M172.57,152.74c-.89-.35-1.34-.71-1.42-1.07,0-.98-.09-1.96-.27-2.95v-.09c.18-.18.8,0,1.34.18,3.21,1.25,6.43,2.59,9.55,4.11.8.44,1.25.8,1.43,1.07.27,1.07.35,2.14.35,3.3-.09.27-.53.18-1.34-.18-3.13-1.61-6.34-3.03-9.65-4.38Z" style="fill: #fff;"/>
  <path d="M189.45,161.23c-.8-.54-1.17-.89-1.25-1.25,0-1.16-.09-2.32-.35-3.39v-.1c.18-.18.72.1,1.16.36,2.95,1.7,5.9,3.66,8.67,5.62.71.54,1.16.98,1.34,1.34.27,1.17.35,2.32.35,3.66-.09.27-.44.18-1.25-.35-2.77-2.05-5.71-4.02-8.66-5.89Z" style="fill: #fff;"/>
  <path d="M171.14,158.81c-.89-.44-1.25-.8-1.25-1.16.45-1.17.8-2.32.99-3.4.18-.27.62-.27,1.51.09,3.31,1.43,6.52,2.95,9.65,4.55.8.45,1.25.89,1.25,1.25-.27,1.25-.63,2.5-1.07,3.85-.18.27-.72.27-1.52-.18-3.12-1.87-6.34-3.48-9.55-5Z" style="fill: #fff;"/>
  <path d="M95.51,212.92c-.18-.89,0-1.43.63-1.79,2.41-.89,4.82-1.87,7.14-2.86.63-.18,1.17.09,1.52.89,1.16,3.12,2.41,6.24,3.66,9.46.27.89.09,1.42-.63,1.87-2.68,1.07-5.26,2.14-7.94,3.12-.72.18-1.25-.18-1.61-.98-.89-3.21-1.87-6.52-2.77-9.73Z" style="fill: #fff;"/>
  <path d="M85.87,235.42c-.18-.98.18-1.52.89-1.79,2.77-.8,5.54-1.7,8.3-2.59.72-.18,1.25.18,1.61,1.07.98,3.4,2.05,6.79,3.13,10.19.18.89-.1,1.51-.8,1.87-3.04.98-5.99,1.96-9.02,2.86-.8.18-1.34-.18-1.7-1.08-.89-3.57-1.7-7.05-2.41-10.53Z" style="fill: #fff;"/>
  <path d="M168.64,341.23c-.09-.36.09-.63.72-.98,2.32-.98,4.55-2.06,6.78-3.22.63-.27.98-.18,1.07.09.36,1.34.54,2.5.72,3.57,0,.27-.27.54-.8.89-1.87.98-3.93,1.87-5.89,2.77-.54.18-.89.18-1.07,0-.36-.89-.89-1.87-1.52-3.12Z" style="fill: #fff;"/>
  <path d="M171.32,346.23c-.09-.18.18-.44.63-.62,1.87-.8,3.66-1.7,5.45-2.59.44-.18.71-.27.8,0,.1.8,0,1.51-.09,1.96-.09.18-.27.35-.71.53-1.43.72-2.95,1.43-4.38,2.06-.36.18-.63.27-.72.18-.35-.36-.63-.89-.98-1.52Z" style="fill: #fff;"/>
  <path d="M161.41,350.15c-.18-.18,0-.35.45-.53,1.87-.72,3.75-1.43,5.62-2.24.53-.18.8-.18.98-.09.54.63.98,1.08,1.34,1.34v.09c-.09.09-.18.18-.53.27-1.52.63-3.03,1.25-4.55,1.79-.45.18-.72.18-.98.18-.63,0-1.43-.35-2.32-.8Z" style="fill: #fff;"/>
  <path d="M136.77,317.12c-.27-.72,0-1.25.8-1.61,3.22-1.16,6.43-2.5,9.65-3.84.89-.27,1.52-.09,1.96.53,1.25,2.59,2.41,5.09,3.66,7.41.27.63,0,1.17-.8,1.52-3.03,1.25-6.16,2.5-9.2,3.66-.89.27-1.42.09-1.87-.45-1.42-2.23-2.77-4.64-4.19-7.23Z" style="fill: #fff;"/>
  <path d="M144.09,350.25c-.36-.27-.18-.45.35-.72,2.32-.72,4.73-1.43,7.06-2.24.62-.18,1.07-.18,1.51.09,1.16.99,2.24,1.79,3.31,2.5.27.18.09.36-.45.54-2.05.72-4.02,1.34-6.07,1.96-.54.09-1.07.18-1.43,0-1.42-.54-2.86-1.25-4.28-2.14Z" style="fill: #fff;"/>
  <g style="clip-path: url(#n);">
    <g>
      <path d="M203.93,302.66v-9.38h3.05c1.02,0,1.78.21,2.29.63.52.42.79,1.05.79,1.88,0,.44-.13.83-.38,1.17-.24.33-.57.59-1.01.76.5.15.91.42,1.2.82.29.38.44.86.44,1.42,0,.84-.27,1.5-.82,1.99-.55.48-1.32.71-2.32.71h-3.25ZM205.16,298.27v3.38h2.05c.58,0,1.04-.14,1.36-.44.34-.31.52-.72.52-1.25,0-1.12-.62-1.69-1.85-1.69h-2.07ZM205.16,297.28h1.88c.55,0,.97-.14,1.28-.41.33-.27.49-.64.49-1.12,0-.5-.16-.88-.46-1.12-.29-.23-.75-.35-1.36-.35h-1.83v3Z" style="fill: #fff;"/>
      <path d="M217.59,302.66h-1.25v-9.38h1.25v9.38Z" style="fill: #fff;"/>
      <path d="M225.2,301.65h4.45v1.01h-5.7v-9.38h1.25v8.37Z" style="fill: #fff;"/>
      <path d="M236.41,301.65h4.45v1.01h-5.7v-9.38h1.25v8.37Z" style="fill: #fff;"/>
      <path d="M247.7,302.66h-1.25v-9.38h1.25v9.38Z" style="fill: #fff;"/>
      <path d="M261.26,302.66h-1.23l-4.72-7.23v7.23h-1.25v-9.38h1.25l4.72,7.25v-7.25h1.23v9.38Z" style="fill: #fff;"/>
      <path d="M274.5,301.43c-.31.46-.76.8-1.34,1.04-.57.22-1.23.33-1.99.33s-1.45-.18-2.05-.55c-.59-.36-1.04-.87-1.36-1.53-.33-.67-.49-1.45-.49-2.32v-.82c0-1.4.33-2.49.98-3.27.65-.78,1.58-1.17,2.78-1.17.98,0,1.77.26,2.37.76.6.49.96,1.2,1.09,2.13h-1.23c-.24-1.23-.98-1.85-2.24-1.85-.82,0-1.45.29-1.88.87-.42.59-.64,1.42-.65,2.51v.76c0,1.06.23,1.9.71,2.54.49.62,1.15.93,1.99.93.45,0,.85-.05,1.2-.16.34-.11.63-.28.87-.52v-2.1h-2.18v-1.01h3.41v3.44Z" style="fill: #fff;"/>
      <path d="M290.79,298.48c-1.06-.31-1.83-.68-2.32-1.12-.48-.45-.71-1.01-.71-1.66,0-.74.29-1.35.87-1.83.6-.49,1.37-.74,2.32-.74.63,0,1.21.13,1.72.38.5.26.9.6,1.17,1.04s.41.91.41,1.42h-1.23c0-.56-.18-1-.55-1.31-.37-.33-.87-.49-1.53-.49-.62,0-1.1.14-1.45.41-.33.26-.49.62-.49,1.09,0,.38.15.71.46.98.33.26.88.49,1.66.71.78.22,1.39.46,1.83.74.45.27.78.59.98.93.22.35.33.76.33,1.25,0,.75-.3,1.36-.9,1.83-.59.46-1.38.68-2.37.68-.64,0-1.24-.12-1.8-.35-.57-.25-1-.6-1.31-1.04-.29-.44-.44-.93-.44-1.47h1.25c0,.57.2,1.02.63,1.36.42.33.97.49,1.66.49.65,0,1.15-.14,1.5-.41.34-.27.52-.63.52-1.09s-.16-.8-.49-1.06c-.31-.25-.89-.5-1.75-.74Z" style="fill: #fff;"/>
      <path d="M307.2,298.27c0,.93-.16,1.74-.46,2.43-.31.67-.76,1.19-1.34,1.55-.57.37-1.22.55-1.96.55s-1.41-.18-1.99-.55c-.57-.36-1.01-.88-1.34-1.55-.31-.67-.46-1.45-.46-2.35v-.68c0-.89.15-1.68.46-2.37.31-.69.74-1.21,1.31-1.58.58-.38,1.24-.57,1.99-.57s1.4.18,1.99.55c.58.37,1.02.89,1.34,1.58.31.7.46,1.49.46,2.4v.6ZM305.95,297.67c0-1.1-.23-1.96-.68-2.56-.44-.6-1.06-.9-1.85-.9s-1.4.3-1.85.9c-.44.6-.67,1.43-.68,2.48v.68c0,1.08.22,1.92.68,2.54.45.62,1.08.93,1.88.93s1.42-.29,1.85-.87c.44-.58.65-1.42.65-2.51v-.68Z" style="fill: #fff;"/>
      <path d="M318.34,298.51h-3.95v4.15h-1.23v-9.38h5.81v1.01h-4.58v3.22h3.95v1.01Z" style="fill: #fff;"/>
      <path d="M331.05,294.29h-3.03v8.37h-1.23v-8.37h-3v-1.01h7.25v1.01Z" style="fill: #fff;"/>
      <path d="M338.56,299.71l.19,1.23.25-1.12,1.88-6.54h1.04l1.8,6.54.27,1.15.19-1.28,1.45-6.41h1.25l-2.26,9.38h-1.15l-1.94-6.84-.14-.71-.16.71-1.99,6.84h-1.12l-2.29-9.38h1.25l1.47,6.44Z" style="fill: #fff;"/>
      <path d="M357.54,300.2h-3.93l-.9,2.45h-1.25l3.57-9.38h1.09l3.57,9.38h-1.25l-.9-2.45ZM353.96,299.19h3.19l-1.58-4.39-1.61,4.39Z" style="fill: #fff;"/>
      <path d="M368.51,298.87h-2.21v3.79h-1.23v-9.38h3.11c1.05,0,1.86.25,2.43.74.56.48.85,1.17.85,2.07,0,.6-.16,1.12-.46,1.55-.31.42-.75.74-1.31.95l2.21,3.98v.08h-1.34l-2.05-3.79ZM366.3,297.86h1.91c.61,0,1.1-.15,1.47-.46.36-.33.55-.76.55-1.31s-.18-1-.52-1.31c-.35-.33-.85-.49-1.5-.49h-1.91v3.57Z" style="fill: #fff;"/>
      <path d="M382.59,298.32h-4.06v3.33h4.75v1.01h-5.97v-9.38h5.89v1.01h-4.66v3.03h4.06v1.01Z" style="fill: #fff;"/>
    </g>
  </g>
  <g style="clip-path: url(#o);">
    <g>
      <path d="M113.02,242.66h8.64v29.94h23.18v7.83h-31.82v-37.77Z" style="fill: #fff;"/>
      <path d="M147.01,276.12l14.56-33.46h11.32l14.56,33.46v4.31h-8.1l-2.95-7.28h-18.35l-2.97,7.28h-8.07v-4.31ZM173.43,265.86l-6.22-15.38-6.19,15.38h12.41Z" style="fill: #fff;"/>
      <path d="M192.56,242.66h27.24c2.69,0,4.84.81,6.46,2.43,1.62,1.62,2.43,3.78,2.43,6.49v6.46c0,1.91-.38,3.42-1.15,4.53-.75,1.09-1.58,1.92-2.51,2.48-1.08.65-2.28,1.11-3.63,1.36l8.1,9.71v4.31h-7.83l-10.5-13.47h-9.98v13.47h-8.64v-37.77ZM216.56,259.4c2.35,0,3.52-1.17,3.52-3.52v-2.15c0-2.35-1.17-3.52-3.52-3.52h-15.35v9.19h15.35Z" style="fill: #fff;"/>
      <path d="M233.29,276.12l14.56-33.46h11.32l14.56,33.46v4.31h-8.1l-2.95-7.28h-18.35l-2.97,7.28h-8.07v-4.31ZM259.71,265.86l-6.22-15.38-6.19,15.38h12.41Z" style="fill: #fff;"/>
      <path d="M278.84,242.66h31.82v4.85l-2.7,2.7h-20.48v9.19h17.26v7.55h-17.26v13.47h-8.64v-37.77Z" style="fill: #fff;"/>
      <path d="M312.83,276.12l14.56-33.46h11.32l14.56,33.46v4.31h-8.1l-2.95-7.28h-18.35l-2.97,7.28h-8.07v-4.31ZM339.26,265.86l-6.22-15.38-6.19,15.38h12.41Z" style="fill: #fff;"/>
      <path d="M366.76,280.43c-2.71,0-4.87-.8-6.49-2.43-1.62-1.62-2.43-3.77-2.43-6.46v-19.96c0-2.71.8-4.87,2.43-6.49,1.62-1.62,3.78-2.43,6.49-2.43h24.54v4.85l-2.7,2.7h-18.6c-2.35,0-3.52,1.17-3.52,3.52v15.65c0,2.33,1.17,3.49,3.52,3.49h21.3v7.55h-24.54Z" style="fill: #fff;"/>
      <path d="M408.82,250.21h-14.02v-7.55h36.68v4.85l-2.7,2.7h-11.34v30.22h-8.62v-30.22Z" style="fill: #fff;"/>
      <path d="M445.49,280.97c-2.71,0-4.87-.8-6.49-2.43-1.62-1.62-2.43-3.78-2.43-6.49v-29.4h8.64v27.24c0,2.35,1.16,3.52,3.49,3.52h12.95c2.35,0,3.52-1.17,3.52-3.52v-27.24h8.62v29.4c0,2.71-.81,4.87-2.43,6.49-1.62,1.62-3.78,2.43-6.46,2.43h-19.42Z" style="fill: #fff;"/>
    </g>
  </g>
</svg>